<svg xmlns="http://www.w3.org/2000/svg" width="14" height="16" viewBox="0 0 14 16" fill="#fff">
  <path d="M6.97405 15.3895L6.54508 15.0218C5.9537 14.5267 0.790039 10.0671 0.790039 6.8051C0.790039 3.38978 3.55872 0.621094 6.97405 0.621094C10.3894 0.621094 13.1581 3.38978 13.1581 6.8051C13.1581 10.0672 7.99439 14.5267 7.40547 15.0243L6.97405 15.3895ZM6.97405 1.95826C4.29848 1.96129 2.13026 4.12951 2.12723 6.80507C2.12723 8.85436 5.30412 12.1281 6.97405 13.6264C8.64401 12.1274 11.8209 8.85188 11.8209 6.80507C11.8178 4.12951 9.64964 1.96131 6.97405 1.95826Z" fill="#FFF"/>
  <path d="M6.97424 9.2564C5.62043 9.2564 4.52295 8.15892 4.52295 6.80511C4.52295 5.4513 5.62043 4.35382 6.97424 4.35382C8.32805 4.35382 9.42553 5.4513 9.42553 6.80511C9.42553 8.15892 8.32807 9.2564 6.97424 9.2564ZM6.97424 5.57944C6.29733 5.57944 5.74859 6.12818 5.74859 6.80508C5.74859 7.48198 6.29733 8.03072 6.97424 8.03072C7.65114 8.03072 8.19988 7.48198 8.19988 6.80508C8.19988 6.12818 7.65117 5.57944 6.97424 5.57944Z" fill="#FFF"/>
</svg>