<svg width="16" height="16" viewBox="0 0 16 16" fill="none" xmlns="http://www.w3.org/2000/svg">
<g clip-path="url(#clip0_4312_5947)">
<path d="M12.8882 0.666672H3.11085C1.76279 0.666672 0.666504 1.77857 0.666504 3.14582V10.5833C0.666504 11.9505 1.76279 13.0624 3.11085 13.0624H4.89705L7.18801 15.0185C7.42144 15.2292 7.71415 15.334 8.00503 15.3333C8.29102 15.3333 8.57395 15.2329 8.79455 15.0334L11.1454 13.0624H12.8888C14.2369 13.0624 15.3332 11.9505 15.3332 10.5833V3.14582C15.3332 1.77857 14.2363 0.666672 12.8882 0.666672ZM14.1104 10.5833C14.1104 11.2669 13.5622 11.8229 12.8882 11.8229H10.9254C10.7836 11.8229 10.6455 11.8731 10.5361 11.9648L7.98731 14.0814L5.51364 11.9685C5.40303 11.8743 5.2637 11.8229 5.11949 11.8229H3.11024C2.43621 11.8229 1.88806 11.2669 1.88806 10.5833V3.14582C1.88806 2.4622 2.43621 1.90625 3.11024 1.90625H12.8876C13.5616 1.90625 14.1098 2.4622 14.1098 3.14582L14.1104 10.5833ZM8.91616 10.8932C8.91616 11.4064 8.50551 11.8229 7.99953 11.8229C7.49355 11.8229 7.0829 11.4064 7.0829 10.8932C7.0829 10.38 7.49355 9.96349 7.99953 9.96349C8.50551 9.96349 8.91616 10.38 8.91616 10.8932ZM10.3608 4.97482C10.6602 6.15118 10.0986 7.37154 9.02493 7.87543C8.87888 7.94422 8.61001 8.27209 8.61001 8.59996V8.72392C8.61001 9.06666 8.33685 9.3437 7.99892 9.3437C7.66099 9.3437 7.38783 9.06666 7.38783 8.72392V8.59996C7.38783 7.74217 7.96653 7.0071 8.51101 6.75113C8.95833 6.54102 9.35736 5.99251 9.1777 5.28533C9.07382 4.87875 8.73528 4.53539 8.33502 4.43064C7.94209 4.3259 7.55833 4.40399 7.25217 4.64447C6.9503 4.88185 6.77736 5.23947 6.77736 5.6256C6.77736 5.96834 6.50421 6.24538 6.16628 6.24538C5.82834 6.24538 5.55519 5.96834 5.55519 5.6256C5.55519 4.85272 5.90045 4.1381 6.50421 3.66459C7.10674 3.18983 7.88648 3.03116 8.64117 3.23074C9.47103 3.44766 10.1469 4.13191 10.3608 4.97482Z" fill="white"/>
</g>
<defs>
<clipPath id="clip0_4312_5947">
<rect width="16" height="16" fill="white"/>
</clipPath>
</defs>
</svg>
