<svg width="16" height="16" viewBox="0 0 16 16" fill="none" xmlns="http://www.w3.org/2000/svg">
<g clip-path="url(#clip0_4312_16663)">
<path d="M8.91863 7.99976C8.91863 9.34782 10.0173 10.4441 11.3682 10.4441C12.7192 10.4441 13.8179 9.34782 13.8179 7.99976C13.8179 6.65171 12.7192 5.55543 11.3682 5.55543C10.0173 5.55543 8.91863 6.65171 8.91863 7.99976ZM11.3682 6.77759C12.0437 6.77759 12.5931 7.32574 12.5931 7.99976C12.5931 8.67379 12.0437 9.22193 11.3682 9.22193C10.6928 9.22193 10.1434 8.67379 10.1434 7.99976C10.1434 7.32574 10.6928 6.77759 11.3682 6.77759ZM8.00002 5.55543C9.35098 5.55543 10.4496 4.45914 10.4496 3.11109C10.4496 1.76303 9.35098 0.666748 8.00002 0.666748C6.64906 0.666748 5.5504 1.76303 5.5504 3.11109C5.5504 4.45914 6.64906 5.55543 8.00002 5.55543ZM8.00002 1.88892C8.6755 1.88892 9.22483 2.43706 9.22483 3.11109C9.22483 3.78511 8.6755 4.33326 8.00002 4.33326C7.32454 4.33326 6.77521 3.78511 6.77521 3.11109C6.77521 2.43706 7.32454 1.88892 8.00002 1.88892ZM4.6318 10.4441C5.98276 10.4441 7.08141 9.34782 7.08141 7.99976C7.08141 6.65171 5.98276 5.55543 4.6318 5.55543C3.28083 5.55543 2.18218 6.65171 2.18218 7.99976C2.18218 9.34782 3.28083 10.4441 4.6318 10.4441ZM4.6318 6.77759C5.30728 6.77759 5.85661 7.32574 5.85661 7.99976C5.85661 8.67379 5.30728 9.22193 4.6318 9.22193C3.95632 9.22193 3.40699 8.67379 3.40699 7.99976C3.40699 7.32574 3.95632 6.77759 4.6318 6.77759ZM15.3311 14.6667C15.3617 15.0028 15.1131 15.2998 14.7763 15.3303C14.7579 15.3316 14.7389 15.3328 14.7205 15.3328C14.407 15.3328 14.14 15.0938 14.1112 14.7767C14.0438 14.0318 13.6599 13.3376 13.0573 12.8713C13.0419 12.8591 12.9917 12.8646 12.9593 12.9013L11.8318 14.2047C11.7161 14.3392 11.5348 14.4424 11.3682 14.4168C11.1919 14.4168 11.0241 14.341 10.9077 14.209L9.76558 12.9098C9.73435 12.8738 9.68413 12.8671 9.66759 12.8805C9.06376 13.3535 8.69326 14.0269 8.6259 14.7773C8.59956 15.0682 8.37297 15.2784 8.09127 15.3157C8.07351 15.3187 8.0582 15.3291 8.03983 15.3309C8.02084 15.3322 8.00247 15.3334 7.9841 15.3334C7.97797 15.3334 7.97307 15.3303 7.96756 15.3303C7.96511 15.3303 7.96327 15.3316 7.96083 15.3309C7.95409 15.3309 7.94858 15.3261 7.94184 15.3254C7.64727 15.3047 7.4017 15.0798 7.37475 14.7773C7.30678 14.0214 6.9326 13.3449 6.32142 12.8719C6.30366 12.8591 6.25406 12.8652 6.22343 12.9019L5.096 14.2053C4.97964 14.3404 4.80939 14.4186 4.63241 14.4174C4.45604 14.4174 4.28824 14.3416 4.17188 14.209L3.02975 12.9098C2.9979 12.8744 2.94769 12.8677 2.93176 12.8811C2.32732 13.3541 1.95682 14.0275 1.88945 14.7779C1.85944 15.114 1.5661 15.3572 1.22438 15.3316C0.887559 15.301 0.638922 15.004 0.669543 14.6679C0.766303 13.5942 1.31563 12.5927 2.17606 11.9186C2.71252 11.4994 3.4915 11.5813 3.95019 12.1038L4.62812 12.875L5.29564 12.1032C5.75188 11.5746 6.53209 11.4878 7.07161 11.9064C7.44396 12.1942 7.75445 12.5462 8.00002 12.9361C8.24253 12.5517 8.5469 12.2046 8.91189 11.9186C9.44713 11.5001 10.2273 11.5807 10.686 12.1044L11.364 12.875L12.0315 12.1032C12.4877 11.5746 13.2685 11.4891 13.8068 11.9058C14.6771 12.5792 15.2319 13.5857 15.3299 14.6673L15.3311 14.6667Z" fill="white"/>
</g>
<defs>
<clipPath id="clip0_4312_16663">
<rect width="16" height="16" fill="white"/>
</clipPath>
</defs>
</svg>
