<svg xmlns="http://www.w3.org/2000/svg" width="16" height="16" viewBox="0 0 16 16" fill="none">
  <g clip-path="url(#clip0_4001_5033)">
    <path d="M5.99978 3.66667C5.99978 3.11333 6.44645 2.66667 6.99978 2.66667C7.55311 2.66667 7.99978 3.11333 7.99978 3.66667C7.99978 4.22 7.55311 4.66667 6.99978 4.66667C6.44645 4.66667 5.99978 4.22 5.99978 3.66667ZM15.9998 3.33333V7.33333C15.9998 9.17333 14.5064 10.6667 12.6664 10.6667H6.66645C4.82645 10.6667 3.33311 9.17333 3.33311 7.33333V3.33333C3.33311 1.49333 4.82645 0 6.66645 0H12.6664C14.5064 0 15.9998 1.49333 15.9998 3.33333ZM4.66645 7.33333C4.66645 7.84667 4.85978 8.31333 5.17978 8.67333L8.67311 5.18C9.32645 4.52667 10.4664 4.52667 11.1198 5.18L11.8131 5.87333C11.9664 6.02667 12.2264 6.02667 12.3798 5.87333L14.6664 3.58667V3.33333C14.6664 2.23333 13.7664 1.33333 12.6664 1.33333H6.66645C5.56645 1.33333 4.66645 2.23333 4.66645 3.33333V7.33333ZM14.6664 7.33333V5.47333L13.3198 6.82C12.6664 7.47333 11.5264 7.47333 10.8731 6.82L10.1798 6.12667C10.0264 5.97333 9.77311 5.97333 9.61311 6.12667L6.41978 9.32C6.49978 9.33333 6.57978 9.33333 6.66645 9.33333H12.6664C13.7664 9.33333 14.6664 8.43333 14.6664 7.33333ZM12.0598 12.0267C11.7064 11.9267 11.3398 12.14 11.2398 12.4933L11.0464 13.2C10.9064 13.7133 10.5731 14.1467 10.1064 14.4067C9.63978 14.6733 9.09978 14.74 8.58645 14.6L2.79978 13.0133C1.73311 12.72 1.10645 11.62 1.39978 10.5533L2.03978 8.18C2.13311 7.82667 1.92645 7.46 1.57311 7.36C1.21978 7.26667 0.853114 7.47333 0.753114 7.82667L0.119781 10.1933C-0.366886 11.9667 0.679781 13.8067 2.45311 14.2933L8.23978 15.88C8.53311 15.96 8.83311 16 9.12645 16C9.69978 16 10.2598 15.8533 10.7731 15.56C11.5464 15.12 12.0998 14.4067 12.3398 13.5467L12.5331 12.84C12.6331 12.4867 12.4198 12.12 12.0664 12.02L12.0598 12.0267Z" fill="#FFF"/>
  </g>
  <defs>
    <clipPath id="clip0_4001_5033">
      <rect width="16" height="16" fill="white"/>
    </clipPath>
  </defs>
</svg>