<svg xmlns="http://www.w3.org/2000/svg" width="24" height="24" viewBox="0 0 24 24" fill="none">
  <path d="M18.4167 4.66606H17.4074C16.9812 2.57732 15.1295 1 12.9167 1H5.58333C3.05608 1 1 3.05574 1 5.58257V17.3634C1 18.0912 1.39875 18.7565 2.0395 19.0993C2.331 19.256 2.65092 19.333 2.96992 19.333C3.35125 19.333 3.73167 19.2221 4.06075 19.0031L6.76492 17.2003C7.39833 18.9738 9.09417 20.2468 11.0833 20.2468H16.3056L19.9392 22.6691C20.2692 22.8891 20.6488 23 21.0301 23C21.3491 23 21.6681 22.9221 21.9605 22.7654C22.6022 22.4226 23 21.7572 23 21.0295V9.24862C23 6.7218 20.9439 4.66606 18.4167 4.66606ZM3.04417 17.478C3.02675 17.489 2.97542 17.522 2.90483 17.4844C2.83242 17.4459 2.83242 17.3845 2.83242 17.3644V5.58257C2.83242 4.06666 4.06625 2.83303 5.58242 2.83303H12.9157C14.4319 2.83303 15.6657 4.06666 15.6657 5.58257V11.9982C15.6657 13.5141 14.4319 14.7477 12.9157 14.7477H7.41575C7.116 14.7477 6.91983 14.8934 6.89783 14.9081L3.04417 17.478ZM21.1667 21.0304C21.1667 21.0497 21.1667 21.112 21.0942 21.1505C21.0218 21.1881 20.9723 21.1551 20.9558 21.1441L17.0921 18.5677C16.9418 18.4678 16.7648 18.4138 16.5833 18.4138H11.0833C9.888 18.4138 8.86958 17.6476 8.491 16.5807H12.9167C15.4439 16.5807 17.5 14.525 17.5 11.9982V6.49908H18.4167C19.9328 6.49908 21.1667 7.73271 21.1667 9.24862V21.0304Z" fill="#FFF"/>
</svg>