<svg xmlns="http://www.w3.org/2000/svg" width="16" height="16" viewBox="0 0 16 16" fill="none">
  <g clip-path="url(#clip0_4053_7346)">
    <path d="M12.4843 9.6296C12.0227 9.62998 11.5682 9.74277 11.16 9.95825C10.7517 10.1737 10.402 10.4854 10.1409 10.8664L6.16773 9.07046C6.44993 8.38827 6.45103 7.62201 6.17078 6.93902L10.1385 5.13389C10.5254 5.6941 11.1 6.09693 11.7582 6.2693C12.4164 6.44168 13.1145 6.37218 13.7259 6.07342C14.3373 5.77466 14.8215 5.26643 15.0906 4.64091C15.3598 4.01539 15.396 3.31402 15.1929 2.66401C14.9897 2.01401 14.5606 1.45843 13.9833 1.09805C13.406 0.737671 12.7188 0.596364 12.0463 0.699761C11.3739 0.803158 10.7607 1.14441 10.3181 1.66162C9.87541 2.17882 9.63259 2.83773 9.63364 3.51881C9.63623 3.68001 9.65257 3.8407 9.68248 3.99911L5.46454 5.9179C5.05944 5.53795 4.55229 5.28473 4.0054 5.18935C3.45851 5.09398 2.89571 5.1606 2.38612 5.38104C1.87654 5.60149 1.44238 5.96614 1.13697 6.43021C0.831566 6.89428 0.668219 7.43755 0.666999 7.99328C0.665779 8.54901 0.82674 9.09299 1.13011 9.5584C1.43347 10.0238 1.86603 10.3904 2.37464 10.6131C2.88325 10.8357 3.44576 10.9048 3.99306 10.8119C4.54036 10.7189 5.04862 10.4679 5.45538 10.0897L9.68431 12.0012C9.65493 12.1595 9.6388 12.3199 9.63609 12.4809C9.63596 13.045 9.80296 13.5965 10.1159 14.0656C10.4289 14.5346 10.8738 14.9003 11.3944 15.1162C11.915 15.3321 12.4878 15.3887 13.0405 15.2786C13.5932 15.1686 14.1008 14.897 14.4993 14.4981C14.8977 14.0992 15.169 13.591 15.2789 13.0377C15.3889 12.4845 15.3324 11.911 15.1167 11.3898C14.901 10.8687 14.5358 10.4233 14.0672 10.11C13.5986 9.79665 13.0478 9.62948 12.4843 9.6296ZM12.4843 1.88906C12.8063 1.88894 13.1211 1.98442 13.3889 2.16342C13.6567 2.34243 13.8654 2.59692 13.9887 2.89471C14.1121 3.19249 14.1444 3.5202 14.0816 3.83638C14.0189 4.15256 13.8639 4.44301 13.6362 4.671C13.4086 4.89898 13.1185 5.05426 12.8027 5.11719C12.4869 5.18013 12.1595 5.14789 11.862 5.02456C11.5645 4.90122 11.3102 4.69233 11.1313 4.42431C10.9524 4.15629 10.8569 3.84117 10.8569 3.51881C10.8572 3.08678 11.0288 2.67252 11.3339 2.36697C11.639 2.06142 12.0527 1.88954 12.4843 1.88906ZM3.53198 9.6296C3.20997 9.62972 2.89516 9.53424 2.62737 9.35523C2.35957 9.17623 2.15081 8.92174 2.0275 8.62395C1.90419 8.32616 1.87187 7.99846 1.93461 7.68228C1.99736 7.3661 2.15236 7.07565 2.38001 6.84766C2.60766 6.61967 2.89773 6.4644 3.21355 6.40146C3.52936 6.33853 3.85672 6.37077 4.15422 6.4941C4.45173 6.61743 4.70602 6.82632 4.88493 7.09435C5.06384 7.36237 5.15934 7.67749 5.15934 7.99985C5.15885 8.43183 4.98726 8.84599 4.6822 9.15151C4.37713 9.45702 3.96349 9.62895 3.53198 9.6296ZM12.4843 14.1106C12.1623 14.1106 11.8475 14.0151 11.5798 13.836C11.3121 13.6569 11.1034 13.4024 10.9802 13.1046C10.857 12.8068 10.8248 12.4791 10.8876 12.1629C10.9504 11.8468 11.1054 11.5564 11.3331 11.3285C11.5608 11.1006 11.8509 10.9453 12.1667 10.8825C12.4825 10.8196 12.8098 10.8519 13.1073 10.9752C13.4047 11.0986 13.659 11.3074 13.8379 11.5755C14.0167 11.8435 14.1122 12.1586 14.1122 12.4809C14.1119 12.913 13.9403 13.3274 13.635 13.6329C13.3298 13.9385 12.9159 14.1103 12.4843 14.1106Z" fill="white"/>
  </g>
  <defs>
    <clipPath id="clip0_4053_7346">
      <rect width="16" height="16" fill="white"/>
    </clipPath>
  </defs>
</svg>