<svg
class="my-auto"
xmlns="http://www.w3.org/2000/svg"
width="16"
height="16"
viewBox="0 0 16 16"
fill="none"
>
<g clip-path="url(#clip0_2442_9647)">
    <path
    d="M12.3075 3.07689H11.6306C11.4878 2.38238 11.1099 1.75834 10.5606 1.30995C10.0113 0.861566 9.32428 0.616252 8.61523 0.615356L7.38447 0.615356C6.67542 0.616252 5.98835 0.861566 5.43908 1.30995C4.88981 1.75834 4.51191 2.38238 4.36908 3.07689H3.69216C2.87641 3.07787 2.09435 3.40236 1.51752 3.97918C0.9407 4.55601 0.616212 5.33807 0.615234 6.15382L0.615234 12.3077C0.616212 13.1234 0.9407 13.9055 1.51752 14.4823C2.09435 15.0591 2.87641 15.3836 3.69216 15.3846H12.3075C13.1233 15.3836 13.9054 15.0591 14.4822 14.4823C15.059 13.9055 15.3835 13.1234 15.3845 12.3077V6.15382C15.3835 5.33807 15.059 4.55601 14.4822 3.97918C13.9054 3.40236 13.1233 3.07787 12.3075 3.07689ZM7.38447 1.84613H8.61523C8.9957 1.8477 9.36639 1.96679 9.67659 2.1871C9.98678 2.40741 10.2213 2.71818 10.3482 3.07689H5.65154C5.77836 2.71818 6.01292 2.40741 6.32311 2.1871C6.63331 1.96679 7.004 1.8477 7.38447 1.84613ZM3.69216 4.30766H12.3075C12.7972 4.30766 13.2667 4.50217 13.613 4.84839C13.9592 5.19461 14.1537 5.66419 14.1537 6.15382V7.99997H1.846V6.15382C1.846 5.66419 2.04051 5.19461 2.38673 4.84839C2.73295 4.50217 3.20253 4.30766 3.69216 4.30766ZM12.3075 14.1538H3.69216C3.20253 14.1538 2.73295 13.9593 2.38673 13.6131C2.04051 13.2669 1.846 12.7973 1.846 12.3077V9.23074H7.38447V9.84613C7.38447 10.0093 7.4493 10.1659 7.56471 10.2813C7.68011 10.3967 7.83664 10.4615 7.99985 10.4615C8.16306 10.4615 8.31959 10.3967 8.43499 10.2813C8.5504 10.1659 8.61523 10.0093 8.61523 9.84613V9.23074H14.1537V12.3077C14.1537 12.7973 13.9592 13.2669 13.613 13.6131C13.2667 13.9593 12.7972 14.1538 12.3075 14.1538Z"
    fill="#555972"
    />
</g>
<defs>
    <clipPath id="clip0_2442_9647">
    <rect width="16" height="16" fill="white" />
    </clipPath>
</defs>
</svg>
