<svg xmlns="http://www.w3.org/2000/svg" width="20" height="20" viewBox="0 0 20 20" fill="none">
  <path d="M13.8 3.2V2.5V1.75C13.8 1.73674 13.7947 1.72402 13.7854 1.71465C13.776 1.70527 13.7633 1.7 13.75 1.7C13.7367 1.7 13.724 1.70527 13.7146 1.71465C13.7053 1.72402 13.7 1.73674 13.7 1.75V2.5V3.2H13H7H6.3V2.5V1.75C6.3 1.73674 6.29473 1.72402 6.28536 1.71465L6.78033 1.21967L6.28535 1.71464C6.27598 1.70527 6.26326 1.7 6.25 1.7C6.23674 1.7 6.22402 1.70527 6.21465 1.71464L5.71967 1.21967L6.21464 1.71465C6.20527 1.72402 6.2 1.73674 6.2 1.75V2.5V3.2H5.5H4.75046C3.94176 3.20107 3.16648 3.5228 2.59464 4.09464C2.0228 4.66648 1.70107 5.44176 1.7 6.25046V15.2495C1.70107 16.0582 2.0228 16.8335 2.59464 17.4054C3.16638 17.9771 3.94147 18.2988 4.75 18.3C4.75028 18.3 4.75056 18.3 4.75084 18.3M13.8 3.2L4.75 19L4.75084 18.3M13.8 3.2H14.5H15.2495M13.8 3.2H15.2495M4.75084 18.3H15.2492M4.75084 18.3H15.2492M15.2492 18.3L15.25 18.3L15.2492 18.3ZM18.3 6.25L18.3 6.25084V15.2492L15.25 2.5C16.2442 2.50119 17.1973 2.89666 17.9003 3.59966C18.6033 4.30267 18.9988 5.2558 19 6.25H18.3ZM18.3 6.25C18.2988 5.44147 17.9771 4.66638 17.4054 4.09464C16.8335 3.5228 16.0582 3.20107 15.2495 3.2M18.3 6.25L15.2495 3.2M17.5 7.7H18.2V7V6.25C18.2 5.46761 17.8892 4.71727 17.336 4.16404C16.7827 3.6108 16.0324 3.3 15.25 3.3H4.75C3.96761 3.3 3.21727 3.6108 2.66404 4.16403C2.1108 4.71727 1.8 5.46761 1.8 6.25V7V7.7H2.5H17.5ZM2.5 7.8H1.8V8.5V15.25C1.8 16.0324 2.1108 16.7827 2.66404 17.336C3.21727 17.8892 3.96761 18.2 4.75 18.2H15.25C16.0324 18.2 16.7827 17.8892 17.336 17.336C17.8892 16.7827 18.2 16.0324 18.2 15.25V8.5V7.8H17.5H2.5Z" stroke="#FF3D9A" stroke-width="1.4"/>
  <path d="M10 13C10.5523 13 11 12.5523 11 12C11 11.4477 10.5523 11 10 11C9.44772 11 9 11.4477 9 12C9 12.5523 9.44772 13 10 13Z" fill="#FF3D9A"/>
  <path d="M6 13C6.55228 13 7 12.5523 7 12C7 11.4477 6.55228 11 6 11C5.44772 11 5 11.4477 5 12C5 12.5523 5.44772 13 6 13Z" fill="#FF3D9A"/>
  <path d="M14 13C14.5523 13 15 12.5523 15 12C15 11.4477 14.5523 11 14 11C13.4477 11 13 11.4477 13 12C13 12.5523 13.4477 13 14 13Z" fill="#FF3D9A"/>
</svg>