<svg xmlns="http://www.w3.org/2000/svg" width="20" height="20" viewBox="0 0 20 20" fill="none">
  <g clip-path="url(#clip0_4292_12384)">
    <path d="M10.0002 0.833252C8.18717 0.833252 6.41489 1.37087 4.90744 2.37811C3.39999 3.38536 2.22507 4.817 1.53127 6.49199C0.837468 8.16697 0.655937 10.0101 1.00964 11.7882C1.36333 13.5664 2.23637 15.1997 3.51835 16.4817C4.80033 17.7637 6.43368 18.6367 8.21184 18.9904C9.99 19.3441 11.8331 19.1626 13.5081 18.4688C15.1831 17.775 16.6147 16.6001 17.622 15.0926C18.6292 13.5852 19.1668 11.8129 19.1668 9.99992C19.1642 7.56957 18.1976 5.23952 16.4791 3.52101C14.7606 1.8025 12.4305 0.835881 10.0002 0.833252ZM10.0002 17.6388C8.48934 17.6388 7.01243 17.1908 5.75623 16.3514C4.50002 15.512 3.52092 14.319 2.94275 12.9232C2.36458 11.5274 2.21331 9.99144 2.50806 8.50964C2.8028 7.02784 3.53034 5.66673 4.59866 4.59841C5.66697 3.53009 7.02809 2.80256 8.50989 2.50781C9.99169 2.21306 11.5276 2.36434 12.9234 2.94251C14.3193 3.52067 15.5123 4.49977 16.3517 5.75598C17.191 7.01219 17.6391 8.48909 17.6391 9.99992C17.6368 12.0252 16.8313 13.9669 15.3992 15.399C13.9671 16.8311 12.0254 17.6366 10.0002 17.6388ZM13.8196 9.99992C13.8196 10.2025 13.7391 10.3968 13.5959 10.5401C13.4526 10.6833 13.2583 10.7638 13.0557 10.7638H10.7641V13.0555C10.7641 13.2581 10.6836 13.4524 10.5403 13.5956C10.3971 13.7389 10.2028 13.8194 10.0002 13.8194C9.79757 13.8194 9.60327 13.7389 9.46001 13.5956C9.31676 13.4524 9.23628 13.2581 9.23628 13.0555V10.7638H6.94461C6.74201 10.7638 6.54772 10.6833 6.40446 10.5401C6.2612 10.3968 6.18072 10.2025 6.18072 9.99992C6.18072 9.79732 6.2612 9.60302 6.40446 9.45977C6.54772 9.31651 6.74201 9.23603 6.94461 9.23603H9.23628V6.94436C9.23628 6.74177 9.31676 6.54747 9.46001 6.40421C9.60327 6.26095 9.79757 6.18047 10.0002 6.18047C10.2028 6.18047 10.3971 6.26095 10.5403 6.40421C10.6836 6.54747 10.7641 6.74177 10.7641 6.94436V9.23603H13.0557C13.2583 9.23603 13.4526 9.31651 13.5959 9.45977C13.7391 9.60302 13.8196 9.79732 13.8196 9.99992Z" fill="#AAACB9"/>
  </g>
  <defs>
    <clipPath id="clip0_4292_12384">
      <rect width="20" height="20" fill="white"/>
    </clipPath>
  </defs>
</svg>