<svg
	xmlns="http://www.w3.org/2000/svg"
	width="32"
	height="32"
	viewBox="0 0 32 32"
	fill="none"
	class="m-[0.5rem]"
	>
	<circle cx="15.9999" cy="16" r="14.6667" fill="white" />
	<path
		d="M15.9999 1.33331C7.91247 1.33331 1.33325 7.91254 1.33325 16C1.33325 24.0874 7.91247 30.6666 15.9999 30.6666C24.0874 30.6666 30.6666 24.0874 30.6666 16C30.6666 7.91254 24.0874 1.33331 15.9999 1.33331ZM20.5307 18.8025C21.0086 19.2804 21.0086 20.0529 20.5307 20.5308C20.2924 20.7691 19.9795 20.8889 19.6666 20.8889C19.3537 20.8889 19.0408 20.7691 18.8025 20.5308L15.9999 17.7282L13.1974 20.5308C12.959 20.7691 12.6461 20.8889 12.3333 20.8889C12.0204 20.8889 11.7075 20.7691 11.4691 20.5308C10.9913 20.0529 10.9913 19.2804 11.4691 18.8025L14.2717 16L11.4691 13.1974C10.9913 12.7195 10.9913 11.9471 11.4691 11.4692C11.947 10.9913 12.7195 10.9913 13.1974 11.4692L15.9999 14.2718L18.8025 11.4692C19.2804 10.9913 20.0528 10.9913 20.5307 11.4692C21.0086 11.9471 21.0086 12.7195 20.5307 13.1974L17.7281 16L20.5307 18.8025Z"
		fill="#FF3D9A"
	/>
</svg>