<svg
	xmlns="http://www.w3.org/2000/svg"
	width="20"
	height="20"
	viewBox="0 0 20 20"
	fill="none"
	class="cursor-pointer"
>
	<path
	d="M17.8241 8.23137C17.1975 7.22318 16.407 6.32261 15.484 5.56541L17.4278 3.6558C17.5542 3.52717 17.6242 3.3549 17.6226 3.17608C17.621 2.99726 17.548 2.8262 17.4193 2.69975C17.2906 2.57331 17.1165 2.50158 16.9345 2.50003C16.7525 2.49847 16.5771 2.56721 16.4462 2.69145L14.3324 4.77088C13.022 4.00623 11.524 3.60769 9.99996 3.61829C5.70225 3.61829 3.25315 6.50862 2.17577 8.23137C1.84293 8.76027 1.66663 9.3698 1.66663 9.99162C1.66663 10.6134 1.84293 11.223 2.17577 11.7519C2.80246 12.7601 3.59295 13.6606 4.51588 14.4178L2.57216 16.3274C2.50585 16.3904 2.45297 16.4656 2.41659 16.5488C2.38021 16.632 2.36106 16.7215 2.36025 16.8121C2.35945 16.9026 2.37702 16.9924 2.41192 17.0762C2.44683 17.1601 2.49837 17.2362 2.56355 17.3002C2.62873 17.3643 2.70624 17.4149 2.79155 17.4492C2.87686 17.4835 2.96827 17.5008 3.06045 17.5C3.15262 17.4992 3.24371 17.4804 3.32841 17.4446C3.4131 17.4089 3.4897 17.3569 3.55374 17.2918L5.6724 15.2103C6.98112 15.9748 8.47738 16.3741 9.99996 16.3649C14.2977 16.3649 16.7468 13.4746 17.8241 11.7519C18.157 11.223 18.3333 10.6134 18.3333 9.99162C18.3333 9.3698 18.157 8.76027 17.8241 8.23137ZM3.35867 11.0378C3.16092 10.7234 3.05618 10.3612 3.05618 9.99162C3.05618 9.62206 3.16092 9.2598 3.35867 8.94543C4.28472 7.4682 6.37769 4.9823 9.99996 4.9823C11.1525 4.97596 12.2889 5.24885 13.3085 5.77683L11.9111 7.14971C11.2446 6.715 10.4456 6.52022 9.64956 6.59841C8.85355 6.6766 8.10959 7.02295 7.54393 7.57869C6.97826 8.13443 6.62572 8.86533 6.54613 9.64737C6.46654 10.4294 6.66481 11.2144 7.10728 11.8692L5.50371 13.4446C4.6534 12.7692 3.92779 11.9551 3.35867 11.0378ZM12.0825 9.99162C12.0825 10.5343 11.8631 11.0547 11.4726 11.4384C11.082 11.8221 10.5523 12.0376 9.99996 12.0376C9.69071 12.0365 9.38574 11.9665 9.10793 11.833L11.8743 9.11524C12.0101 9.38818 12.0813 9.6878 12.0825 9.99162ZM7.9174 9.99162C7.9174 9.44898 8.13681 8.92857 8.52737 8.54487C8.91792 8.16117 9.44763 7.94561 9.99996 7.94561C10.3092 7.94678 10.6142 8.01673 10.892 8.15021L8.12565 10.868C7.98979 10.5951 7.9186 10.2954 7.9174 9.99162ZM16.6412 11.0378C15.7152 12.515 13.6222 15.0009 9.99996 15.0009C8.84742 15.0073 7.71106 14.7344 6.69146 14.2064L8.08886 12.8335C8.75533 13.2682 9.55436 13.463 10.3504 13.3848C11.1464 13.3066 11.8903 12.9603 12.456 12.4045C13.0217 11.8488 13.3742 11.1179 13.4538 10.3359C13.5334 9.55384 13.3351 8.76883 12.8926 8.11406L14.4962 6.53863C15.3465 7.21401 16.0721 8.02816 16.6412 8.94543C16.839 9.2598 16.9437 9.62206 16.9437 9.99162C16.9437 10.3612 16.839 10.7234 16.6412 11.0378Z"
	fill="#AAACB9"
	/>
</svg>