<svg xmlns="http://www.w3.org/2000/svg" width="56" height="56" viewBox="0 0 56 56" fill="none">
  <path d="M28.0002 2.33331C13.8471 2.33331 2.3335 13.847 2.3335 28C2.3335 42.153 13.8471 53.6666 28.0002 53.6666C42.1532 53.6666 53.6668 42.153 53.6668 28C53.6668 13.847 42.1532 2.33331 28.0002 2.33331ZM41.2613 24.8173L31.7946 34.1108C30.1198 35.7535 27.9638 36.5726 25.8057 36.5726C23.6711 36.5726 21.5364 35.7684 19.8681 34.1578L15.8064 30.1645C14.9636 29.3368 14.9529 27.9829 15.7807 27.1401C16.6063 26.2953 17.9645 26.2846 18.8051 27.1145L22.854 31.095C24.5138 32.6991 27.1339 32.6906 28.8022 31.0565L38.2668 21.7651C39.1074 20.9352 40.4571 20.9502 41.2912 21.7929C42.119 22.6356 42.1061 23.9896 41.2613 24.8173Z" fill="#FF3D9A"/>
</svg>