<svg width="20" height="20" viewBox="0 0 20 20" fill="none" xmlns="http://www.w3.org/2000/svg">
<g clip-path="url(#clip0_4312_15208)">
<path d="M12.2913 16.111H4.65245C3.63984 16.1098 2.66906 15.707 1.95304 14.991C1.23701 14.275 0.834221 13.3042 0.833008 12.2916L0.833008 4.6527C0.834221 3.64009 1.23701 2.6693 1.95304 1.95328C2.66906 1.23726 3.63984 0.834465 4.65245 0.833252L12.2913 0.833252C13.3039 0.834465 14.2747 1.23726 14.9908 1.95328C15.7068 2.6693 16.1096 3.64009 16.1108 4.6527V12.2916C16.1096 13.3042 15.7068 14.275 14.9908 14.991C14.2747 15.707 13.3039 16.1098 12.2913 16.111ZM4.65245 2.36103C4.04466 2.36103 3.46177 2.60247 3.032 3.03224C2.60223 3.46201 2.36079 4.04491 2.36079 4.6527V12.2916C2.36079 12.8994 2.60223 13.4823 3.032 13.912C3.46177 14.3418 4.04466 14.5833 4.65245 14.5833H12.2913C12.8991 14.5833 13.482 14.3418 13.9118 13.912C14.3416 13.4823 14.583 12.8994 14.583 12.2916V4.6527C14.583 4.04491 14.3416 3.46201 13.9118 3.03224C13.482 2.60247 12.8991 2.36103 12.2913 2.36103H4.65245ZM19.1663 15.3471V5.41658C19.1663 5.21399 19.0859 5.01969 18.9426 4.87643C18.7993 4.73318 18.605 4.6527 18.4025 4.6527C18.1999 4.6527 18.0056 4.73318 17.8623 4.87643C17.719 5.01969 17.6386 5.21399 17.6386 5.41658V15.3471C17.6386 15.9549 17.3971 16.5378 16.9673 16.9676C16.5376 17.3974 15.9547 17.6388 15.3469 17.6388H5.41634C5.21375 17.6388 5.01945 17.7193 4.87619 17.8625C4.73293 18.0058 4.65245 18.2001 4.65245 18.4027C4.65245 18.6053 4.73293 18.7996 4.87619 18.9428C5.01945 19.0861 5.21375 19.1666 5.41634 19.1666H15.3469C16.3595 19.1654 17.3303 18.7626 18.0463 18.0466C18.7623 17.3305 19.1651 16.3597 19.1663 15.3471Z" fill="#AAACB9"/>
</g>
<defs>
<clipPath id="clip0_4312_15208">
<rect width="20" height="20" fill="white"/>
</clipPath>
</defs>
</svg>
