<svg xmlns="http://www.w3.org/2000/svg" width="32" height="32" viewBox="0 0 32 32" fill="none">
  <g clip-path="url(#clip0_1759_30234)">
    <path d="M15.3333 8.00004C16.4373 8.00004 17.3333 8.89604 17.3333 10C17.3333 11.104 16.4373 12 15.3333 12C14.2293 12 13.3333 11.104 13.3333 10C13.3333 8.89604 14.2293 8.00004 15.3333 8.00004ZM7.33333 4.00004C8.43733 4.00004 9.33333 3.10404 9.33333 2.00004C9.33333 0.896044 8.43733 4.40322e-05 7.33333 4.40322e-05C6.22933 4.40322e-05 5.33333 0.896044 5.33333 2.00004C5.33333 3.10404 6.22933 4.00004 7.33333 4.00004ZM30.9813 17.3534L21.908 27.536C19.38 30.3734 15.752 32 11.9533 32H5.33333C2.392 32 0 29.608 0 26.6667V20C0 17.0587 2.392 14.6667 5.33333 14.6667H17.144C18.6627 14.6667 19.9947 15.4787 20.7293 16.6907L25.0173 11.9787C25.74 11.1854 26.7267 10.72 27.7987 10.6707C28.876 10.6147 29.8973 10.9907 30.6893 11.7134C32.308 13.1894 32.4387 15.7187 30.9813 17.352V17.3534ZM28.8933 13.6854C28.628 13.4427 28.2813 13.3294 27.9227 13.336C27.5627 13.3534 27.232 13.508 26.9893 13.7747L21.088 20.26C20.5747 21.688 19.3027 22.7814 17.736 23.0054L10.8547 23.988C10.128 24.0934 9.45067 23.5867 9.34667 22.8574C9.24267 22.128 9.74933 21.4534 10.4773 21.3494L17.3587 20.3667C18.104 20.26 18.6667 19.612 18.6667 18.8587C18.6667 18.0187 17.984 17.336 17.144 17.336H5.33333C3.86267 17.336 2.66667 18.532 2.66667 20.0027V26.6694C2.66667 28.14 3.86267 29.336 5.33333 29.336H11.9533C14.992 29.336 17.896 28.0347 19.9173 25.7654L28.9907 15.5814C29.48 15.032 29.436 14.1827 28.8933 13.6867V13.6854ZM7.61333 11.7894C7.836 11.932 8.08533 12.0014 8.33333 12.0014C8.772 12.0014 9.20133 11.7854 9.456 11.3894L15.4547 2.05471C15.852 1.43604 15.6733 0.610711 15.0533 0.212044C14.436 -0.186623 13.6093 -0.00662263 13.2107 0.613377L7.21067 9.94671C6.81333 10.5654 6.99333 11.3907 7.61333 11.7894Z" fill="white"/>
  </g>
  <defs>
    <clipPath id="clip0_1759_30234">
      <rect width="32" height="32" fill="white"/>
    </clipPath>
  </defs>
</svg>