<svg width="40" height="40" viewBox="0 0 40 40" fill="none" xmlns="http://www.w3.org/2000/svg">
<path d="M21.9788 30.2004C23.9576 30.2004 25.7008 29.9188 27.2085 29.3556C28.7632 28.7455 30.2002 27.8069 31.5194 26.5397L37.3852 32.8755C33.8045 36.9585 28.5748 39 21.6961 39C17.4087 39 13.616 38.1787 10.318 36.5361C7.02002 34.8466 4.47585 32.5235 2.68551 29.5668C0.89517 26.6101 0 23.2545 0 19.5C0 15.7924 0.871614 12.4603 2.61484 9.50361C4.40518 6.5 6.83157 4.17689 9.89399 2.53429C13.0035 0.844765 16.49 0 20.3534 0C23.9811 0 27.2791 0.774368 30.2473 2.3231C33.2155 3.82491 35.5713 6.03068 37.3145 8.94043C39.1048 11.8032 40 15.2058 40 19.148L11.8728 24.5686C12.6737 26.4459 13.9223 27.8538 15.6184 28.7924C17.3616 29.731 19.4817 30.2004 21.9788 30.2004ZM20.3534 8.30686C17.5736 8.30686 15.3121 9.19855 13.5689 10.9819C11.8257 12.7653 10.9069 15.2292 10.8127 18.3736L29.3286 14.7834C28.8104 12.8123 27.7503 11.2401 26.1484 10.0668C24.5465 8.8935 22.6148 8.30686 20.3534 8.30686Z" fill="#FF3D9A"/>
</svg>
