<svg xmlns="http://www.w3.org/2000/svg" width="20" height="20" viewBox="0 0 20 20" fill="none">
  <g clip-path="url(#clip0_4192_17954)">
    <path d="M18.354 1.64606C17.8328 1.12562 17.1263 0.833313 16.3898 0.833313C15.6532 0.833313 14.9467 1.12562 14.4255 1.64606L1.95621 14.1156C1.59913 14.4707 1.316 14.8931 1.12321 15.3583C0.930414 15.8235 0.831783 16.3223 0.833019 16.8259V18.3999C0.833019 18.6033 0.913794 18.7983 1.05758 18.9421C1.20136 19.0859 1.39636 19.1666 1.5997 19.1666H3.1737C3.67723 19.1681 4.17603 19.0696 4.64125 18.8769C5.10646 18.6842 5.52883 18.4012 5.88392 18.0442L18.354 5.57385C18.8742 5.05265 19.1663 4.34634 19.1663 3.60996C19.1663 2.87357 18.8742 2.16727 18.354 1.64606ZM4.79983 16.9601C4.36742 17.3896 3.78318 17.6315 3.1737 17.6332H2.36638V16.8259C2.36561 16.5238 2.42477 16.2244 2.54045 15.9453C2.65613 15.6662 2.82602 15.4128 3.0403 15.1997L12.5034 5.73639L14.2668 7.4998L4.79983 16.9601ZM17.2691 4.48974L15.3478 6.41185L13.5845 4.65228L15.5065 2.73017C15.6223 2.61464 15.7597 2.52304 15.9109 2.46061C16.0621 2.39818 16.2241 2.36614 16.3877 2.36631C16.5512 2.36649 16.7132 2.39888 16.8642 2.46164C17.0152 2.5244 17.1525 2.6163 17.268 2.73209C17.3835 2.84787 17.4751 2.98528 17.5375 3.13647C17.6 3.28766 17.632 3.44966 17.6318 3.61323C17.6317 3.7768 17.5993 3.93873 17.5365 4.08978C17.4737 4.24083 17.3819 4.37804 17.2661 4.49357L17.2691 4.48974Z" fill="#AAACB9"/>
  </g>
  <defs>
    <clipPath id="clip0_4192_17954">
      <rect width="20" height="20" fill="white"/>
    </clipPath>
  </defs>
</svg>