<svg width="34" height="13" viewBox="0 0 34 13" fill="none" xmlns="http://www.w3.org/2000/svg">
<path d="M9.98 11.04C9.44667 11.4027 8.77467 11.6853 7.964 11.888C7.164 12.0907 6.31067 12.192 5.404 12.192C4.27333 12.192 3.31333 12.0533 2.524 11.776C1.73467 11.488 1.13733 11.0933 0.732 10.592C0.326667 10.08 0.124 9.49867 0.124 8.848C0.124 8.25067 0.289333 7.72267 0.62 7.264C0.950667 6.80533 1.404 6.464 1.98 6.24C1.54267 6.00533 1.20133 5.68533 0.956 5.28C0.721333 4.87467 0.604 4.42133 0.604 3.92C0.604 3.312 0.790667 2.75733 1.164 2.256C1.53733 1.75467 2.10267 1.35467 2.86 1.056C3.61733 0.757333 4.54533 0.608 5.644 0.608C6.36933 0.608 7.07867 0.682666 7.772 0.832C8.46533 0.970666 9.068 1.16267 9.58 1.408L8.86 3.392C7.87867 2.93333 6.83867 2.704 5.74 2.704C4.908 2.704 4.27867 2.832 3.852 3.088C3.436 3.33333 3.228 3.66933 3.228 4.096C3.228 4.49067 3.36667 4.79467 3.644 5.008C3.932 5.21067 4.364 5.312 4.94 5.312H7.996V7.36H4.78C4.12933 7.36 3.628 7.472 3.276 7.696C2.924 7.92 2.748 8.24533 2.748 8.672C2.748 9.12 2.972 9.472 3.42 9.728C3.87867 9.97333 4.57733 10.096 5.516 10.096C6.17733 10.096 6.83867 10.0107 7.5 9.84C8.16133 9.65867 8.72133 9.408 9.18 9.088L9.98 11.04ZM18.8335 6.224H21.2015V12H19.2495V11.328C18.4708 11.904 17.4682 12.192 16.2415 12.192C15.2068 12.192 14.2575 11.968 13.3935 11.52C12.5295 11.072 11.8415 10.4213 11.3295 9.568C10.8175 8.704 10.5615 7.68 10.5615 6.496C10.5615 5.35467 10.8228 4.34133 11.3455 3.456C11.8788 2.56 12.6148 1.86133 13.5535 1.36C14.4922 0.858666 15.5482 0.608 16.7215 0.608C17.7028 0.608 18.5935 0.773333 19.3935 1.104C20.1935 1.43467 20.8655 1.91467 21.4095 2.544L19.7455 4.08C18.9455 3.23733 17.9802 2.816 16.8495 2.816C16.1348 2.816 15.5002 2.97067 14.9455 3.28C14.3908 3.57867 13.9588 4.00533 13.6495 4.56C13.3402 5.11467 13.1855 5.75467 13.1855 6.48C13.1855 7.23733 13.3348 7.88267 13.6335 8.416C13.9428 8.94933 14.3535 9.35467 14.8655 9.632C15.3775 9.89867 15.9375 10.032 16.5455 10.032C17.4522 10.032 18.2148 9.776 18.8335 9.264V6.224ZM28.4573 0.799999C29.4493 0.799999 30.3079 0.965333 31.0333 1.296C31.7693 1.62667 32.3346 2.096 32.7293 2.704C33.1239 3.312 33.3213 4.032 33.3213 4.864C33.3213 5.68533 33.1239 6.40533 32.7293 7.024C32.3346 7.632 31.7693 8.10133 31.0333 8.432C30.3079 8.752 29.4493 8.912 28.4573 8.912H26.2013V12H23.6093V0.799999H28.4573ZM28.3133 6.8C29.0919 6.8 29.6839 6.63467 30.0893 6.304C30.4946 5.96267 30.6973 5.48267 30.6973 4.864C30.6973 4.23467 30.4946 3.75467 30.0893 3.424C29.6839 3.08267 29.0919 2.912 28.3133 2.912H26.2013V6.8H28.3133Z" fill="#2A2F4F"/>
</svg>
