<svg
	xmlns="http://www.w3.org/2000/svg"
	width="20"
	height="20"
	viewBox="0 0 20 20"
	fill="none"
>
	<path
		d="M18.4666 13.7113C18.4666 13.7116 18.4666 13.7118 18.4666 13.7121C18.4654 14.5288 18.1378 15.3129 17.5537 15.8922C16.9692 16.4719 16.1755 16.799 15.3464 16.8H4.65359C3.82448 16.799 3.03077 16.4719 2.44626 15.8922C1.86204 15.3128 1.53441 14.5285 1.53331 13.7117V6.2883C1.53441 5.47146 1.86204 4.68719 2.44626 4.1078C3.03068 3.5282 3.82424 3.20108 4.65321 3.2H15.3468C16.1757 3.20108 16.9693 3.5282 17.5537 4.1078L18.0466 3.61077L19.1666 13.7121L18.4666 13.7113ZM18.4666 13.7113V6.28872M18.4666 13.7113V6.28872M18.4666 6.28872L18.4666 6.28788L18.4666 6.28872ZM4.65276 3.31515L4.65139 3.31515C4.05557 3.31632 3.47324 3.49425 2.97932 3.82674C2.48534 4.15928 2.1021 4.63144 1.87985 5.18314L1.67297 5.69668L2.12506 6.01628L7.93112 10.1209C8.48857 10.6494 9.22953 10.9443 9.99998 10.9443C10.7704 10.9443 11.5114 10.6494 12.0688 10.1209L17.8749 6.01628L18.327 5.69668L18.1201 5.18314C17.8979 4.63144 17.5146 4.15928 17.0206 3.82674C16.5267 3.49425 15.9444 3.31632 15.3486 3.31515H15.3472L4.65276 3.31515ZM2.74406 6.83829L1.66109 6.13048V7.42424V13.7121C1.66109 14.5024 1.97771 15.2592 2.53939 15.8162C3.10087 16.373 3.86118 16.6848 4.65276 16.6848H15.3472C16.1388 16.6848 16.8991 16.373 17.4606 15.8162C18.0223 15.2592 18.3389 14.5024 18.3389 13.7121V7.42424V6.13048L17.2559 6.83829L12.3181 10.0656L12.259 10.1042L12.2088 10.1539C11.6235 10.7329 10.8292 11.0591 9.99998 11.0591C9.17074 11.0591 8.3765 10.7329 7.79115 10.1539L7.74095 10.1042L7.68184 10.0656L2.74406 6.83829Z"
		stroke="#AAACB9"
		stroke-width="1.4"
	/>
</svg>