<svg xmlns="http://www.w3.org/2000/svg" width="20" height="20" viewBox="0 0 20 20" fill="none">
  <g clip-path="url(#clip0_4312_12836)">
    <path d="M19.0378 7.62323C18.8815 7.10941 18.5693 6.66117 18.1473 6.34481C17.7253 6.02845 17.2159 5.86077 16.6945 5.86655H13.3565L12.3426 2.60257C12.1832 2.08879 11.8699 1.64059 11.4479 1.3226C11.026 1.0046 10.5171 0.833252 9.99477 0.833252C9.47243 0.833252 8.96358 1.0046 8.54161 1.3226C8.11964 1.64059 7.80635 2.08879 7.64691 2.60257L6.63305 5.86655H3.29501C2.77528 5.86732 2.26907 6.03771 1.84869 6.35339C1.42832 6.66907 1.11527 7.1139 0.954278 7.62433C0.793283 8.13476 0.79257 8.68468 0.952242 9.19555C1.11191 9.70643 1.4238 10.1521 1.84336 10.469L4.56024 12.5208L3.52728 15.825C3.36035 16.3375 3.35823 16.892 3.52125 17.4058C3.68426 17.9196 4.00368 18.3652 4.43188 18.6763C4.85275 18.9973 5.36277 19.1693 5.88595 19.1666C6.40912 19.1639 6.91745 18.9866 7.33519 18.6613L9.99477 16.6394L12.6551 18.6589C13.0752 18.9781 13.5825 19.1514 14.104 19.1541C14.6255 19.1567 15.1344 18.9884 15.5575 18.6735C15.9806 18.3586 16.2961 17.9132 16.4587 17.4014C16.6212 16.8895 16.6225 16.3376 16.4623 15.825L15.4293 12.5208L18.1492 10.469C18.5736 10.1561 18.8891 9.71041 19.0492 9.19789C19.2092 8.68536 19.2052 8.13323 19.0378 7.62323ZM17.2477 9.19446L14.0816 11.5848C13.9515 11.6828 13.8547 11.8207 13.8051 11.9789C13.7554 12.137 13.7554 12.3074 13.805 12.4655L15.0083 16.3088C15.0692 16.5037 15.0687 16.7136 15.0068 16.9082C14.945 17.1028 14.825 17.2721 14.6641 17.3918C14.5032 17.5115 14.3097 17.5754 14.1114 17.5744C13.9131 17.5734 13.7202 17.5074 13.5605 17.386L10.4471 15.0185C10.3159 14.919 10.1575 14.8653 9.99477 14.8653C9.83206 14.8653 9.6736 14.919 9.54246 15.0185L6.42905 17.386C6.26943 17.509 6.07602 17.5764 5.87686 17.5782C5.6777 17.5801 5.48314 17.5164 5.32139 17.3964C5.15963 17.2763 5.03909 17.1062 4.97724 16.9107C4.91539 16.7151 4.91545 16.5043 4.9774 16.3088L6.18456 12.4655C6.23416 12.3074 6.23412 12.137 6.18446 11.9789C6.13479 11.8207 6.03803 11.6828 5.90799 11.5848L2.74186 9.19446C2.58241 9.07387 2.46393 8.90432 2.40335 8.71002C2.34277 8.51573 2.34318 8.30663 2.40453 8.11259C2.46587 7.91855 2.58502 7.7495 2.74494 7.62959C2.90487 7.50967 3.09739 7.44502 3.29501 7.44488H7.19155C7.35331 7.44488 7.51089 7.39184 7.6416 7.29342C7.77231 7.195 7.86941 7.05626 7.91891 6.8972L9.10315 3.08475C9.16394 2.88965 9.28309 2.71952 9.44345 2.59882C9.60381 2.47812 9.79711 2.41309 9.99553 2.41309C10.194 2.41309 10.3873 2.47812 10.5476 2.59882C10.708 2.71952 10.8271 2.88965 10.8879 3.08475L12.0722 6.8972C12.1217 7.05626 12.2188 7.195 12.3495 7.29342C12.4802 7.39184 12.6378 7.44488 12.7995 7.44488H16.6961C16.8937 7.44502 17.0862 7.50967 17.2461 7.62959C17.406 7.7495 17.5252 7.91855 17.5865 8.11259C17.6479 8.30663 17.6483 8.51573 17.5877 8.71002C17.5271 8.90432 17.4087 9.07387 17.2492 9.19446H17.2477Z" fill="#AAACB9"/>
  </g>
  <defs>
    <clipPath id="clip0_4312_12836">
      <rect width="20" height="20" fill="white"/>
    </clipPath>
  </defs>
</svg>