<svg
  width="40"
  height="40"
  viewBox="0 0 46 46"
  fill="none"
  xmlns="http://www.w3.org/2000/svg"
>
  <rect x="3" y="3" width="40" height="40" rx="20" fill="#FEE4E2" />
  <g clip-path="url(#clip0_143_36638)">
    <path
      d="M25.1953 19.862L23 22.0573L20.8047 19.862L19.862 20.8047L22.0573 23L19.862 25.1953L20.8047 26.138L23 23.9427L25.1953 26.138L26.138 25.1953L23.9427 23L26.138 20.8047L25.1953 19.862Z"
      fill="#D00000"
    />
    <path
      d="M23 15C21.4178 15 19.871 15.4692 18.5554 16.3482C17.2398 17.2273 16.2145 18.4767 15.609 19.9385C15.0035 21.4003 14.845 23.0089 15.1537 24.5607C15.4624 26.1126 16.2243 27.538 17.3431 28.6569C18.462 29.7757 19.8874 30.5376 21.4393 30.8463C22.9911 31.155 24.5997 30.9965 26.0615 30.391C27.5233 29.7855 28.7727 28.7602 29.6518 27.4446C30.5308 26.129 31 24.5823 31 23C30.9977 20.879 30.1541 18.8455 28.6543 17.3457C27.1545 15.8459 25.121 15.0023 23 15V15ZM23 29.6667C21.6815 29.6667 20.3925 29.2757 19.2962 28.5431C18.1999 27.8106 17.3454 26.7694 16.8408 25.5512C16.3362 24.333 16.2042 22.9926 16.4614 21.6994C16.7187 20.4062 17.3536 19.2183 18.286 18.286C19.2183 17.3536 20.4062 16.7187 21.6994 16.4614C22.9926 16.2042 24.3331 16.3362 25.5512 16.8408C26.7694 17.3454 27.8106 18.1999 28.5431 19.2962C29.2757 20.3925 29.6667 21.6815 29.6667 23C29.6647 24.7675 28.9617 26.4621 27.7119 27.7119C26.4621 28.9617 24.7675 29.6647 23 29.6667Z"
      fill="#D00000"
    />
  </g>
  <rect
    x="3"
    y="3"
    width="40"
    height="40"
    rx="20"
    stroke="#FEF3F2"
    stroke-width="6"
  />
  <defs>
    <clipPath id="clip0_143_36638">
      <rect
        width="16"
        height="16"
        fill="white"
        transform="translate(15 15)"
      />
    </clipPath>
  </defs>
</svg>