<svg xmlns="http://www.w3.org/2000/svg" width="24" height="24" viewBox="0 0 24 24" fill="none">   <path d="M19.3326 1H4.66651C2.64443 1 1 2.66785 1 4.71873V15.8749C1 17.9258 2.64443 19.5936 4.66651 19.5936H7.34582L10.7823 22.5277C11.1324 22.8438 11.5715 23.0009 12.0078 23C12.4368 23 12.8612 22.8494 13.1921 22.55L16.7183 19.5936H19.3335C21.3556 19.5936 23 17.9258 23 15.8749V4.71873C23 2.66785 21.3547 1 19.3326 1ZM21.1658 15.8749C21.1658 16.9004 20.3436 17.7343 19.3326 17.7343H16.3884C16.1757 17.7343 15.9685 17.8096 15.8045 17.9472L11.9812 21.122L8.2707 17.9528C8.10479 17.8114 7.8958 17.7343 7.67947 17.7343H4.6656C3.65456 17.7343 2.83234 16.9004 2.83234 15.8749V4.71873C2.83234 3.69329 3.65456 2.85936 4.6656 2.85936H19.3317C20.3427 2.85936 21.1649 3.69329 21.1649 4.71873L21.1658 15.8749ZM13.3745 16.3398C13.3745 17.1095 12.7585 17.7343 11.9995 17.7343C11.2406 17.7343 10.6246 17.1095 10.6246 16.3398C10.6246 15.57 11.2406 14.9452 11.9995 14.9452C12.7585 14.9452 13.3745 15.57 13.3745 16.3398ZM15.5414 7.46222C15.9905 9.22676 15.1482 11.0573 13.5376 11.8131C13.3186 11.9163 12.9153 12.4081 12.9153 12.8999V13.0859C12.9153 13.6 12.5055 14.0155 11.9986 14.0155C11.4917 14.0155 11.082 13.6 11.082 13.0859V12.8999C11.082 11.6133 11.95 10.5106 12.7668 10.1267C13.4377 9.81153 14.0363 8.98876 13.7668 7.92799C13.611 7.31812 13.1032 6.80308 12.5028 6.64596C11.9134 6.48884 11.3377 6.60598 10.8785 6.9667C10.4257 7.32277 10.1663 7.85919 10.1663 8.43839C10.1663 8.9525 9.75655 9.36807 9.24966 9.36807C8.74276 9.36807 8.33303 8.9525 8.33303 8.43839C8.33303 7.27907 8.85092 6.20715 9.75655 5.49687C10.6603 4.78474 11.83 4.54674 12.962 4.84609C14.2068 5.17148 15.2206 6.19785 15.5414 7.46222Z" fill="#FFF"/> </svg>