<svg xmlns="http://www.w3.org/2000/svg" width="20" height="20" viewBox="0 0 20 20" fill="none">
  <path d="M14.55 10.9601V11.4516L15.0123 11.6185C16.0476 11.9924 16.8 13.0055 16.8 14.2013V14.435L16.6488 13.6816C16.4117 12.4998 15.3798 11.5916 14.125 11.5916H5.875C4.61973 11.5916 3.58736 12.4996 3.35107 13.6822L3.2 14.4383V14.2013C3.2 13.0055 3.95242 11.9924 4.98774 11.6185L5.45 11.4516V10.9601V4.6527C5.45 2.97973 6.73895 1.62765 8.33145 1.53799L7.51209 1.83409C6.36535 2.2485 5.55 3.35794 5.55 4.6527V10.7638V11.4638H6.25H7.75H8.45V10.7638V2.49242V1.53367C8.46664 1.53339 8.4833 1.53325 8.5 1.53325H11.5C11.5167 1.53325 11.5334 1.53339 11.55 1.53367V2.49242V10.7638V11.4638H12.25H13.75H14.45V10.7638V4.6527C14.45 3.35794 13.6346 2.2485 12.4879 1.83409L11.6686 1.53799C13.261 1.62765 14.55 2.97973 14.55 4.6527V10.9601ZM15.9625 14.5194H16.8V18.4027C16.8 18.4502 16.7658 18.4666 16.75 18.4666C16.7342 18.4666 16.7 18.4502 16.7 18.4027V15.3471V14.6471H16H4H3.3V15.3471V18.4027C3.3 18.4502 3.2658 18.4666 3.25 18.4666C3.2342 18.4666 3.2 18.4502 3.2 18.4027V14.5194H4.0375H15.9625ZM8.55 10.7638V11.4638H9.25H10.75H11.45V10.7638V2.36103V1.66103H10.75H9.25H8.55V2.36103V10.7638Z" stroke="#AAACB9" stroke-width="1.4"/>
</svg>