<svg xmlns="http://www.w3.org/2000/svg" width="16" height="16" viewBox="0 0 16 16" fill="none">
  <g clip-path="url(#clip0_1767_32853)">
    <path d="M15.8906 5.73267C15.6653 5.04933 14.9946 4.25133 13.8459 4.25133H10.9339L10.0493 1.49267C9.69527 0.390667 8.72461 0 8.00061 0C7.27661 0 6.30594 0.391333 5.95261 1.49333L5.06794 4.25133H2.15394C0.998608 4.25133 0.330608 5.05067 0.111275 5.73067C-0.115392 6.416 -0.0487254 7.458 0.884608 8.13867L3.25861 9.874L2.35727 12.6633C2.00061 13.7647 2.55861 14.6487 3.14394 15.0687C3.46861 15.3033 3.92394 15.4853 4.42327 15.4853C4.82794 15.4853 5.26194 15.366 5.67794 15.058L7.99994 13.3513L10.3206 15.0573C11.0806 15.6153 12.1299 15.5973 12.8486 15.0733C13.4386 14.652 13.9999 13.768 13.6419 12.6633L12.7406 9.874L15.1139 8.13933C16.0439 7.46133 16.1133 6.42067 15.8899 5.73267H15.8906ZM14.3286 7.06267L11.5653 9.082C11.3326 9.25133 11.2359 9.55133 11.3246 9.82533L12.3739 13.074C12.5493 13.6153 12.1546 13.9307 12.0686 13.992C11.7979 14.1893 11.4153 14.2067 11.1099 13.9833L8.39394 11.9867C8.27661 11.9007 8.13794 11.8573 7.99927 11.8573V1.33333C8.17927 1.33333 8.61394 1.38867 8.77861 1.90067L9.81194 5.122C9.90061 5.398 10.1573 5.58467 10.4466 5.58467H13.8453C14.3799 5.58467 14.5673 5.98 14.6226 6.14733C14.6779 6.31733 14.7599 6.74733 14.3286 7.06267Z" fill="#F2C94C"/>
  </g>
  <defs>
    <clipPath id="clip0_1767_32853">
      <rect width="16" height="16" fill="white"/>
    </clipPath>
  </defs>
</svg>