<svg xmlns="http://www.w3.org/2000/svg" width="16" height="16" viewBox="0 0 16 16" fill="none">
  <g clip-path="url(#clip0_1763_31595)">
    <mask id="path-1-inside-1_1763_31595" fill="white">
      <path d="M7.99935 0.666748C6.54896 0.666748 5.13113 1.09684 3.92517 1.90264C2.71921 2.70843 1.77928 3.85374 1.22424 5.19374C0.669193 6.53373 0.523969 8.00822 0.806927 9.43074C1.08989 10.8533 1.78832 12.1599 2.8139 13.1855C3.83949 14.2111 5.14616 14.9095 6.56869 15.1925C7.99122 15.4755 9.4657 15.3302 10.8057 14.7752C12.1457 14.2202 13.291 13.2802 14.0968 12.0743C14.9026 10.8683 15.3327 9.45048 15.3327 8.00008C15.3306 6.05581 14.5573 4.19177 13.1825 2.81695C11.8077 1.44214 9.94363 0.668851 7.99935 0.666748ZM7.99935 14.1112C6.79069 14.1112 5.60917 13.7528 4.6042 13.0813C3.59923 12.4098 2.81596 11.4554 2.35342 10.3387C1.89089 9.22204 1.76987 7.9933 2.00566 6.80786C2.24146 5.62242 2.82349 4.53353 3.67814 3.67887C4.5328 2.82422 5.62169 2.24219 6.80713 2.00639C7.99257 1.77059 9.22131 1.89162 10.338 2.35415C11.4546 2.81669 12.4091 3.59996 13.0806 4.60493C13.7521 5.6099 14.1105 6.79142 14.1105 8.00008C14.1087 9.6203 13.4643 11.1737 12.3186 12.3193C11.1729 13.465 9.61957 14.1094 7.99935 14.1112Z"/>
    </mask>
    <path d="M7.99935 0.666748L8.00087 -0.733252H7.99935V0.666748ZM15.3327 8.00008H16.7327L16.7327 7.99857L15.3327 8.00008ZM7.99935 14.1112V15.5112L8.00089 15.5112L7.99935 14.1112ZM14.1105 8.00008L15.5105 8.00162V8.00008H14.1105ZM7.99935 -0.733252C6.27206 -0.733252 4.58356 -0.221051 3.14737 0.73858L4.70297 3.06669C5.6787 2.41473 6.82585 2.06675 7.99935 2.06675V-0.733252ZM3.14737 0.73858C1.71118 1.69821 0.59181 3.06217 -0.0691957 4.65798L2.51767 5.72949C2.96675 4.64532 3.72724 3.71866 4.70297 3.06669L3.14737 0.73858ZM-0.0691957 4.65798C-0.730201 6.25379 -0.90315 8.00977 -0.566172 9.70387L2.18003 9.15762C1.95109 8.00666 2.06859 6.81367 2.51767 5.72949L-0.0691957 4.65798ZM-0.566172 9.70387C-0.229195 11.398 0.602574 12.9541 1.82395 14.1755L3.80385 12.1956C2.97406 11.3658 2.40897 10.3086 2.18003 9.15762L-0.566172 9.70387ZM1.82395 14.1755C3.04533 15.3969 4.60146 16.2286 6.29556 16.5656L6.84182 13.8194C5.69086 13.5905 4.63364 13.0254 3.80385 12.1956L1.82395 14.1755ZM6.29556 16.5656C7.98966 16.9026 9.74565 16.7296 11.3415 16.0686L10.2699 13.4818C9.18577 13.9308 7.99277 14.0483 6.84182 13.8194L6.29556 16.5656ZM11.3415 16.0686C12.9373 15.4076 14.3012 14.2882 15.2609 12.8521L12.9327 11.2965C12.2808 12.2722 11.3541 13.0327 10.2699 13.4818L11.3415 16.0686ZM15.2609 12.8521C16.2205 11.4159 16.7327 9.72737 16.7327 8.00008H13.9327C13.9327 9.17358 13.5847 10.3207 12.9327 11.2965L15.2609 12.8521ZM16.7327 7.99857C16.7302 5.68351 15.8094 3.464 14.1724 1.827L12.1925 3.8069C13.3052 4.91953 13.931 6.4281 13.9327 8.0016L16.7327 7.99857ZM14.1724 1.827C12.5354 0.190013 10.3159 -0.730747 8.00087 -0.733251L7.99784 2.06675C9.57133 2.06845 11.0799 2.69427 12.1925 3.8069L14.1724 1.827ZM7.99935 12.7112C7.06758 12.7112 6.15674 12.4349 5.382 11.9172L3.8264 14.2453C5.0616 15.0707 6.51379 15.5112 7.99935 15.5112V12.7112ZM5.382 11.9172C4.60726 11.3996 4.00343 10.6638 3.64685 9.80295L1.05999 10.8745C1.62849 12.2469 2.59121 13.42 3.8264 14.2453L5.382 11.9172ZM3.64685 9.80295C3.29028 8.9421 3.19698 7.99485 3.37876 7.08099L0.632565 6.53474C0.342747 7.99175 0.491492 9.50198 1.05999 10.8745L3.64685 9.80295ZM3.37876 7.08099C3.56054 6.16712 4.00923 5.32768 4.66809 4.66882L2.68819 2.68892C1.63775 3.73937 0.922383 5.07772 0.632565 6.53474L3.37876 7.08099ZM4.66809 4.66882C5.32695 4.00996 6.16639 3.56127 7.08026 3.37949L6.53401 0.633294C5.07699 0.923112 3.73864 1.63848 2.68819 2.68892L4.66809 4.66882ZM7.08026 3.37949C7.99413 3.19771 8.94137 3.29101 9.80222 3.64758L10.8737 1.06072C9.50125 0.492221 7.99102 0.343476 6.53401 0.633294L7.08026 3.37949ZM9.80222 3.64758C10.6631 4.00415 11.3988 4.60799 11.9165 5.38273L14.2446 3.82713C13.4193 2.59194 12.2462 1.62922 10.8737 1.06072L9.80222 3.64758ZM11.9165 5.38273C12.4342 6.15747 12.7105 7.06831 12.7105 8.00008H15.5105C15.5105 6.51452 15.0699 5.06233 14.2446 3.82713L11.9165 5.38273ZM12.7105 7.99854C12.7091 9.24799 12.2121 10.4459 11.3286 11.3294L13.3085 13.3093C14.7164 11.9014 15.5083 9.99261 15.5105 8.00162L12.7105 7.99854ZM11.3286 11.3294C10.4451 12.2129 9.24726 12.7098 7.99781 12.7112L8.00089 15.5112C9.99188 15.509 11.9007 14.7171 13.3085 13.3093L11.3286 11.3294Z" fill="#AAACB9" mask="url(#path-1-inside-1_1763_31595)"/>
    <path d="M8.00033 6.66663H7.33366C7.15685 6.66663 6.98728 6.72906 6.86225 6.84019C6.73723 6.95133 6.66699 7.10205 6.66699 7.25922C6.66699 7.41638 6.73723 7.56711 6.86225 7.67824C6.98728 7.78938 7.15685 7.85181 7.33366 7.85181H8.00033V11.4074C8.00033 11.5645 8.07056 11.7153 8.19559 11.8264C8.32061 11.9375 8.49018 12 8.66699 12C8.8438 12 9.01337 11.9375 9.1384 11.8264C9.26342 11.7153 9.33366 11.5645 9.33366 11.4074V7.85181C9.33366 7.53748 9.19318 7.23602 8.94313 7.01376C8.69309 6.79149 8.35395 6.66663 8.00033 6.66663Z" fill="#AAACB9"/>
    <path d="M8 5.66663C8.55228 5.66663 9 5.21891 9 4.66663C9 4.11434 8.55228 3.66663 8 3.66663C7.44772 3.66663 7 4.11434 7 4.66663C7 5.21891 7.44772 5.66663 8 5.66663Z" fill="#AAACB9"/>
  </g>
  <defs>
    <clipPath id="clip0_1763_31595">
      <rect width="16" height="16" fill="white"/>
    </clipPath>
  </defs>
</svg>