<svg width="56" height="56" viewBox="0 0 56 56" fill="none" xmlns="http://www.w3.org/2000/svg">
<g clip-path="url(#clip0_2409_3458)">
<path d="M21 12.8333C21 10.8967 22.5633 9.33333 24.5 9.33333C26.4366 9.33333 28 10.8967 28 12.8333C28 14.77 26.4366 16.3333 24.5 16.3333C22.5633 16.3333 21 14.77 21 12.8333ZM56 11.6667V25.6667C56 32.1067 50.7733 37.3333 44.3333 37.3333H23.3333C16.8933 37.3333 11.6666 32.1067 11.6666 25.6667V11.6667C11.6666 5.22667 16.8933 0 23.3333 0H44.3333C50.7733 0 56 5.22667 56 11.6667ZM16.3333 25.6667C16.3333 27.4633 17.01 29.0967 18.13 30.3567L30.3566 18.13C32.6433 15.8433 36.6333 15.8433 38.92 18.13L41.3466 20.5567C41.8833 21.0933 42.7933 21.0933 43.33 20.5567L51.3333 12.5533V11.6667C51.3333 7.81667 48.1833 4.66667 44.3333 4.66667H23.3333C19.4833 4.66667 16.3333 7.81667 16.3333 11.6667V25.6667ZM51.3333 25.6667V19.1567L46.62 23.87C44.3333 26.1567 40.3433 26.1567 38.0566 23.87L35.63 21.4433C35.0933 20.9067 34.2066 20.9067 33.6466 21.4433L22.47 32.62C22.75 32.6667 23.03 32.6667 23.3333 32.6667H44.3333C48.1833 32.6667 51.3333 29.5167 51.3333 25.6667ZM42.21 42.0933C40.9733 41.7433 39.69 42.49 39.34 43.7267L38.6633 46.2C38.1733 47.9967 37.0066 49.5133 35.3733 50.4233C33.74 51.3567 31.85 51.59 30.0533 51.1L9.79996 45.5467C6.06663 44.52 3.8733 40.67 4.89996 36.9367L7.13997 28.63C7.46663 27.3933 6.7433 26.11 5.50663 25.76C4.26996 25.4333 2.98663 26.1567 2.63663 27.3933L0.419965 35.6767C-1.28337 41.8833 2.37996 48.3233 8.58663 50.0267L28.84 55.58C29.8666 55.86 30.9166 56 31.9433 56C33.95 56 35.91 55.4867 37.7066 54.46C40.4133 52.92 42.35 50.4233 43.19 47.4133L43.8666 44.94C44.2166 43.7033 43.47 42.42 42.2333 42.07L42.21 42.0933Z" fill="#FF3D9A"/>
</g>
<defs>
<clipPath id="clip0_2409_3458">
<rect width="56" height="56" fill="white"/>
</clipPath>
</defs>
</svg>
