<svg
  width="40"
  height="40"
  viewBox="0 0 46 46"
  fill="none"
  xmlns="http://www.w3.org/2000/svg"
>
  <rect x="3" y="3" width="40" height="40" rx="20" fill="#C1D2FE" />
  <g clip-path="url(#clip0_143_36678)">
    <path
      d="M24 19.3333C24 19.5311 23.9414 19.7245 23.8315 19.8889C23.7216 20.0534 23.5654 20.1815 23.3827 20.2572C23.2 20.3329 22.9989 20.3527 22.8049 20.3141C22.6109 20.2755 22.4327 20.1803 22.2929 20.0404C22.153 19.9006 22.0578 19.7224 22.0192 19.5284C21.9806 19.3344 22.0004 19.1334 22.0761 18.9507C22.1518 18.7679 22.28 18.6117 22.4444 18.5019C22.6089 18.392 22.8022 18.3333 23 18.3333C23.2652 18.3333 23.5196 18.4387 23.7071 18.6262C23.8946 18.8138 24 19.0681 24 19.3333ZM31 23C31 21.4178 30.5308 19.871 29.6518 18.5554C28.7727 17.2398 27.5233 16.2145 26.0615 15.609C24.5997 15.0035 22.9911 14.845 21.4393 15.1537C19.8874 15.4624 18.462 16.2243 17.3431 17.3431C16.2243 18.462 15.4624 19.8874 15.1537 21.4393C14.845 22.9911 15.0035 24.5997 15.609 26.0615C16.2145 27.5233 17.2398 28.7727 18.5554 29.6518C19.871 30.5308 21.4178 31 23 31H31V23ZM29.6667 23V29.6667H23C21.6815 29.6667 20.3925 29.2757 19.2962 28.5431C18.1999 27.8106 17.3454 26.7694 16.8408 25.5512C16.3362 24.3331 16.2042 22.9926 16.4614 21.6994C16.7187 20.4062 17.3536 19.2183 18.286 18.286C19.2183 17.3536 20.4062 16.7187 21.6994 16.4614C22.9926 16.2042 24.3331 16.3362 25.5512 16.8408C26.7694 17.3454 27.8106 18.1999 28.5431 19.2962C29.2757 20.3925 29.6667 21.6815 29.6667 23ZM24.3333 23C24.3333 22.6464 24.1929 22.3072 23.9428 22.0572C23.6928 21.8071 23.3536 21.6667 23 21.6667H21.6667V23H23V27.6667H24.3333V23Z"
      fill="#031C52"
      fill-opacity="0.78"
    />
  </g>
  <rect
    x="3"
    y="3"
    width="40"
    height="40"
    rx="20"
    stroke="#E8EEFF"
    stroke-width="6"
  />
  <defs>
    <clipPath id="clip0_143_36678">
      <rect
        width="16"
        height="16"
        fill="white"
        transform="translate(15 15)"
      />
    </clipPath>
  </defs>
</svg>
