<svg xmlns="http://www.w3.org/2000/svg" width="20" height="20" viewBox="0 0 20 20" fill="none">
  <g clip-path="url(#clip0_1542_24444)">
    <path d="M15.3829 8.39242L15.179 8.0522L14.5855 7.06158L14.5852 7.06107C14.3387 6.64885 13.987 6.33303 13.5723 6.14194L13.5718 6.14171C12.7673 5.77027 11.4983 5.33337 9.99992 5.33337C8.50173 5.33337 7.23277 5.77092 6.42858 6.14183L6.42841 6.14191C6.01188 6.33388 5.66103 6.64907 5.41465 7.06107L5.41434 7.06158L4.8208 8.0522L4.61695 8.39242H4.22034H3.69783C2.5729 8.39242 1.66103 7.47735 1.66103 6.35299C1.66103 5.48663 2.01215 4.66596 2.63507 4.04299L15.3829 8.39242ZM15.3829 8.39242H15.7795H15.3829ZM10.0005 1.62035C12.7781 1.62035 15.6984 2.37427 17.3649 4.04312C17.986 4.66509 18.3396 5.48537 18.3388 6.35375C18.3388 6.35401 18.3388 6.35428 18.3388 6.35454L17.6388 6.35375L10.0005 1.62035ZM10.0005 1.62035C7.22294 1.62035 4.30262 2.37421 2.63533 4.04274L10.0005 1.62035ZM16.53 8.4957L15.4995 8.60603L15.9866 9.52075L17.5603 12.4758L17.5603 12.4758C18.1533 13.5891 18.4666 14.8454 18.4666 16.1069C18.4666 17.4087 17.4086 18.4667 16.111 18.4667H3.88881C2.59119 18.4667 1.53325 17.4087 1.53325 16.1069C1.53325 14.8454 1.84656 13.5891 2.43955 12.4758L2.43958 12.4758L4.01319 9.52075L4.50027 8.60608L3.46989 8.49571C2.38095 8.37906 1.53325 7.46463 1.53325 6.35375C1.53325 5.46258 1.8869 4.6102 2.54545 3.95074L2.5455 3.95069C4.10437 2.3893 6.98668 1.53347 9.99937 1.53337C13.012 1.53328 15.8948 2.38893 17.4544 3.95074C18.1129 4.61015 18.4666 5.46251 18.4666 6.35452C18.4666 7.46466 17.6196 8.37904 16.53 8.4957ZM18.3403 16.1069C18.3403 14.8667 18.0317 13.633 17.4485 12.5383L4.70555 8.49627L2.55326 12.5376C1.96877 13.6323 1.66103 14.8663 1.66103 16.1069C1.66103 17.3363 2.65872 18.3368 3.88881 18.3368H16.111H16.1126C17.3426 18.3368 18.3403 17.3363 18.3403 16.1069ZM6.88047 12.2821C6.88047 10.5588 8.28139 9.15737 9.99992 9.15737C11.7184 9.15737 13.1194 10.5588 13.1194 12.2821C13.1194 14.0054 11.7184 15.4069 9.99992 15.4069C8.28139 15.4069 6.88047 14.0054 6.88047 12.2821ZM7.00825 12.2821C7.00825 13.933 8.34893 15.277 9.99992 15.277C11.6509 15.277 12.9916 13.933 12.9916 12.2821C12.9916 10.6312 11.6509 9.28728 9.99992 9.28728C8.34893 9.28728 7.00825 10.6312 7.00825 12.2821Z" stroke="#AAACB9" stroke-width="1.4"/>
  </g>
  <defs>
    <clipPath id="clip0_1542_24444">
      <rect width="20" height="20" fill="white"/>
    </clipPath>
  </defs>
</svg>