<svg width="56" height="56" viewBox="0 0 56 56" fill="none" xmlns="http://www.w3.org/2000/svg">
<path d="M22.7656 33.1278C24.2093 34.5394 26.1043 35.2452 27.9993 35.2452C29.8944 35.2452 31.7894 34.5394 33.2331 33.1278L38.5845 27.892C41.4121 25.0645 42.9713 21.3045 42.9713 17.3049C42.9713 13.3054 41.4121 9.54748 38.5845 6.71785C35.7591 3.89036 31.999 2.33331 27.9993 2.33331C23.9997 2.33331 20.2417 3.89036 17.412 6.71785C11.5751 12.5546 11.5751 22.053 17.4291 27.9069L22.7656 33.1256V33.1278ZM20.4385 9.74425C22.4576 7.72523 25.144 6.61305 28.0015 6.61305C30.859 6.61305 33.5433 7.72523 35.5623 9.74425C37.5814 11.7633 38.6958 14.4496 38.6958 17.3071C38.6958 20.1645 37.5814 22.8487 35.5794 24.8527L30.2451 30.0714C29.0089 31.2777 26.9941 31.2777 25.7578 30.0714L20.4385 24.8698C18.4194 22.8508 17.3072 20.1645 17.3072 17.3071C17.3072 14.4496 18.4194 11.7654 20.4385 9.74425ZM21.5828 17.2857C21.5828 13.7417 24.4553 10.8693 27.9993 10.8693C31.5434 10.8693 34.4159 13.7417 34.4159 17.2857C34.4159 20.8297 31.5434 23.7021 27.9993 23.7021C24.4553 23.7021 21.5828 20.8297 21.5828 17.2857ZM53.548 43.7063L51.4091 30.8735C51.1097 29.0747 50.2648 27.4492 48.9622 26.1724C48.1153 25.3468 46.7635 25.3554 45.9379 26.2045C45.1102 27.0471 45.123 28.401 45.9679 29.2287C46.6181 29.8639 47.0394 30.6767 47.1891 31.575L48.019 36.5562H7.97755L8.80742 31.575C8.96783 30.6189 9.45122 29.7356 10.1741 29.0918C11.0554 28.3048 11.1302 26.953 10.3431 26.0719C9.55602 25.1907 8.20426 25.1158 7.32306 25.9029C5.87933 27.1947 4.90829 28.9592 4.5896 30.8735L2.45075 43.7041C2.03581 46.1894 2.73094 48.7175 4.36075 50.6402C5.98841 52.563 8.36896 53.6666 10.8885 53.6666H45.1102C47.6297 53.6666 50.0081 52.563 51.638 50.6424C53.2678 48.7196 53.9607 46.1915 53.548 43.7063ZM34.3047 40.8338L35.496 49.389H20.5005L21.6897 40.8338H34.3047ZM7.6225 47.8769C6.80973 46.9145 6.4611 45.6504 6.66857 44.4078L7.26531 40.8338H17.3735L16.1843 49.389H10.8885C9.62874 49.389 8.43526 48.8372 7.6225 47.8769ZM48.3719 47.8769C47.557 48.8372 46.3678 49.389 45.1102 49.389H39.8144L38.623 40.8338H48.7334L49.3301 44.4078C49.5376 45.6504 49.1868 46.9145 48.3719 47.8769Z" fill="#FF3D9A"/>
</svg>
