<svg xmlns="http://www.w3.org/2000/svg" width="16" height="20" viewBox="0 0 16 20" fill="none">
  <path d="M7.88667 18.2458L7.8867 18.2458L7.88049 18.2406C7.5249 17.9429 5.75845 16.422 4.08737 14.482C3.25171 13.5118 2.45413 12.453 1.86873 11.4034C1.27773 10.3438 0.937305 9.35392 0.937305 8.50638C0.937305 4.62382 4.08476 1.47637 7.96732 1.47637C11.8499 1.47637 14.9973 4.62382 14.9973 8.50638C14.9973 9.35394 14.6569 10.3438 14.0659 11.4035C13.4806 12.4532 12.6831 13.5121 11.8475 14.4825C10.1769 16.4228 8.41125 17.9445 8.05482 18.2457L8.05429 18.2461L7.97013 18.3174L7.88667 18.2458ZM7.96812 1.74782L7.96652 1.74782C4.23608 1.75204 1.21302 4.77511 1.2088 8.50555V8.50634C1.2088 9.31156 1.51525 10.1662 1.94179 10.9807C2.37436 11.8066 2.96463 12.6549 3.60728 13.4635C4.89295 15.081 6.43766 16.601 7.49983 17.554L7.96741 17.9736L8.4349 17.5539C9.49711 16.6005 11.0418 15.0798 12.3274 13.462C12.97 12.6533 13.5603 11.805 13.9928 10.9793C14.4193 10.1652 14.7258 9.31091 14.7258 8.50634L14.7258 8.50555C14.7216 4.77511 11.6986 1.75209 7.96812 1.74782Z" stroke="#AAACB9" stroke-width="1.4"/>
  <path d="M7.96743 11.5705C6.27517 11.5705 4.90332 10.1986 4.90332 8.50637C4.90332 6.81411 6.27517 5.44226 7.96743 5.44226C9.65969 5.44226 11.0315 6.81411 11.0315 8.50637C11.0315 10.1986 9.65973 11.5705 7.96743 11.5705ZM7.96743 6.97428C7.1213 6.97428 6.43538 7.66021 6.43538 8.50634C6.43538 9.35247 7.1213 10.0384 7.96743 10.0384C8.81356 10.0384 9.49949 9.35247 9.49949 8.50634C9.49949 7.66021 8.8136 6.97428 7.96743 6.97428Z" fill="#AAACB9"/>
</svg>