<svg
	class="mx-auto"
	xmlns="http://www.w3.org/2000/svg"
	width="104"
	height="104"
	viewBox="0 0 104 104"
	fill="none"
>
	<path
		d="M75.743 40.1069V37.7953V32.1389C75.743 25.687 73.226 19.5122 68.7659 14.9696C64.3081 10.4291 58.2759 7.89059 52.0002 7.89059C45.7246 7.89059 39.6924 10.4291 35.2346 14.9696C30.7745 19.5122 28.2575 25.687 28.2575 32.1389V37.7953V40.1069L26.1452 41.0459C23.3119 42.3053 20.8902 44.383 19.1836 47.0344C17.4769 49.6858 16.562 52.7926 16.5575 55.9747V79.8033C16.5631 84.147 18.2603 88.2983 21.2568 91.3503C24.2516 94.4005 28.298 96.1042 32.5046 96.1094H71.4959C75.7025 96.1042 79.7489 94.4005 82.7437 91.3503C85.7406 88.2979 87.4379 84.1457 87.443 79.8013L87.443 55.9768L87.443 55.9722M75.743 40.1069L79.3002 37.7953C82.7737 39.3393 85.7302 41.8808 87.8081 45.109C89.886 48.3372 90.9953 52.1121 91.0002 55.9722H87.443M75.743 40.1069L77.8553 41.0459C80.6886 42.3053 83.1103 44.383 84.8169 47.0344C86.5231 49.6851 87.438 52.791 87.443 55.9722M75.743 40.1069L87.443 55.9722M71.5002 39.6684H75.0575V36.1111V32.1389C75.0575 25.9488 72.6438 19.9994 68.3272 15.6027C64.0083 11.2039 58.1367 8.72048 52.0002 8.72048C45.8638 8.72048 39.9922 11.2039 35.6733 15.6027C31.3567 19.9994 28.943 25.9488 28.943 32.1389V36.1111V39.6684H32.5002H71.5002ZM21.6888 45.0536L24.2271 47.5458L21.6888 45.0536C18.8349 47.9604 17.243 51.8891 17.243 55.9722V79.8055C17.243 83.8886 18.8349 87.8173 21.6888 90.7241C24.5448 93.633 28.4325 95.2795 32.5002 95.2795H71.5002C75.568 95.2795 79.4557 93.633 82.3117 90.7241C85.1656 87.8173 86.7575 83.8886 86.7575 79.8055V55.9722C86.7575 51.8891 85.1656 47.9604 82.3117 45.0536C79.4557 42.1447 75.568 40.4983 71.5002 40.4983H32.5002C28.4325 40.4983 24.5448 42.1447 21.6888 45.0536Z"
		stroke="#FF3D9A"
		stroke-width="7.11455"
	/>
	<path
		d="M52.0002 60.6667C50.8509 60.6667 49.7487 61.1233 48.9361 61.9359C48.1234 62.7486 47.6669 63.8508 47.6669 65.0001V73.6667C47.6669 74.816 48.1234 75.9182 48.9361 76.7309C49.7487 77.5435 50.8509 78.0001 52.0002 78.0001C53.1495 78.0001 54.2517 77.5435 55.0643 76.7309C55.877 75.9182 56.3335 74.816 56.3335 73.6667V65.0001C56.3335 63.8508 55.877 62.7486 55.0643 61.9359C54.2517 61.1233 53.1495 60.6667 52.0002 60.6667Z"
		fill="#FF3D9A"
	/>
</svg>