<svg
	xmlns="http://www.w3.org/2000/svg"
	width="20"
	height="20"
	viewBox="0 0 20 20"
	fill="none"
>
	<g clip-path="url(#clip0_983_16058)">
	<path
			d="M18.2968 7.97122L15.4056 5.20051C15.265 5.0704 15.0768 4.9984 14.8813 5.00003C14.6859 5.00165 14.499 5.07678 14.3608 5.20921C14.2226 5.34164 14.1442 5.5208 14.1425 5.70808C14.1408 5.89536 14.2159 6.07579 14.3517 6.21051L17.2429 8.98122C17.3287 9.06517 17.4038 9.1587 17.4665 9.25979C17.4553 9.25979 17.4463 9.25408 17.4351 9.25408L5.74533 9.27694C5.54766 9.27694 5.35808 9.35219 5.2183 9.48615C5.07853 9.6201 5 9.80178 5 9.99122C5 10.1807 5.07853 10.3623 5.2183 10.4963C5.35808 10.6303 5.54766 10.7055 5.74533 10.7055L17.4307 10.6827C17.4515 10.6827 17.4687 10.6727 17.4888 10.6712C17.4227 10.792 17.3389 10.9032 17.2399 11.0012L14.3487 13.7719C14.2775 13.8378 14.2208 13.9166 14.1817 14.0038C14.1426 14.0909 14.1221 14.1847 14.1212 14.2795C14.1203 14.3743 14.1392 14.4684 14.1767 14.5562C14.2142 14.644 14.2695 14.7237 14.3395 14.7908C14.4095 14.8579 14.4927 14.9109 14.5843 14.9468C14.6759 14.9827 14.774 15.0008 14.873 15C14.972 14.9991 15.0698 14.9794 15.1607 14.942C15.2516 14.9046 15.3339 14.8502 15.4026 14.7819L18.2938 12.0112C18.8527 11.4754 19.1667 10.7488 19.1667 9.99122C19.1667 9.23361 18.8527 8.50702 18.2938 7.97122H18.2968Z"
			fill="#2A2F4F"
	/>
	<path
			d="M5.93742 17.6389H4.47908C3.89892 17.6389 3.34253 17.3974 2.93229 16.9677C2.52205 16.5379 2.29159 15.955 2.29159 15.3472V4.65276C2.29159 4.04497 2.52205 3.46208 2.93229 3.0323C3.34253 2.60253 3.89892 2.36109 4.47908 2.36109H5.93742C6.13081 2.36109 6.31627 2.28061 6.45302 2.13735C6.58976 1.9941 6.66658 1.7998 6.66658 1.5972C6.66658 1.39461 6.58976 1.20031 6.45302 1.05705C6.31627 0.913794 6.13081 0.833313 5.93742 0.833313H4.47908C3.51251 0.834526 2.58585 1.23732 1.90237 1.95334C1.2189 2.66936 0.83441 3.64015 0.833252 4.65276L0.833252 15.3472C0.83441 16.3598 1.2189 17.3306 1.90237 18.0466C2.58585 18.7626 3.51251 19.1654 4.47908 19.1666H5.93742C6.13081 19.1666 6.31627 19.0862 6.45302 18.9429C6.58976 18.7997 6.66658 18.6054 6.66658 18.4028C6.66658 18.2002 6.58976 18.0059 6.45302 17.8626C6.31627 17.7193 6.13081 17.6389 5.93742 17.6389Z"
			fill="#2A2F4F"
	/>
	</g>
	<defs>
	<clipPath id="clip0_983_16058">
			<rect width="20" height="20" fill="white" />
	</clipPath>
	</defs>
</svg>