<svg
	xmlns="http://www.w3.org/2000/svg"
	width="20"
	height="20"
	viewBox="0 0 20 20"
	fill="none"
>
	<path
		d="M12.1932 1.53339L12.2034 1.53379L12.2136 1.53388C13.7954 1.54903 15.1334 2.91281 15.1334 4.6534V15.3472C15.1334 17.0977 13.7809 18.4667 12.1875 18.4667H7.81252C6.21915 18.4667 4.86669 17.0977 4.86669 15.3472V4.65264C4.86669 2.91265 6.20476 1.54842 7.78614 1.53389L7.7965 1.53379L7.80685 1.53339C7.80197 1.53358 8.17716 1.53353 8.71683 1.53346C9.08973 1.5334 9.54117 1.53334 10 1.53334C10.4589 1.53334 10.9104 1.5334 11.2833 1.53346C11.8229 1.53353 12.1981 1.53358 12.1932 1.53339ZM8.01486 2.10469L7.77794 1.60791L7.23929 1.72094C5.89994 2.00197 4.92502 3.22685 4.92502 4.6534V15.3472C4.92502 16.9662 6.18954 18.3389 7.81252 18.3389H12.1875C13.8105 18.3389 15.075 16.9662 15.075 15.3472V4.6534C15.075 3.22725 14.1004 2.00101 12.7602 1.72083L12.2219 1.60828L11.9852 2.10469L11.4796 3.16484C11.4795 3.16493 11.4795 3.16502 11.4794 3.16512C11.4728 3.17892 11.4652 3.18532 11.4614 3.18781C11.4596 3.18894 11.4585 3.18938 11.4581 3.1895H8.54183C8.54182 3.1895 8.5418 3.1895 8.54179 3.18949C8.54147 3.18939 8.5402 3.18897 8.5382 3.18767C8.53432 3.18516 8.52725 3.17907 8.52117 3.16629L8.5209 3.16574L8.01486 2.10469ZM7.38304 2.40602L7.88908 3.46707L12.617 2.40602C13.6181 2.61532 14.375 3.54346 14.375 4.6534V15.3472C14.375 16.6107 13.3936 17.6389 12.1875 17.6389H7.81252C6.60648 17.6389 5.62502 16.6107 5.62502 15.3472V4.6534C5.62502 3.54346 6.3819 2.61609 7.38304 2.40602Z"
		stroke="#AAACB9"
		stroke-width="1.4"
	/>
</svg>