<svg xmlns="http://www.w3.org/2000/svg" width="20" height="20" viewBox="0 0 20 20" fill="none">
  <g clip-path="url(#clip0_1722_17182)">
    <path d="M7.62646 6.94211L8.4085 7.0344V6.24693V4.27075C8.4085 3.64271 8.81814 2.97571 9.72841 2.4295C10.63 1.88847 11.9322 1.53325 13.4377 1.53325C14.9431 1.53325 16.2453 1.88847 17.1469 2.4295C18.0572 2.97571 18.4668 3.64271 18.4668 4.27075V13.4374C18.4668 14.0655 18.0572 14.7325 17.1469 15.2787C16.2453 15.8197 14.9431 16.1749 13.4377 16.1749C12.9922 16.1749 12.5553 16.1436 12.1329 16.0821L11.6384 16.0102L11.4097 16.4545C11.1453 16.9682 10.5788 17.4743 9.71878 17.8563C8.86742 18.2345 7.77896 18.4666 6.56266 18.4666C5.05718 18.4666 3.75504 18.1114 2.85341 17.5703C1.94315 17.0241 1.5335 16.3571 1.5335 15.7291V9.61797C1.5335 8.98993 1.94315 8.32293 2.85341 7.77672C3.75504 7.23569 5.05718 6.88047 6.56266 6.88047C6.92898 6.88047 7.28506 6.90182 7.62646 6.94211ZM11.5918 12.2129V12.8218L12.1948 12.9062C12.5989 12.9627 13.0147 12.9916 13.4377 12.9916C14.7311 12.9916 15.8885 12.7215 16.7464 12.3042C17.1739 12.0962 17.5521 11.8393 17.8331 11.5375C18.1102 11.2399 18.3391 10.8455 18.3391 10.3819V9.68596V8.40481L17.2609 9.09688C16.3576 9.6767 15.0095 10.0638 13.4377 10.0638C13.0771 10.0638 12.7206 10.0425 12.3727 10.002L11.5918 9.9112V10.6973V12.2129ZM2.73941 11.3885L1.66127 10.6965V11.9776V12.6735C1.66127 13.1372 1.89014 13.5315 2.16723 13.8292C2.44822 14.131 2.82638 14.3879 3.25396 14.5959C4.11179 15.0132 5.26923 15.2833 6.56266 15.2833C7.8561 15.2833 9.01354 15.0132 9.87136 14.5959C10.2989 14.3879 10.6771 14.131 10.9581 13.8292C11.2352 13.5315 11.4641 13.1372 11.4641 12.6735V11.9776V10.6965L10.3859 11.3885C9.48265 11.9684 8.13451 12.3555 6.56266 12.3555C4.99081 12.3555 3.64268 11.9684 2.73941 11.3885ZM11.5574 9.2993L11.6605 9.77296L12.1401 9.84311C12.5611 9.90467 12.996 9.93603 13.4377 9.93603C14.7311 9.93603 15.8885 9.66598 16.7464 9.24865C17.1739 9.04063 17.5521 8.78377 17.8331 8.48195C18.1102 8.1843 18.3391 7.78995 18.3391 7.32631V6.6304V5.34926L17.2609 6.04133C16.3576 6.62114 15.0095 7.00825 13.4377 7.00825C12.5965 7.00825 11.8149 6.89765 11.1298 6.70269L10.5348 7.94799C11.1296 8.3675 11.4577 8.84088 11.5574 9.2993ZM2.73941 14.4441L1.66127 13.752V15.0332V15.7291C1.66127 16.1927 1.89014 16.5871 2.16723 16.8847C2.44822 17.1865 2.82638 17.4434 3.25396 17.6514C4.11179 18.0688 5.26923 18.3388 6.56266 18.3388C7.8561 18.3388 9.01354 18.0688 9.87136 17.6514C10.2989 17.4434 10.6771 17.1865 10.9581 16.8847C11.2352 16.5871 11.4641 16.1927 11.4641 15.7291V15.0332V13.752L10.3859 14.4441C9.48265 15.0239 8.13451 15.411 6.56266 15.411C4.99081 15.411 3.64267 15.0239 2.73941 14.4441ZM11.5918 15.2685V15.8773L12.1948 15.9617C12.5988 16.0182 13.0147 16.0471 13.4377 16.0471C14.7311 16.0471 15.8885 15.7771 16.7464 15.3598C17.1739 15.1517 17.5521 14.8949 17.8331 14.5931C18.1102 14.2954 18.3391 13.9011 18.3391 13.4374V12.7415V11.4604L17.2609 12.1524C16.3576 12.7323 15.0095 13.1194 13.4377 13.1194C13.0771 13.1194 12.7206 13.0981 12.3727 13.0576L11.5918 12.9668V13.7529V15.2685ZM18.3391 4.27075C18.3391 3.80711 18.1102 3.41276 17.8331 3.11511C17.5521 2.81329 17.1739 2.55643 16.7464 2.34841C15.8885 1.93108 14.7311 1.66103 13.4377 1.66103C12.1442 1.66103 10.9868 1.93108 10.129 2.34841C9.70138 2.55643 9.32322 2.81329 9.04223 3.11511C8.76514 3.41276 8.53627 3.80711 8.53627 4.27075C8.53627 4.73439 8.76514 5.12875 9.04223 5.42639C9.32322 5.72821 9.70138 5.98507 10.129 6.19309C10.9868 6.61042 12.1442 6.88047 13.4377 6.88047C14.7311 6.88047 15.8885 6.61042 16.7464 6.19309C17.1739 5.98507 17.5521 5.72821 17.8331 5.42639C18.1102 5.12875 18.3391 4.73439 18.3391 4.27075ZM11.4641 9.61797C11.4641 9.15434 11.2352 8.75998 10.9581 8.46233C10.6771 8.16051 10.2989 7.90365 9.87136 7.69563C9.01354 7.2783 7.8561 7.00825 6.56266 7.00825C5.26923 7.00825 4.11179 7.2783 3.25396 7.69563C2.82638 7.90365 2.44822 8.16051 2.16723 8.46233C1.89014 8.75998 1.66127 9.15434 1.66127 9.61797C1.66127 10.0816 1.89014 10.476 2.16723 10.7736C2.44822 11.0754 2.82638 11.3323 3.25396 11.5403C4.11179 11.9576 5.26923 12.2277 6.56266 12.2277C7.8561 12.2277 9.01354 11.9576 9.87136 11.5403C10.2989 11.3323 10.6771 11.0754 10.9581 10.7736C11.2352 10.476 11.4641 10.0816 11.4641 9.61797Z" stroke="#AAACB9" stroke-width="1.4"/>
  </g>
  <defs>
    <clipPath id="clip0_1722_17182">
      <rect width="20" height="20" fill="white"/>
    </clipPath>
  </defs>
</svg>