<svg
	class="mx-auto"
	xmlns="http://www.w3.org/2000/svg"
	width="104"
	height="104"
	viewBox="0 0 104 104"
	fill="none"
>
	<path
	d="M93.5455 36.4803L66.0418 10.109C62.3145 6.41914 57.2857 4.34451 52.042 4.33336C46.7984 4.3222 41.7608 6.37542 38.0178 10.0494L10.4506 36.4803C8.52254 38.3382 6.98746 40.5648 5.9366 43.0279C4.88573 45.491 4.34052 48.1404 4.33337 50.8185L4.33337 79.7967C4.33968 85.0646 6.43421 90.115 10.1575 93.8399C13.8808 97.5649 18.9289 99.6603 24.1945 99.6666H79.8056C85.0712 99.6603 90.1192 97.5649 93.8426 93.8399C97.5659 90.115 99.6604 85.0646 99.6667 79.7967V50.8185C99.6597 48.14 99.1142 45.4903 98.0626 43.027C97.011 40.5638 95.4748 38.3374 93.5455 36.4803ZM43.575 15.7282C45.8274 13.4948 48.8737 12.2471 52.045 12.259C55.2162 12.2709 58.2531 13.5415 60.4887 15.7918L87.2893 41.4796L60.4251 60.4117C58.1543 62.5773 55.1373 63.7854 52 63.7854C48.8627 63.7854 45.8458 62.5773 43.575 60.4117L16.7068 41.4796L43.575 15.7282ZM91.7223 79.7967C91.7223 82.9586 90.4668 85.991 88.2319 88.2268C85.9971 90.4626 82.9661 91.7187 79.8056 91.7187H24.1945C21.034 91.7187 18.0029 90.4626 15.7681 88.2268C13.5333 85.991 12.2778 82.9586 12.2778 79.7967V50.8185C12.2818 50.047 12.3603 49.2778 12.5122 48.5215L37.9582 66.0309C41.695 69.7327 46.7412 71.8093 52 71.8093C57.2588 71.8093 62.3051 69.7327 66.0418 66.0309L91.4879 48.5215C91.6398 49.2778 91.7183 50.047 91.7223 50.8185V79.7967Z"
	fill="#FF3D9A"
	/>
</svg>