<svg xmlns="http://www.w3.org/2000/svg" width="104" height="104" viewBox="0 0 104 104" fill="none">
  <path d="M44.0324 63.9167V71.8611C44.0324 74.0578 42.2539 75.8333 40.0625 75.8333C37.8711 75.8333 36.0926 74.0578 36.0926 71.8611V63.9167C36.0926 61.72 37.8711 59.9445 40.0625 59.9445C42.2539 59.9445 44.0324 61.72 44.0324 63.9167ZM96.1295 28.1428C93.9897 28.3812 91.9889 26.8082 91.7507 24.6274C90.9924 17.6999 84.8549 12.2778 77.7766 12.2778C70.1147 12.2778 63.8819 18.5142 63.8819 26.1806V37.7715C70.8849 40.842 75.7917 47.8451 75.7917 55.9722V79.8056C75.7917 90.757 66.8872 99.6667 55.9421 99.6667H24.1829C13.2379 99.6667 4.33337 90.757 4.33337 79.8056V55.9722C4.33337 45.0208 13.2379 36.1111 24.1829 36.1111H55.9421V26.1806C55.9421 14.1368 65.7359 4.33334 77.7766 4.33334C89.0273 4.33334 98.4281 12.6869 99.6428 23.7615C99.881 25.9422 98.309 27.9005 96.1295 28.1428ZM55.9421 44.0556H24.1829C17.6167 44.0556 12.2732 49.4022 12.2732 55.9722V79.8056C12.2732 86.3756 17.6167 91.7222 24.1829 91.7222H55.9421C62.5084 91.7222 67.8518 86.3756 67.8518 79.8056V55.9722C67.8518 49.4022 62.5084 44.0556 55.9421 44.0556Z" fill="#FF3D9A"/>
</svg>