<svg
	xmlns="http://www.w3.org/2000/svg"
	width="20"
	height="20"
	viewBox="0 0 20 20"
	fill="none"
>
	<g clip-path="url(#clip0_1657_19010)">
	<path
			d="M18.1044 8.31818L18.2801 9.19325C18.3182 9.38289 18.3379 9.57575 18.3389 9.76917L18.3389 9.77279L18.3389 15.3455C18.3389 16.1391 18.0238 16.9003 17.4627 17.4616C16.9017 18.0228 16.1407 18.3382 15.3472 18.3382H4.65276C3.85922 18.3382 3.09824 18.0228 2.53722 17.4616C1.97621 16.9003 1.66109 16.1391 1.66109 15.3455V9.77279V9.76916H1.6611C1.6621 9.57575 1.68178 9.38289 1.71986 9.19326L1.89569 8.31766C1.85588 8.39322 1.8191 8.47049 1.78548 8.54931C1.62031 8.93644 1.53456 9.35284 1.53331 9.77377V15.3451C1.5344 16.1727 1.86353 16.9661 2.44843 17.5513C3.0332 18.1363 3.82591 18.4655 4.65276 18.4667M18.1044 8.31818L4.6536 18.4667M18.1044 8.31818C18.1441 8.39356 18.1808 8.47066 18.2144 8.54929L18.8582 8.27445L18.1044 8.31818ZM4.65276 18.4667C4.65304 18.4667 4.65332 18.4667 4.6536 18.4667M4.65276 18.4667L4.6536 18.4667M4.65276 18.4667L15.3464 18.4667M4.6536 18.4667H15.3464M15.3464 18.4667L15.3472 18.4667L15.3464 18.4667ZM12.2079 2.44152L12.2078 2.44159L12.2159 2.44932L17.504 7.51979C17.5042 7.51989 17.5043 7.51999 17.5044 7.52009C17.7085 7.71663 17.8846 7.93949 18.0284 8.18231L17.197 8.7544L12.3035 12.1216L12.2521 12.157L12.2077 12.201C11.6201 12.783 10.8267 13.1095 9.99998 13.1095C9.17323 13.1095 8.37984 12.783 7.79228 12.201L7.7479 12.157L7.69644 12.1216L2.80296 8.7544L1.97139 8.1822C2.11498 7.93949 2.29091 7.7167 2.49478 7.52014C2.49499 7.51994 2.4952 7.51974 2.49541 7.51953L7.79554 2.43787L7.79558 2.4379L7.80144 2.43215C8.39003 1.85441 9.18212 1.5316 10.0066 1.53335C10.831 1.5351 11.6217 1.86129 12.2079 2.44152ZM17.1896 8.54905L17.8842 8.05952L17.2707 7.47151L12.1225 2.53707C11.5625 1.97677 10.8036 1.66049 10.0113 1.65751C9.21793 1.65453 8.45582 1.96584 7.8914 2.52315L2.72847 7.4715L2.11491 8.05955L2.80963 8.54908L7.93696 12.1619C8.49897 12.6788 9.23512 12.9664 9.99998 12.9664C10.7648 12.9664 11.501 12.6788 12.063 12.1619L17.1896 8.54905Z"
			stroke="#AAACB9"
			stroke-width="1.4"
	/>
	</g>
	<defs>
	<clipPath id="clip0_1657_19010">
			<rect width="20" height="20" fill="white" />
	</clipPath>
	</defs>
</svg>