<svg
    xmlns="http://www.w3.org/2000/svg"
    width="24"
    height="24"
    viewBox="0 0 24 24"
    fill="none"
>
    <path
    d="M12 1C5.93442 1 1 5.93442 1 12C1 18.0656 5.93442 23 12 23C18.0656 23 23 18.0656 23 12C23 5.93442 18.0656 1 12 1ZM17.6833 10.636L13.6262 14.6189C12.9084 15.3229 11.9844 15.674 11.0595 15.674C10.1447 15.674 9.22983 15.3293 8.51483 14.6391L6.77408 12.9277C6.41292 12.5729 6.40833 11.9927 6.76308 11.6315C7.11692 11.2694 7.699 11.2648 8.05925 11.6205L9.7945 13.3264C10.5058 14.0139 11.6287 14.0103 12.3438 13.3099L16.4 9.32792C16.7603 8.97225 17.3387 8.97867 17.6962 9.33983C18.0509 9.701 18.0454 10.2812 17.6833 10.636Z"
    fill="#FF3D9A"
    />
</svg>