<svg width="16" height="16" viewBox="0 0 16 16" fill="none" xmlns="http://www.w3.org/2000/svg">
<g clip-path="url(#clip0_4312_12655)">
<path d="M12.8887 0.666748H3.11133C1.76328 0.666748 0.666992 1.77865 0.666992 3.1459V10.5834C0.666992 11.9506 1.76328 13.0625 3.11133 13.0625H4.89754L7.1885 15.0186C7.42193 15.2293 7.71464 15.334 8.00552 15.3334C8.29151 15.3334 8.57444 15.233 8.79504 15.0334L11.1459 13.0625H12.8893C14.2374 13.0625 15.3337 11.9506 15.3337 10.5834V3.1459C15.3337 1.77865 14.2368 0.666748 12.8887 0.666748ZM14.1109 10.5834C14.1109 11.267 13.5627 11.8229 12.8887 11.8229H10.9259C10.7841 11.8229 10.646 11.8731 10.5366 11.9649L7.9878 14.0814L5.51412 11.9686C5.40352 11.8744 5.26419 11.8229 5.11997 11.8229H3.11072C2.4367 11.8229 1.88855 11.267 1.88855 10.5834V3.1459C1.88855 2.46227 2.4367 1.90632 3.11072 1.90632H12.8881C13.5621 1.90632 14.1103 2.46227 14.1103 3.1459L14.1109 10.5834ZM8.91665 10.8933C8.91665 11.4064 8.506 11.8229 8.00002 11.8229C7.49404 11.8229 7.08339 11.4064 7.08339 10.8933C7.08339 10.3801 7.49404 9.96357 8.00002 9.96357C8.506 9.96357 8.91665 10.3801 8.91665 10.8933ZM10.3613 4.9749C10.6607 6.15125 10.0991 7.37161 9.02542 7.8755C8.87937 7.9443 8.61049 8.27217 8.61049 8.60004V8.72399C8.61049 9.06674 8.33734 9.34378 7.99941 9.34378C7.66148 9.34378 7.38832 9.06674 7.38832 8.72399V8.60004C7.38832 7.74225 7.96702 7.00718 8.5115 6.75121C8.95881 6.5411 9.35785 5.99259 9.17819 5.28541C9.07431 4.87883 8.73577 4.53547 8.33551 4.43072C7.94258 4.32598 7.55882 4.40407 7.25266 4.64455C6.95079 4.88193 6.77785 5.23954 6.77785 5.62567C6.77785 5.96842 6.50469 6.24546 6.16676 6.24546C5.82883 6.24546 5.55568 5.96842 5.55568 5.62567C5.55568 4.8528 5.90094 4.13818 6.50469 3.66466C7.10722 3.18991 7.88697 3.03124 8.64166 3.23081C9.47151 3.44774 10.1474 4.13198 10.3613 4.9749Z" fill="#555972"/>
</g>
<defs>
<clipPath id="clip0_4312_12655">
<rect width="16" height="16" fill="white"/>
</clipPath>
</defs>
</svg>
