<svg width="14" height="13" viewBox="0 0 14 13" fill="none" xmlns="http://www.w3.org/2000/svg">
<path d="M3.18475 6.848C2.36342 6.848 1.69142 6.57067 1.16875 6.016C0.65675 5.45067 0.40075 4.69867 0.40075 3.76C0.40075 2.82133 0.65675 2.07467 1.16875 1.52C1.69142 0.954666 2.36342 0.672 3.18475 0.672C4.00608 0.672 4.67275 0.954666 5.18475 1.52C5.69675 2.07467 5.95275 2.82133 5.95275 3.76C5.95275 4.69867 5.69675 5.45067 5.18475 6.016C4.67275 6.57067 4.00608 6.848 3.18475 6.848ZM9.85675 0.799999H11.7608L4.11275 12H2.20875L9.85675 0.799999ZM3.18475 5.536C3.54742 5.536 3.83008 5.38667 4.03275 5.088C4.24608 4.78933 4.35275 4.34667 4.35275 3.76C4.35275 3.17333 4.24608 2.73067 4.03275 2.432C3.83008 2.13333 3.54742 1.984 3.18475 1.984C2.83275 1.984 2.55008 2.13867 2.33675 2.448C2.12342 2.74667 2.01675 3.184 2.01675 3.76C2.01675 4.336 2.12342 4.77867 2.33675 5.088C2.55008 5.38667 2.83275 5.536 3.18475 5.536ZM10.7848 12.128C10.2514 12.128 9.77142 12.0053 9.34475 11.76C8.92875 11.504 8.60342 11.1413 8.36875 10.672C8.13408 10.2027 8.01675 9.65867 8.01675 9.04C8.01675 8.42133 8.13408 7.87733 8.36875 7.408C8.60342 6.93867 8.92875 6.58133 9.34475 6.336C9.77142 6.08 10.2514 5.952 10.7848 5.952C11.6061 5.952 12.2728 6.23467 12.7848 6.8C13.3074 7.35467 13.5688 8.10133 13.5688 9.04C13.5688 9.97867 13.3074 10.7307 12.7848 11.296C12.2728 11.8507 11.6061 12.128 10.7848 12.128ZM10.7848 10.816C11.1474 10.816 11.4301 10.6667 11.6328 10.368C11.8461 10.0587 11.9528 9.616 11.9528 9.04C11.9528 8.464 11.8461 8.02667 11.6328 7.728C11.4301 7.41867 11.1474 7.264 10.7848 7.264C10.4328 7.264 10.1501 7.41333 9.93675 7.712C9.72342 8.01067 9.61675 8.45333 9.61675 9.04C9.61675 9.62667 9.72342 10.0693 9.93675 10.368C10.1501 10.6667 10.4328 10.816 10.7848 10.816Z" fill="#2A2F4F"/>
</svg>
