<svg xmlns="http://www.w3.org/2000/svg" width="24" height="24" viewBox="0 0 24 24" fill="none">
  <path d="M22.8457 9.14798C22.6582 8.53138 22.2835 7.9935 21.7771 7.61387C21.2707 7.23424 20.6595 7.03302 20.0338 7.03996H16.0282L14.8115 3.12318C14.6202 2.50665 14.2443 1.9688 13.7379 1.58721C13.2315 1.20562 12.6209 1 11.9941 1C11.3673 1 10.7567 1.20562 10.2503 1.58721C9.74396 1.9688 9.36801 2.50665 9.17669 3.12318L7.96005 7.03996H3.95441C3.33072 7.04088 2.72327 7.24535 2.21882 7.62417C1.71437 8.00299 1.33872 8.53677 1.14552 9.14929C0.95233 9.76181 0.951475 10.4217 1.14308 11.0348C1.33469 11.6478 1.70895 12.1826 2.21242 12.5628L5.47268 15.025L4.23312 18.9901C4.03281 19.6051 4.03027 20.2705 4.22589 20.887C4.42151 21.5036 4.80481 22.0384 5.31865 22.4116C5.82369 22.7968 6.43571 23.0032 7.06353 23C7.69134 22.9967 8.30133 22.784 8.80262 22.3936L11.9941 19.9674L15.1865 22.3908C15.6906 22.7738 16.2994 22.9818 16.9252 22.985C17.551 22.9881 18.1616 22.7862 18.6694 22.4083C19.1771 22.0304 19.5557 21.4959 19.7508 20.8817C19.9459 20.2675 19.9474 19.6053 19.7551 18.9901L18.5155 15.025L21.7795 12.5628C22.2887 12.1874 22.6673 11.6526 22.8594 11.0376C23.0514 10.4225 23.0466 9.75998 22.8457 9.14798ZM20.6976 11.0334L16.8983 13.9019C16.7422 14.0195 16.6261 14.185 16.5665 14.3748C16.5069 14.5646 16.5068 14.7689 16.5664 14.9588L18.0104 19.5706C18.0834 19.8045 18.0828 20.0564 18.0086 20.2899C17.9344 20.5234 17.7904 20.7266 17.5973 20.8703C17.4042 21.0139 17.172 21.0906 16.934 21.0894C16.6961 21.0881 16.4646 21.009 16.273 20.8633L12.5369 18.0223C12.3795 17.9029 12.1894 17.8385 11.9941 17.8385C11.7989 17.8385 11.6087 17.9029 11.4513 18.0223L7.71525 20.8633C7.52371 21.0109 7.29162 21.0917 7.05263 21.094C6.81363 21.0962 6.58016 21.0198 6.38606 20.8757C6.19195 20.7317 6.0473 20.5275 5.97308 20.2929C5.89886 20.0582 5.89893 19.8052 5.97327 19.5706L7.42187 14.9588C7.48139 14.7689 7.48134 14.5646 7.42174 14.3748C7.36214 14.185 7.24603 14.0195 7.08997 13.9019L3.29062 11.0334C3.09928 10.8887 2.95711 10.6853 2.88441 10.4521C2.81171 10.219 2.8122 9.96805 2.88582 9.73521C2.95944 9.50236 3.10241 9.2995 3.29432 9.1556C3.48623 9.0117 3.71726 8.93413 3.95441 8.93395H8.63025C8.82436 8.93395 9.01346 8.87031 9.17031 8.7522C9.32717 8.6341 9.44368 8.46762 9.50308 8.27674L10.9242 3.70179C10.9971 3.46768 11.1401 3.26352 11.3325 3.11868C11.525 2.97385 11.7569 2.89581 11.995 2.89581C12.2331 2.89581 12.4651 2.97385 12.6575 3.11868C12.85 3.26352 12.9929 3.46768 13.0659 3.70179L14.487 8.27674C14.5464 8.46762 14.6629 8.6341 14.8197 8.7522C14.9766 8.87031 15.1657 8.93395 15.3598 8.93395H20.0357C20.2728 8.93413 20.5038 9.0117 20.6957 9.1556C20.8876 9.2995 21.0306 9.50236 21.1042 9.73521C21.1779 9.96805 21.1783 10.219 21.1056 10.4521C21.033 10.6853 20.8908 10.8887 20.6994 11.0334H20.6976Z" fill="#2A2F4F"/>
</svg>