<svg xmlns="http://www.w3.org/2000/svg" width="16" height="16" viewBox="0 0 16 16" fill="none">
  <g clip-path="url(#clip0_4001_6383)">
    <path d="M12.4843 9.62954C12.0227 9.62991 11.5682 9.74271 11.16 9.95819C10.7517 10.1737 10.402 10.4854 10.1409 10.8664L6.16773 9.0704C6.44993 8.38821 6.45103 7.62195 6.17078 6.93896L10.1385 5.13383C10.5254 5.69404 11.1 6.09687 11.7582 6.26924C12.4164 6.44162 13.1145 6.37212 13.7259 6.07336C14.3373 5.7746 14.8215 5.26637 15.0906 4.64085C15.3598 4.01533 15.396 3.31396 15.1929 2.66395C14.9897 2.01395 14.5606 1.45837 13.9833 1.09799C13.406 0.73761 12.7188 0.596303 12.0463 0.6997C11.3739 0.803096 10.7607 1.14435 10.3181 1.66155C9.87541 2.17876 9.63259 2.83766 9.63364 3.51875C9.63623 3.67995 9.65257 3.84063 9.68248 3.99905L5.46454 5.91784C5.05944 5.53788 4.55229 5.28466 4.0054 5.18929C3.45851 5.09392 2.89571 5.16054 2.38612 5.38098C1.87654 5.60142 1.44238 5.96608 1.13697 6.43015C0.831566 6.89422 0.668219 7.43749 0.666999 7.99322C0.665779 8.54895 0.82674 9.09293 1.13011 9.55834C1.43347 10.0238 1.86603 10.3903 2.37464 10.613C2.88325 10.8357 3.44576 10.9048 3.99306 10.8118C4.54036 10.7188 5.04862 10.4679 5.45538 10.0897L9.68431 12.0011C9.65493 12.1594 9.6388 12.3199 9.63609 12.4808C9.63596 13.0449 9.80296 13.5964 10.1159 14.0655C10.4289 14.5346 10.8738 14.9002 11.3944 15.1161C11.915 15.3321 12.4878 15.3886 13.0405 15.2786C13.5932 15.1686 14.1008 14.8969 14.4993 14.498C14.8977 14.0992 15.169 13.5909 15.2789 13.0377C15.3889 12.4844 15.3324 11.9109 15.1167 11.3898C14.901 10.8686 14.5358 10.4232 14.0672 10.1099C13.5986 9.79659 13.0478 9.62942 12.4843 9.62954ZM12.4843 1.889C12.8063 1.88888 13.1211 1.98436 13.3889 2.16336C13.6567 2.34237 13.8654 2.59686 13.9887 2.89464C14.1121 3.19243 14.1444 3.52014 14.0816 3.83632C14.0189 4.1525 13.8639 4.44295 13.6362 4.67094C13.4086 4.89892 13.1185 5.0542 12.8027 5.11713C12.4869 5.18007 12.1595 5.14783 11.862 5.02449C11.5645 4.90116 11.3102 4.69227 11.1313 4.42425C10.9524 4.15622 10.8569 3.8411 10.8569 3.51875C10.8572 3.08671 11.0288 2.67246 11.3339 2.36691C11.639 2.06136 12.0527 1.88948 12.4843 1.889ZM3.53198 9.62954C3.20997 9.62966 2.89516 9.53418 2.62737 9.35517C2.35957 9.17617 2.15081 8.92168 2.0275 8.62389C1.90419 8.3261 1.87187 7.9984 1.93461 7.68222C1.99736 7.36604 2.15236 7.07558 2.38001 6.8476C2.60766 6.61961 2.89773 6.46433 3.21355 6.4014C3.52936 6.33847 3.85672 6.37071 4.15422 6.49404C4.45173 6.61737 4.70602 6.82626 4.88493 7.09429C5.06384 7.36231 5.15934 7.67743 5.15934 7.99979C5.15885 8.43177 4.98726 8.84593 4.6822 9.15144C4.37713 9.45696 3.96349 9.62889 3.53198 9.62954ZM12.4843 14.1106C12.1623 14.1106 11.8475 14.015 11.5798 13.8359C11.3121 13.6568 11.1034 13.4023 10.9802 13.1045C10.857 12.8067 10.8248 12.479 10.8876 12.1629C10.9504 11.8467 11.1054 11.5564 11.3331 11.3284C11.5608 11.1005 11.8509 10.9453 12.1667 10.8824C12.4825 10.8195 12.8098 10.8518 13.1073 10.9751C13.4047 11.0985 13.659 11.3074 13.8379 11.5754C14.0167 11.8434 14.1122 12.1585 14.1122 12.4808C14.1119 12.913 13.9403 13.3273 13.635 13.6329C13.3298 13.9384 12.9159 14.1103 12.4843 14.1106Z" fill="#555972"/>
  </g>
  <defs>
    <clipPath id="clip0_4001_6383">
      <rect width="16" height="16" fill="white"/>
    </clipPath>
  </defs>
</svg>