<svg width="340" height="340" viewBox="0 0 340 340" fill="none" xmlns="http://www.w3.org/2000/svg">
<path d="M220.439 61.2136L220.818 61.8997C221.243 62.6695 221.882 63.3026 222.659 63.7235L223.351 64.0988L222.659 64.4742C221.882 64.8951 221.243 65.5282 220.818 66.298L220.439 66.9841L220.06 66.298C219.635 65.5282 218.996 64.8951 218.219 64.4742L217.526 64.0988L218.219 63.7235C218.996 63.3026 219.635 62.6695 220.06 61.8997L220.439 61.2136Z" fill="#EBEBEB"/>
<path d="M77.411 30.447L77.7897 31.1324C78.2147 31.9022 78.8539 32.5353 79.6312 32.9562L80.3234 33.3315L79.6312 33.7069C78.8539 34.1278 78.2147 34.7609 77.7897 35.5307L77.411 36.2168L77.0322 35.5307C76.6072 34.7609 75.968 34.1278 75.1908 33.7069L74.4985 33.3315L75.1908 32.9562C75.968 32.5353 76.6065 31.9022 77.0322 31.1324L77.411 30.447Z" fill="#EBEBEB"/>
<path d="M302.131 105.188L302.51 105.873C302.935 106.643 303.574 107.276 304.351 107.697L305.044 108.072L304.351 108.448C303.574 108.869 302.936 109.502 302.51 110.272L302.131 110.958L301.752 110.272C301.327 109.502 300.688 108.869 299.911 108.448L299.219 108.072L299.911 107.697C300.688 107.276 301.327 106.643 301.752 105.873L302.131 105.188Z" fill="#EBEBEB"/>
<path d="M22.6009 152.53L22.9797 153.216C23.4047 153.985 24.0439 154.618 24.8211 155.039L25.5134 155.415L24.8211 155.79C24.0439 156.211 23.4047 156.844 22.9797 157.614L22.6009 158.3L22.2222 157.614C21.7972 156.844 21.158 156.211 20.3807 155.79L19.6885 155.415L20.3807 155.039C21.158 154.618 21.7972 153.985 22.2222 153.216L22.6009 152.53Z" fill="#EBEBEB"/>
<path d="M152.668 28.3519L153.315 29.5358C154.042 30.8645 155.134 31.9573 156.463 32.6835L157.647 33.3309L156.463 33.9782C155.134 34.7052 154.042 35.7972 153.315 37.126L152.668 38.3098L152.021 37.126C151.294 35.7972 150.202 34.7052 148.873 33.9782L147.689 33.3309L148.873 32.6835C150.202 31.9566 151.294 30.8645 152.021 29.5358L152.668 28.3519Z" fill="#EBEBEB"/>
<path d="M64.3505 86.5436L64.9979 87.7275C65.7248 89.0562 66.8169 90.1489 68.1456 90.8752L69.3295 91.5225L68.1456 92.1699C66.8169 92.8968 65.7241 93.9889 64.9979 95.3176L64.3505 96.5015L63.7032 95.3176C62.9763 93.9889 61.8842 92.8961 60.5555 92.1699L59.3716 91.5225L60.5555 90.8752C61.8842 90.1483 62.9769 89.0562 63.7032 87.7275L64.3505 86.5436Z" fill="#EBEBEB"/>
<path d="M284.216 47.1777L284.403 47.5204C284.614 47.9053 284.93 48.2215 285.315 48.4323L285.658 48.62L285.315 48.8077C284.93 49.0185 284.614 49.3347 284.403 49.7195L284.216 50.0623L284.028 49.7195C283.817 49.3347 283.501 49.0185 283.116 48.8077L282.773 48.62L283.116 48.4323C283.501 48.2215 283.817 47.9053 284.028 47.5204L284.216 47.1777Z" fill="#EBEBEB"/>
<path d="M28.0385 101.691L28.2262 102.033C28.437 102.418 28.7532 102.734 29.138 102.945L29.4808 103.133L29.138 103.321C28.7532 103.531 28.437 103.848 28.2262 104.232L28.0385 104.575L27.8508 104.232C27.64 103.848 27.3238 103.531 26.9389 103.321L26.5962 103.133L26.9389 102.945C27.3238 102.735 27.64 102.418 27.8508 102.033L28.0385 101.691Z" fill="#EBEBEB"/>
<path d="M68.6847 266.79C73.7602 271.618 78.9289 278.168 85.9023 277.511C93.5767 276.789 99.2765 267.233 106.784 268.983C110.835 269.927 113.333 273.864 116.569 276.477C123.062 281.722 132.859 281.346 140.138 277.26C147.416 273.174 152.511 266.042 156.238 258.573C167.266 236.475 167.994 210.808 167.753 186.111L170 103.189L172.247 188.197C172.005 212.894 172.734 238.56 183.762 260.659C187.489 268.127 192.584 275.259 199.862 279.345C207.141 283.431 216.938 283.808 223.431 278.563C226.666 275.949 229.164 272.013 233.215 271.068C240.723 269.319 246.423 278.874 254.098 279.597C261.071 280.254 266.24 273.703 271.315 268.876C278.381 262.156 287.753 258.123 297.436 257.075C302.361 242.911 305.044 227.697 305.044 211.854C305.044 135.828 243.413 74.1968 167.387 74.1968C91.3606 74.1968 29.7295 135.829 29.7295 211.855C29.7295 226.823 32.1238 241.23 36.5411 254.722C48.2765 254.477 60.1595 258.682 68.6847 266.79Z" fill="#EBEBEB"/>
<path d="M241.505 178.189H326.001C326.001 178.189 318.53 164.591 296.78 166.57C276.008 168.46 274.952 159.881 264.389 158.825C253.828 157.768 245.026 165.866 241.505 178.189Z" fill="white"/>
<path d="M13.5693 195.621H67.5879C67.5879 195.621 62.8109 186.928 48.9062 188.193C35.6265 189.402 34.9513 183.917 28.1989 183.242C21.4465 182.566 15.8201 187.743 13.5693 195.621Z" fill="white"/>
<path d="M142.055 276.069C142.395 275.841 142.733 275.608 143.064 275.367C143.216 275.255 143.366 275.14 143.517 275.026C143.843 274.778 144.165 274.523 144.482 274.262C144.611 274.157 144.739 274.051 144.866 273.943C145.23 273.634 145.588 273.316 145.939 272.991C146.007 272.928 146.076 272.867 146.143 272.804C147.474 271.551 148.711 270.191 149.862 268.751C149.868 268.744 149.873 268.737 149.879 268.731C150.264 268.247 150.641 267.755 151.008 267.256L151.009 267.255C146.442 266.931 141.753 267.542 137.38 266.207C128.455 263.483 123.512 253.599 115.008 249.755C103.8 244.689 89.2995 251.297 78.9758 244.611C71.221 239.588 69.2769 229.281 64.3088 221.491C56.9458 209.945 42.9575 203.808 29.8009 207.603C29.7581 209.016 29.7295 210.432 29.7295 211.855C29.7295 226.212 31.9375 240.05 36.0147 253.061C36.3296 253.613 36.6451 254.167 36.9837 254.72C37.1082 254.718 37.2333 254.725 37.3577 254.725C37.931 254.723 38.5035 254.726 39.0768 254.745C39.223 254.75 39.3692 254.761 39.5161 254.767C40.0968 254.792 40.6775 254.822 41.2569 254.868C41.3976 254.879 41.5377 254.896 41.6778 254.909C42.2619 254.961 42.8447 255.018 43.4261 255.092C43.5661 255.109 43.7055 255.133 43.8449 255.152C44.425 255.231 45.0043 255.315 45.581 255.415C45.7244 255.44 45.8659 255.471 46.0094 255.498C46.5806 255.602 47.1504 255.711 47.7175 255.837C47.8685 255.87 48.0174 255.911 48.1677 255.945C48.7239 256.074 49.2788 256.207 49.8303 256.356C49.9935 256.4 50.154 256.452 50.3172 256.497C50.8523 256.648 51.3868 256.802 51.9165 256.972C52.094 257.029 52.2681 257.094 52.4449 257.153C52.9556 257.324 53.4656 257.496 53.9701 257.684C54.1653 257.757 54.357 257.839 54.5508 257.914C55.0316 258.101 55.513 258.288 55.987 258.492C56.2019 258.584 56.412 258.686 56.6255 258.782C57.073 258.982 57.5218 259.181 57.9624 259.396C58.199 259.51 58.4296 259.638 58.6642 259.757C59.0756 259.966 59.489 260.172 59.8936 260.394C60.15 260.535 60.3988 260.688 60.6525 260.834C61.0272 261.049 61.4046 261.26 61.7731 261.487C62.0546 261.66 62.328 261.847 62.6054 262.026C62.9366 262.241 63.2719 262.449 63.5976 262.673C63.911 262.889 64.215 263.119 64.5224 263.344C64.8018 263.547 65.0861 263.743 65.3601 263.953C65.7226 264.23 66.0721 264.524 66.425 264.814C66.6351 264.986 66.8514 265.15 67.0574 265.326C67.6116 265.799 68.1542 266.287 68.6833 266.791C73.7588 271.618 78.9275 278.168 85.9009 277.511C93.5754 276.789 99.2751 267.233 106.783 268.983C110.834 269.927 113.331 273.864 116.568 276.477C123.061 281.722 132.858 281.346 140.136 277.26C140.642 276.976 141.136 276.674 141.621 276.361C141.768 276.266 141.91 276.166 142.055 276.069Z" fill="#E0E0E0"/>
<path d="M273.088 267.298C273.401 267.033 273.712 266.768 274.032 266.513C274.206 266.375 274.385 266.244 274.561 266.109C274.86 265.879 275.158 265.646 275.464 265.424C275.651 265.288 275.842 265.159 276.032 265.027C276.334 264.814 276.635 264.6 276.943 264.395C277.133 264.268 277.328 264.149 277.521 264.025C277.834 263.824 278.147 263.622 278.465 263.429C278.657 263.312 278.853 263.202 279.047 263.089C279.372 262.898 279.697 262.708 280.026 262.526C280.218 262.42 280.413 262.32 280.608 262.218C280.946 262.038 281.283 261.858 281.626 261.687C281.816 261.592 282.009 261.503 282.2 261.411C282.551 261.242 282.903 261.073 283.259 260.913C283.447 260.828 283.637 260.748 283.826 260.666C284.191 260.508 284.555 260.352 284.924 260.203C285.108 260.129 285.294 260.059 285.479 259.987C285.858 259.84 286.237 259.695 286.62 259.558C286.799 259.494 286.98 259.434 287.159 259.372C287.551 259.237 287.944 259.105 288.34 258.98C288.515 258.925 288.69 258.874 288.866 258.821C289.27 258.699 289.675 258.58 290.082 258.469C290.254 258.422 290.425 258.379 290.597 258.335C291.011 258.227 291.427 258.123 291.844 258.026C292.012 257.987 292.18 257.951 292.349 257.914C292.772 257.821 293.196 257.732 293.622 257.651C293.787 257.619 293.952 257.589 294.118 257.56C294.549 257.482 294.979 257.409 295.412 257.344C295.575 257.319 295.739 257.296 295.902 257.273C296.143 257.239 296.383 257.198 296.625 257.168C297.16 256.425 297.668 255.68 298.155 254.935C302.618 241.382 305.043 226.903 305.043 211.855C305.043 209.073 304.951 206.313 304.788 203.571C291.508 200.243 279.016 206.999 272.064 218.796C267.374 226.756 265.793 237.125 258.22 242.418C248.137 249.464 233.414 243.369 222.39 248.826C214.026 252.967 209.436 263.018 200.611 266.055C196.502 267.468 192.045 267.134 187.704 267.513C187.704 267.515 187.706 267.517 187.706 267.517C188.064 268.053 188.435 268.579 188.813 269.1C188.913 269.238 189.015 269.375 189.116 269.512C189.425 269.929 189.741 270.339 190.063 270.745C190.154 270.859 190.243 270.975 190.335 271.089C190.742 271.59 191.159 272.082 191.586 272.561C191.662 272.646 191.741 272.727 191.817 272.811C192.175 273.206 192.541 273.591 192.914 273.969C193.043 274.099 193.172 274.228 193.303 274.357C193.687 274.734 194.079 275.102 194.478 275.461C194.559 275.533 194.637 275.608 194.718 275.679C195.194 276.096 195.683 276.498 196.182 276.887C196.31 276.987 196.442 277.082 196.571 277.18C196.962 277.475 197.362 277.761 197.768 278.038C197.919 278.141 198.07 278.245 198.224 278.345C198.758 278.695 199.301 279.033 199.861 279.347C207.14 283.433 216.937 283.81 223.43 278.565C226.666 275.951 229.163 272.014 233.215 271.07C240.722 269.32 246.422 278.875 254.097 279.598C261.07 280.255 266.239 273.705 271.314 268.877C271.75 268.463 272.195 268.059 272.648 267.666C272.792 267.539 272.942 267.421 273.088 267.298Z" fill="#E0E0E0"/>
<path d="M303.494 312.807C303.494 312.905 243.182 312.984 168.8 312.984C94.3927 312.984 34.0938 312.904 34.0938 312.807C34.0938 312.71 94.3927 312.63 168.8 312.63C243.182 312.63 303.494 312.709 303.494 312.807Z" fill="#2A2F4F"/>
<path d="M285.893 85.6717C286.124 79.4487 281.266 74.2166 275.043 73.9855C268.82 73.7545 263.588 78.612 263.357 84.8351C263.126 91.0581 267.983 96.2902 274.206 96.5212C280.429 96.7523 285.662 91.8948 285.893 85.6717Z" fill="#2A2F4F"/>
<path d="M278.299 80.9309C278.323 79.9157 279.166 79.1119 280.182 79.1364C281.197 79.1609 282.001 80.0034 281.976 81.0186C281.952 82.0339 281.109 82.8376 280.094 82.8131C279.079 82.7887 278.275 81.9461 278.299 80.9309Z" fill="#2A2F4F"/>
<path d="M281.977 85.2244C281.991 84.6335 282.481 84.1663 283.072 84.1806C283.663 84.1949 284.13 84.6845 284.115 85.2754C284.101 85.8663 283.612 86.3335 283.021 86.3192C282.43 86.3049 281.963 85.8153 281.977 85.2244Z" fill="#2A2F4F"/>
<path d="M280.541 88.5095C280.759 88.5149 280.932 88.6951 280.926 88.9134C280.921 89.131 280.74 89.3037 280.522 89.2983C280.305 89.2929 280.132 89.1127 280.137 88.8944C280.143 88.6761 280.324 88.5041 280.541 88.5095Z" fill="#2A2F4F"/>
<path d="M252.322 135.64L252.708 136.346C253.141 137.138 253.793 137.79 254.585 138.224L255.291 138.61L254.585 138.996C253.793 139.429 253.141 140.081 252.708 140.874L252.322 141.579L251.935 140.874C251.502 140.081 250.85 139.429 250.058 138.996L249.352 138.61L250.058 138.224C250.85 137.79 251.502 137.138 251.935 136.346L252.322 135.64Z" fill="#2A2F4F"/>
<path d="M100.423 76.6176L101.09 77.8362C101.838 79.2044 102.962 80.3291 104.33 81.0771L105.549 81.7435L104.33 82.4099C102.962 83.1579 101.838 84.2826 101.09 85.6508L100.423 86.8693L99.7568 85.6508C99.0088 84.2826 97.8841 83.1579 96.5159 82.4099L95.2974 81.7435L96.5159 81.0771C97.8841 80.3291 99.0088 79.2044 99.7568 77.8362L100.423 76.6176Z" fill="#2A2F4F"/>
<path d="M56.9462 36.4181L57.1923 36.8682C57.4684 37.3735 57.8839 37.7883 58.3884 38.0644L58.8386 38.3105L58.3884 38.556C57.8832 38.8321 57.4684 39.2476 57.1923 39.7521L56.9462 40.2023L56.7 39.7521C56.4239 39.2469 56.0084 38.8321 55.5039 38.556L55.0537 38.3099L55.5039 38.0637C56.0091 37.7876 56.4239 37.3721 56.7 36.8676L56.9462 36.4181Z" fill="#2A2F4F"/>
<path d="M125.211 227.679L125.334 227.904C125.472 228.156 125.679 228.364 125.932 228.502L126.157 228.626L125.932 228.749C125.68 228.887 125.472 229.094 125.334 229.347L125.211 229.572L125.088 229.347C124.95 229.095 124.742 228.887 124.489 228.749L124.264 228.626L124.489 228.502C124.742 228.364 124.95 228.157 125.088 227.904L125.211 227.679Z" fill="#2A2F4F"/>
<path d="M100.546 145.682L100.669 145.907C100.807 146.159 101.015 146.367 101.268 146.505L101.493 146.628L101.268 146.751C101.015 146.89 100.807 147.097 100.669 147.35L100.546 147.575L100.423 147.35C100.285 147.098 100.078 146.89 99.8247 146.751L99.5996 146.628L99.8247 146.505C100.077 146.367 100.285 146.16 100.423 145.907L100.546 145.682Z" fill="#2A2F4F"/>
<path d="M299.635 122.746L299.758 122.971C299.896 123.223 300.103 123.432 300.356 123.57L300.581 123.693L300.356 123.816C300.104 123.954 299.896 124.161 299.758 124.414L299.635 124.639L299.511 124.414C299.373 124.162 299.166 123.954 298.913 123.816L298.688 123.693L298.913 123.57C299.165 123.432 299.373 123.224 299.511 122.971L299.635 122.746Z" fill="#2A2F4F"/>
<path d="M40.5785 121.739L40.8246 122.189C41.1007 122.694 41.5162 123.109 42.0208 123.385L42.4709 123.631L42.0208 123.878C41.5155 124.154 41.1007 124.569 40.8246 125.074L40.5785 125.524L40.3323 125.074C40.0562 124.569 39.6408 124.154 39.1362 123.878L38.686 123.631L39.1362 123.385C39.6414 123.109 40.0562 122.694 40.3323 122.189L40.5785 121.739Z" fill="#2A2F4F"/>
<path d="M227.347 221.684L227.593 222.134C227.869 222.639 228.284 223.054 228.789 223.33L229.239 223.577L228.789 223.823C228.284 224.099 227.869 224.514 227.593 225.019L227.347 225.469L227.1 225.019C226.824 224.514 226.409 224.099 225.904 223.823L225.454 223.577L225.904 223.33C226.41 223.054 226.824 222.639 227.1 222.134L227.347 221.684Z" fill="#2A2F4F"/>
<path d="M241.765 31.843L242.431 33.0616C243.179 34.4298 244.304 35.5545 245.672 36.3025L246.89 36.9689L245.672 37.6353C244.304 38.3833 243.179 39.508 242.431 40.8762L241.765 42.0947L241.098 40.8762C240.35 39.508 239.225 38.3833 237.857 37.6353L236.639 36.9689L237.857 36.3025C239.225 35.5545 240.35 34.4298 241.098 33.0616L241.765 31.843Z" fill="#2A2F4F"/>
<path d="M79.0176 179.334C71.1568 177.213 66.5035 169.123 68.6238 161.263C69.5152 157.959 71.4634 155.224 74.0046 153.318C69.9715 155.025 66.7347 158.5 65.506 163.056C63.3857 170.917 68.0396 179.007 75.8998 181.127C80.4558 182.356 85.0872 181.305 88.5906 178.677C85.6646 179.915 82.3217 180.224 79.0176 179.334Z" fill="#2A2F4F"/>
<path d="M274.467 291.167C275.471 292.601 277.424 292.127 278.329 291.251C279.234 290.376 279.617 289.107 279.965 287.896C280.76 285.132 281.563 282.231 280.971 279.415C280.794 278.573 280.48 277.733 279.888 277.109C279.296 276.484 278.387 276.113 277.555 276.332C276.571 276.592 275.959 277.556 275.517 278.474C274.217 281.169 273.529 284.158 273.519 287.15C273.514 288.548 273.679 290.013 274.467 291.167Z" fill="#FF3D9A"/>
<g opacity="0.2">
<path d="M274.467 291.167C275.471 292.601 277.424 292.127 278.329 291.251C279.234 290.376 279.617 289.107 279.965 287.896C280.76 285.132 281.563 282.231 280.971 279.415C280.794 278.573 280.48 277.733 279.888 277.109C279.296 276.484 278.387 276.113 277.555 276.332C276.571 276.592 275.959 277.556 275.517 278.474C274.217 281.169 273.529 284.158 273.519 287.15C273.514 288.548 273.679 290.013 274.467 291.167Z" fill="#2A2F4F"/>
</g>
<path d="M278.231 298.432C279.873 297.584 281.807 297.474 283.63 297.775C284.61 297.937 285.632 298.23 286.298 298.966C286.964 299.702 287.091 300.997 286.326 301.63C285.87 302.006 285.234 302.063 284.644 302.057C283.216 302.04 281.632 301.789 280.492 302.648C279.841 303.138 279.408 303.953 278.63 304.193C277.869 304.429 277.01 303.98 276.606 303.293C276.203 302.606 276.189 301.747 276.377 300.973C276.378 300.973 276.576 299.286 278.231 298.432Z" fill="#FF3D9A"/>
<path d="M271.709 293.226C272.8 291.931 273.007 290.044 272.521 288.422C272.035 286.801 270.939 285.421 269.676 284.295C268.195 282.975 266.453 281.948 264.581 281.289C263.845 281.03 263.068 280.826 262.29 280.9C261.513 280.974 260.73 281.372 260.368 282.063C259.832 283.086 260.346 284.326 260.902 285.338C261.881 287.121 263.001 288.827 264.248 290.433C265.251 291.726 266.4 293.002 267.928 293.586C269.457 294.17 271.045 294.101 271.855 293.041" fill="#FF3D9A"/>
<path d="M274.399 312.807C274.418 312.808 274.448 312.576 274.49 312.155C274.536 311.68 274.594 311.084 274.664 310.376C274.747 309.627 274.856 308.736 275.064 307.767C275.271 306.799 275.596 305.75 276.013 304.687C276.444 303.63 276.97 302.669 277.586 301.9C278.196 301.128 278.906 300.57 279.574 300.247C280.239 299.919 280.836 299.785 281.248 299.726C281.664 299.683 281.897 299.65 281.897 299.632C281.897 299.613 281.663 299.61 281.236 299.622C280.813 299.65 280.192 299.757 279.49 300.076C278.787 300.388 278.034 300.955 277.393 301.743C276.748 302.528 276.202 303.51 275.763 304.586C275.339 305.667 275.019 306.727 274.821 307.716C274.624 308.702 274.534 309.603 274.475 310.358C274.418 311.114 274.396 311.725 274.386 312.148C274.376 312.572 274.381 312.805 274.399 312.807Z" fill="#2A2F4F"/>
<path d="M274.522 311.438C274.531 311.437 274.537 311.333 274.539 311.135C274.539 310.908 274.538 310.622 274.537 310.27C274.535 309.52 274.536 308.434 274.576 307.092C274.643 304.409 274.873 300.706 275.319 296.636C275.769 292.564 276.365 288.901 276.907 286.274C277.036 285.615 277.165 285.023 277.287 284.503C277.403 283.983 277.501 283.535 277.597 283.172C277.68 282.83 277.746 282.552 277.799 282.331C277.843 282.138 277.861 282.035 277.852 282.033C277.844 282.03 277.807 282.128 277.747 282.316C277.681 282.534 277.598 282.808 277.496 283.145C277.385 283.505 277.27 283.95 277.14 284.468C277.004 284.985 276.862 285.577 276.722 286.234C276.129 288.859 275.502 292.526 275.052 296.606C274.605 300.685 274.404 304.399 274.386 307.089C274.37 308.433 274.399 309.522 274.433 310.273C274.454 310.625 274.471 310.91 274.486 311.137C274.501 311.335 274.513 311.439 274.522 311.438Z" fill="#2A2F4F"/>
<path d="M274.54 304.275C274.558 304.274 274.556 303.953 274.534 303.371C274.501 302.79 274.421 301.951 274.257 300.923C274.084 299.898 273.842 298.68 273.461 297.357C273.099 296.028 272.601 294.595 271.97 293.136C270.733 290.202 269.052 287.803 267.59 286.317C267.247 285.922 266.865 285.638 266.559 285.359C266.401 285.225 266.262 285.092 266.12 284.987C265.977 284.888 265.843 284.796 265.72 284.711C265.238 284.382 264.969 284.209 264.959 284.224C264.915 284.283 266.037 284.942 267.452 286.449C268.862 287.951 270.496 290.334 271.723 293.244C272.35 294.69 272.85 296.11 273.223 297.425C273.614 298.736 273.874 299.941 274.07 300.956C274.256 301.974 274.365 302.805 274.43 303.38C274.483 303.956 274.522 304.276 274.54 304.275Z" fill="#2A2F4F"/>
<path d="M66.6897 240.108C66.6897 240.108 66.8182 240.062 67.0821 240.052C67.3445 240.041 67.7485 240.088 68.2231 240.302C68.6971 240.515 69.2241 240.914 69.7041 241.509C70.1903 242.104 70.5888 242.903 70.9574 243.828C71.6687 245.702 72.0114 248.148 72.4051 250.986C72.7818 253.832 73.181 257.104 73.2979 260.793L73.2945 260.766C73.4618 261.319 73.8277 261.971 74.4308 262.015C74.7246 262.033 75.0129 261.897 75.2971 261.734C75.58 261.569 75.8581 261.382 76.139 261.193C76.7007 260.815 77.2753 260.422 77.9117 260.099C78.538 259.799 79.2928 259.506 80.0558 259.752C80.7895 260.022 81.3301 260.641 81.6103 261.367C81.8748 262.102 81.8687 262.905 81.7333 263.669C81.4797 265.221 80.7045 266.635 80.1013 268.12C79.4655 269.602 78.8148 271.121 78.1484 272.675C77.8152 273.451 77.4786 274.237 77.1379 275.031C76.9679 275.428 76.7965 275.827 76.6245 276.228C76.5354 276.436 76.4491 276.618 76.4212 276.814C76.3933 277.009 76.3947 277.22 76.4701 277.377C76.6027 277.713 77.0685 277.642 77.45 277.454C77.856 277.273 78.264 277.09 78.6733 276.906C79.4982 276.538 80.3455 276.19 81.2288 275.911C82.1107 275.637 83.0355 275.412 84.0032 275.429C84.4839 275.44 84.981 275.531 85.4291 275.764C85.8786 275.992 86.2499 276.386 86.4553 276.847C86.8748 277.782 86.7851 278.82 86.5906 279.77C86.39 280.732 86.0547 281.66 85.6692 282.569C84.8892 284.386 83.8991 286.13 82.8084 287.837C82.5453 288.27 82.2141 288.675 82.0618 289.111C81.9849 289.329 81.9673 289.547 82.0597 289.726C82.0815 289.772 82.1087 289.816 82.1427 289.858C82.1651 289.888 82.2359 289.972 82.2304 289.947C82.242 289.962 82.3691 289.955 82.4739 289.921C83.3803 289.592 84.2609 288.989 85.1599 288.489C86.0595 287.973 86.9836 287.457 87.9948 287.101C88.5 286.927 89.0297 286.789 89.5867 286.773C90.1361 286.744 90.7508 286.92 91.1602 287.353C91.5655 287.777 91.7423 288.372 91.7559 288.924C91.7749 289.479 91.7096 290.028 91.5913 290.561C91.3574 291.63 90.9637 292.656 90.4775 293.636C89.5282 295.61 88.2477 297.422 86.8429 299.139C85.4353 300.86 83.8658 302.458 82.1971 303.982C81.3893 304.779 80.4638 305.428 79.5784 306.137C78.6849 306.836 77.7887 307.536 76.8883 308.24L76.8571 308.264L76.7782 308.326L76.6843 308.29C75.6181 307.879 74.5553 307.469 73.4965 307.062C72.4432 306.64 71.3661 306.294 70.3637 305.76C68.3265 304.779 66.3633 303.698 64.5191 302.455C62.6797 301.214 60.9308 299.846 59.4538 298.227C58.7065 297.429 58.0347 296.558 57.5029 295.601C57.2363 295.125 57.016 294.617 56.8739 294.08C56.7284 293.547 56.7257 292.926 56.9915 292.403C57.2588 291.871 57.7967 291.524 58.3318 291.394C58.8704 291.249 59.4178 291.229 59.9516 291.251C61.0226 291.3 62.0562 291.529 63.0667 291.766C64.0717 291.987 65.089 292.311 66.0519 292.365C66.162 292.369 66.2865 292.338 66.2919 292.32C66.2946 292.347 66.3375 292.245 66.3504 292.21C66.3708 292.16 66.3844 292.11 66.3919 292.059C66.4286 291.861 66.3483 291.657 66.2123 291.47C65.9403 291.096 65.5072 290.804 65.1311 290.465C63.5964 289.142 62.1466 287.756 60.8771 286.239C60.2474 285.479 59.6592 284.685 59.1907 283.821C58.7317 282.967 58.3475 281.998 58.4828 280.981C58.5481 280.481 58.7922 279.997 59.1573 279.65C59.5198 279.298 59.9706 279.069 60.4283 278.922C61.3503 278.628 62.301 278.578 63.2244 278.588C64.1513 278.601 65.0625 278.692 65.958 278.807C66.4034 278.865 66.8468 278.923 67.2874 278.981C67.7063 279.05 68.1728 278.984 68.2 278.621C68.2245 278.448 68.1667 278.246 68.0823 278.068C67.9994 277.889 67.8634 277.739 67.7185 277.565C67.4384 277.231 67.1603 276.897 66.8828 276.566C66.3286 275.904 65.7805 275.248 65.2379 274.6C64.154 273.303 63.0939 272.035 62.0596 270.798C61.0552 269.549 59.9067 268.417 59.2185 267.003C58.8697 266.31 58.6337 265.543 58.6766 264.763C58.7371 263.988 59.0771 263.24 59.7034 262.771C60.3637 262.317 61.1708 262.383 61.8569 262.49C62.5587 262.615 63.2217 262.827 63.8684 263.028C64.1914 263.128 64.5117 263.227 64.8299 263.303C65.1488 263.378 65.4637 263.425 65.7397 263.323C66.3048 263.107 66.4673 262.377 66.4694 261.801L66.4735 261.827C65.5276 258.266 64.9707 255.023 64.5151 252.194C64.0771 249.368 63.7045 246.932 63.833 244.936C63.9133 243.946 64.0472 243.065 64.3355 242.354C64.6103 241.641 64.9836 241.099 65.3671 240.749C65.7499 240.396 66.1219 240.232 66.3742 240.162C66.6285 240.091 66.7645 240.098 66.7645 240.098C66.7876 240.124 66.1681 240.086 65.4072 240.793C65.0373 241.143 64.6789 241.68 64.4171 242.385C64.1417 243.088 64.0187 243.962 63.9473 244.943C63.8371 246.921 64.2247 249.343 64.6789 252.167C65.1502 254.988 65.7241 258.232 66.6781 261.767L66.6822 261.782V261.793C66.6843 262.127 66.6373 262.453 66.519 262.774C66.3959 263.082 66.1729 263.41 65.8173 263.531C65.4705 263.661 65.1005 263.598 64.7769 263.524C64.4471 263.446 64.1234 263.348 63.799 263.248C63.151 263.049 62.4948 262.843 61.8155 262.724C61.1504 262.619 60.3997 262.579 59.8421 262.972C59.3076 263.369 58.9703 264.08 58.9268 264.779C58.8894 265.494 59.1097 266.221 59.4491 266.889C60.1148 268.251 61.247 269.366 62.2629 270.62C63.3013 271.855 64.3655 273.122 65.4541 274.417C65.9981 275.065 66.5489 275.72 67.1052 276.383C67.3833 276.714 67.6628 277.046 67.9443 277.381C68.2279 277.689 68.5454 278.134 68.4917 278.662C68.4754 278.938 68.2265 279.19 67.9749 279.252C67.7267 279.325 67.4765 279.303 67.2541 279.279C66.8114 279.222 66.366 279.164 65.9186 279.107C65.0285 278.994 64.1275 278.907 63.219 278.895C62.3139 278.886 61.3871 278.941 60.5241 279.219C59.6667 279.477 58.8949 280.116 58.7935 281.03C58.6725 281.922 59.022 282.845 59.4708 283.669C59.9251 284.505 60.5031 285.284 61.1246 286.032C62.3778 287.525 63.8194 288.901 65.3453 290.212C65.7153 290.549 66.1457 290.825 66.4816 291.276C66.6435 291.493 66.7774 291.8 66.721 292.112C66.7087 292.189 66.689 292.262 66.6618 292.33C66.6224 292.409 66.6353 292.441 66.5353 292.55C66.3538 292.71 66.194 292.69 66.0566 292.701C64.97 292.639 64.0051 292.314 62.9878 292.095C61.9821 291.86 60.9655 291.638 59.9359 291.592C59.4239 291.571 58.9057 291.594 58.4229 291.725C57.9374 291.845 57.5138 292.133 57.2982 292.558C57.082 292.99 57.0738 293.509 57.2091 293.999C57.3404 294.493 57.5485 294.977 57.8062 295.435C58.3189 296.355 58.9758 297.208 59.7102 297.992C61.1613 299.581 62.8919 300.935 64.715 302.163C66.5401 303.394 68.4978 304.471 70.512 305.44C71.4987 305.967 72.5805 306.314 73.6298 306.735C74.6865 307.142 75.7473 307.55 76.8115 307.96L76.6388 307.986L76.6694 307.961C77.5677 307.259 78.4625 306.56 79.3547 305.863C80.2373 305.156 81.1662 304.504 81.9611 303.718C83.6115 302.211 85.1762 300.618 86.5702 298.916C87.9628 297.216 89.2297 295.423 90.1626 293.484C90.6407 292.522 91.0249 291.517 91.2513 290.489C91.3655 289.976 91.4267 289.454 91.4097 288.943C91.3989 288.435 91.2411 287.941 90.9093 287.59C90.5801 287.246 90.0919 287.093 89.5921 287.116C89.0923 287.13 88.5898 287.257 88.1056 287.424C87.1332 287.764 86.2234 288.269 85.3278 288.783C84.4166 289.284 83.5857 289.872 82.5636 290.244C82.4283 290.274 82.2814 290.338 82.0618 290.238C81.9346 290.164 81.9367 290.129 81.8768 290.064C81.8313 290.007 81.7905 289.942 81.7571 289.873C81.613 289.59 81.6524 289.258 81.7449 289.003C81.9373 288.475 82.2705 288.087 82.5276 287.658C83.6122 285.964 84.5975 284.233 85.3693 282.443C85.7501 281.548 86.0799 280.635 86.2751 279.705C86.4682 278.786 86.5382 277.802 86.1676 276.982C85.8106 276.135 84.8872 275.743 83.9923 275.741C83.0859 275.722 82.1828 275.936 81.3185 276.204C80.4515 276.476 79.6138 276.818 78.7937 277.181C78.3816 277.365 77.9716 277.547 77.5643 277.729C77.3589 277.817 77.1257 277.909 76.8673 277.911C76.6102 277.926 76.2967 277.76 76.2002 277.501C75.9941 277.01 76.1696 276.493 76.3525 276.115C76.5259 275.714 76.6979 275.315 76.8693 274.918C77.212 274.124 77.5507 273.338 77.8859 272.562C78.5564 271.008 79.2119 269.489 79.8518 268.007C80.4645 266.514 81.2295 265.121 81.477 263.625C81.6103 262.887 81.613 262.128 81.3729 261.453C81.1309 260.796 80.6039 260.212 79.9783 259.984C79.3309 259.766 78.623 260.02 78.0158 260.311C77.399 260.621 76.8299 261.006 76.2661 261.383C75.9833 261.572 75.7017 261.759 75.4087 261.929C75.1203 262.092 74.7837 262.259 74.4145 262.235C74.0391 262.222 73.7311 261.972 73.5244 261.711C73.319 261.438 73.1803 261.138 73.0865 260.818L73.0831 260.808L73.0824 260.792C72.9811 257.126 72.5975 253.847 72.2378 251.005C71.8611 248.164 71.5361 245.728 70.8479 243.866C70.4909 242.946 70.1053 242.152 69.6334 241.561C69.1676 240.969 68.6569 240.57 68.1959 240.353C67.2541 239.921 66.6754 240.138 66.6897 240.108Z" fill="#2A2F4F"/>
<path d="M77.2754 312.936C76.3207 306.664 74.1196 292.052 72.7759 282.464C71.4329 272.879 70.2096 264.202 69.2895 257.926C68.8278 254.795 68.4531 252.258 68.1934 250.494C68.0655 249.623 67.9662 248.944 67.8976 248.473C67.867 248.248 67.8432 248.074 67.8255 247.947C67.8105 247.828 67.8071 247.767 67.8071 247.767C67.8071 247.767 67.8234 247.827 67.8445 247.944C67.8663 248.07 67.8969 248.244 67.9356 248.468C68.0132 248.938 68.1247 249.615 68.2675 250.483C68.5538 252.234 68.9488 254.771 69.4248 257.906C70.3796 264.178 71.6246 272.853 72.9676 282.437C74.3113 292.025 76.4907 306.64 77.4101 312.916" fill="#2A2F4F"/>
<path d="M63.4775 265.567C63.4857 265.556 63.6074 265.64 63.8209 265.801C64.0344 265.961 64.3363 266.202 64.7063 266.503C65.4447 267.107 66.443 267.967 67.5262 268.937C68.5877 269.896 69.5472 270.763 70.2891 271.433C70.6189 271.728 70.8997 271.979 71.1295 272.185C71.3288 272.362 71.4349 272.465 71.4267 272.475C71.4185 272.486 71.2961 272.403 71.0819 272.243C70.8684 272.083 70.5665 271.842 70.2 271.537C69.4669 270.926 68.4809 270.052 67.3977 269.083C66.3301 268.132 65.3645 267.273 64.6185 266.608C64.2867 266.315 64.0052 266.065 63.774 265.86C63.5747 265.681 63.4693 265.577 63.4775 265.567Z" fill="#2A2F4F"/>
<path d="M71.9163 272.258C71.8748 272.224 73.5564 270.087 75.6726 267.486C77.7894 264.884 79.5384 262.803 79.5806 262.837C79.622 262.871 77.9404 265.007 75.8236 267.609C73.7081 270.21 71.9584 272.291 71.9163 272.258Z" fill="#2A2F4F"/>
<path d="M73.3157 287.072C73.3089 287.061 73.4279 286.969 73.6503 286.812C73.908 286.633 74.2242 286.413 74.5968 286.155C75.3951 285.6 76.4947 284.83 77.6779 283.937C78.8631 283.046 79.9083 282.203 80.6604 281.587C81.0119 281.301 81.3098 281.058 81.5532 280.86C81.7654 280.689 81.8871 280.599 81.8959 280.609C81.9048 280.62 81.8001 280.728 81.6035 280.917C81.4063 281.105 81.116 281.372 80.7501 281.693C80.0191 282.337 78.9842 283.199 77.7955 284.092C76.6089 284.989 75.4931 285.743 74.6737 286.27C74.2629 286.532 73.9277 286.739 73.6924 286.876C73.4565 287.013 73.3232 287.083 73.3157 287.072Z" fill="#2A2F4F"/>
<path d="M64.3503 282.7C64.3557 282.688 64.487 282.736 64.7195 282.833C64.9521 282.93 65.2853 283.076 65.6953 283.259C66.5154 283.627 67.6435 284.148 68.8838 284.733C70.1248 285.319 71.2434 285.858 72.0486 286.258C72.4511 286.458 72.7755 286.623 72.9978 286.74C73.2202 286.858 73.3406 286.929 73.3344 286.941C73.329 286.953 73.1978 286.906 72.9652 286.808C72.7326 286.712 72.3994 286.566 71.9894 286.382C71.1686 286.014 70.0412 285.494 68.8002 284.908C67.5599 284.323 66.4413 283.783 65.6362 283.384C65.2336 283.184 64.9092 283.019 64.6869 282.902C64.4645 282.783 64.3448 282.713 64.3503 282.7Z" fill="#2A2F4F"/>
<path d="M63.924 295.935C63.9294 295.923 64.0967 295.986 64.3945 296.11C64.7257 296.254 65.1452 296.435 65.6471 296.653C66.7011 297.119 68.1515 297.774 69.7482 298.509C71.3455 299.244 72.7871 299.92 73.8261 300.418C74.3171 300.657 74.7285 300.859 75.0528 301.016C75.3405 301.162 75.4969 301.247 75.4914 301.26C75.486 301.272 75.3187 301.209 75.0209 301.085C74.6897 300.942 74.2702 300.76 73.7683 300.542C72.7143 300.077 71.2639 299.421 69.6666 298.685C68.0699 297.95 66.6283 297.275 65.5893 296.777C65.0983 296.537 64.6869 296.337 64.3626 296.179C64.0749 296.034 63.9185 295.948 63.924 295.935Z" fill="#2A2F4F"/>
<path d="M75.2508 301.055C75.2433 301.044 75.3915 300.923 75.6669 300.715C75.9729 300.487 76.366 300.192 76.8372 299.84C77.8246 299.101 79.1852 298.075 80.6554 296.901C82.1283 295.729 83.4339 294.634 84.3736 293.835C84.8224 293.455 85.1971 293.137 85.4882 292.89C85.7527 292.669 85.903 292.55 85.9125 292.56C85.9213 292.571 85.788 292.707 85.5392 292.947C85.2903 293.186 84.9238 293.526 84.4641 293.939C83.5461 294.765 82.252 295.879 80.7764 297.053C79.3036 298.229 77.9272 299.239 76.9174 299.951C76.4122 300.306 75.9994 300.589 75.7104 300.778C75.4214 300.967 75.2582 301.066 75.2508 301.055Z" fill="#2A2F4F"/>
<path d="M219.716 293.623C216.88 292.319 213.808 291.564 210.695 291.349C201.83 290.737 193.597 286.755 186.999 280.803C186.732 280.562 186.46 280.325 186.184 280.093C181.978 276.553 177.558 271 176.648 265.579C173.266 245.444 170.75 217.699 170.926 203.121H168.904C168.904 203.121 168.679 238.554 162.086 268.528C161.423 271.542 159.258 273.96 156.413 275.156C150.041 277.836 144.559 282.735 141.264 288.801C139.352 292.322 135.419 294.142 131.446 293.621C126.83 293.015 122.03 293.763 117.871 295.864C111.474 299.096 106.749 305.451 105.496 312.508L234.505 312.574C232.97 304.392 227.28 297.101 219.716 293.623Z" fill="#EBEBEB"/>
<path d="M146.966 190.284H119.707V97.7439C119.707 90.2163 125.809 84.114 133.336 84.114C140.864 84.114 146.966 90.2163 146.966 97.7439V190.284Z" fill="#FF3D9A"/>
<path d="M146.966 190.284H119.707V97.7439C119.707 90.2163 125.809 84.114 133.336 84.114C140.864 84.114 146.966 90.2163 146.966 97.7439V190.284Z" fill="#2A2F4F"/>
<path d="M146.967 96.2594C146.967 96.3574 140.882 96.4362 133.378 96.4362C125.872 96.4362 119.789 96.3567 119.789 96.2594C119.789 96.1615 125.872 96.0826 133.378 96.0826C140.883 96.0826 146.967 96.1622 146.967 96.2594Z" fill="#2A2F4F"/>
<path d="M146.967 119.885C146.967 119.983 140.882 120.062 133.378 120.062C125.872 120.062 119.789 119.983 119.789 119.885C119.789 119.788 125.872 119.709 133.378 119.709C140.883 119.708 146.967 119.787 146.967 119.885Z" fill="#2A2F4F"/>
<path d="M139.409 119.885C139.311 119.885 139.232 114.596 139.232 108.073C139.232 101.548 139.311 96.2594 139.409 96.2594C139.507 96.2594 139.586 101.547 139.586 108.073C139.586 114.596 139.507 119.885 139.409 119.885Z" fill="#2A2F4F"/>
<path d="M136.214 103.133C136.214 103.663 135.784 104.092 135.255 104.092C134.726 104.092 134.296 103.662 134.296 103.133C134.296 102.603 134.726 102.173 135.255 102.173C135.784 102.173 136.214 102.603 136.214 103.133Z" fill="#2A2F4F"/>
<path d="M136.214 111.302C136.214 111.831 135.784 112.261 135.255 112.261C134.726 112.261 134.296 111.831 134.296 111.302C134.296 110.772 134.726 110.342 135.255 110.342C135.784 110.342 136.214 110.772 136.214 111.302Z" fill="#2A2F4F"/>
<path d="M146.967 167.94C146.967 168.038 140.882 168.116 133.378 168.116C125.872 168.116 119.789 168.037 119.789 167.94C119.789 167.842 125.872 167.763 133.378 167.763C140.883 167.763 146.967 167.842 146.967 167.94Z" fill="#2A2F4F"/>
<path d="M139.409 167.94C139.311 167.94 139.232 162.651 139.232 156.127C139.232 149.602 139.311 144.314 139.409 144.314C139.507 144.314 139.586 149.602 139.586 156.127C139.586 162.651 139.507 167.94 139.409 167.94Z" fill="#2A2F4F"/>
<path d="M135.255 152.146C135.784 152.146 136.213 151.717 136.213 151.187C136.213 150.658 135.784 150.228 135.255 150.228C134.725 150.228 134.296 150.658 134.296 151.187C134.296 151.717 134.725 152.146 135.255 152.146Z" fill="#2A2F4F"/>
<path d="M135.255 160.315C135.784 160.315 136.213 159.885 136.213 159.356C136.213 158.826 135.784 158.397 135.255 158.397C134.725 158.397 134.296 158.826 134.296 159.356C134.296 159.885 134.725 160.315 135.255 160.315Z" fill="#2A2F4F"/>
<path d="M119.789 144.127C119.789 144.029 125.874 143.95 133.378 143.95C140.884 143.95 146.967 144.029 146.967 144.127C146.967 144.225 140.883 144.303 133.378 144.303C125.874 144.303 119.789 144.225 119.789 144.127Z" fill="#2A2F4F"/>
<path d="M127.347 144.127C127.249 144.127 127.17 138.838 127.17 132.314C127.17 125.789 127.25 120.501 127.347 120.501C127.445 120.501 127.524 125.788 127.524 132.314C127.524 138.838 127.444 144.127 127.347 144.127Z" fill="#2A2F4F"/>
<path d="M130.542 127.374C130.542 127.904 130.971 128.333 131.5 128.333C132.03 128.333 132.46 127.903 132.46 127.374C132.46 126.844 132.03 126.415 131.5 126.415C130.971 126.415 130.542 126.844 130.542 127.374Z" fill="#2A2F4F"/>
<path d="M130.542 135.543C130.542 136.073 130.971 136.503 131.5 136.503C132.03 136.503 132.46 136.073 132.46 135.543C132.46 135.013 132.03 134.584 131.5 134.584C130.971 134.584 130.542 135.013 130.542 135.543Z" fill="#2A2F4F"/>
<path d="M121.497 98.5925C121.472 98.5898 121.473 98.396 121.494 98.0465C121.512 97.6963 121.572 97.1924 121.675 96.5743C121.885 95.3414 122.313 93.638 123.174 91.9122C123.608 91.0527 124.112 90.2802 124.628 89.6233C125.166 88.9834 125.691 88.4401 126.194 88.0559C126.432 87.8472 126.675 87.6962 126.882 87.5554C127.086 87.4099 127.274 87.3052 127.432 87.227C127.744 87.0645 127.921 86.9856 127.932 87.0074C127.966 87.0665 127.28 87.4317 126.356 88.247C125.886 88.6455 125.394 89.1922 124.885 89.8246C124.397 90.4747 123.916 91.2308 123.491 92.07C122.65 93.755 122.192 95.4149 121.921 96.6219C121.654 97.833 121.554 98.5986 121.497 98.5925Z" fill="#FAFAFA"/>
<path d="M132.535 85.8466C132.551 85.9432 132.125 86.0962 131.583 86.188C131.041 86.2804 130.588 86.277 130.572 86.1805C130.555 86.0839 130.982 85.9309 131.524 85.8391C132.066 85.7466 132.519 85.75 132.535 85.8466Z" fill="#FAFAFA"/>
<path d="M190.8 190.284H218.06V97.7439C218.06 90.2163 211.958 84.114 204.43 84.114C196.903 84.114 190.8 90.2163 190.8 97.7439V190.284Z" fill="#FF3D9A"/>
<path d="M190.8 190.284H218.06V97.7439C218.06 90.2163 211.958 84.114 204.43 84.114C196.903 84.114 190.8 90.2163 190.8 97.7439V190.284Z" fill="#2A2F4F"/>
<path d="M190.8 96.2594C190.8 96.1615 196.885 96.0826 204.389 96.0826C211.895 96.0826 217.978 96.1622 217.978 96.2594C217.978 96.3567 211.895 96.4362 204.389 96.4362C196.885 96.4369 190.8 96.3574 190.8 96.2594Z" fill="#2A2F4F"/>
<path d="M190.8 119.885C190.8 119.787 196.885 119.709 204.389 119.709C211.895 119.709 217.978 119.788 217.978 119.885C217.978 119.983 211.895 120.062 204.389 120.062C196.885 120.062 190.8 119.983 190.8 119.885Z" fill="#2A2F4F"/>
<path d="M198.358 119.885C198.261 119.885 198.182 114.596 198.182 108.073C198.182 101.548 198.261 96.2594 198.358 96.2594C198.456 96.2594 198.535 101.547 198.535 108.073C198.535 114.596 198.456 119.885 198.358 119.885Z" fill="#2A2F4F"/>
<path d="M201.553 103.133C201.553 103.663 201.983 104.092 202.512 104.092C203.042 104.092 203.471 103.662 203.471 103.133C203.471 102.603 203.042 102.173 202.512 102.173C201.982 102.173 201.553 102.603 201.553 103.133Z" fill="#2A2F4F"/>
<path d="M201.553 111.302C201.553 111.831 201.983 112.261 202.512 112.261C203.042 112.261 203.471 111.831 203.471 111.302C203.471 110.772 203.042 110.342 202.512 110.342C201.982 110.342 201.553 110.772 201.553 111.302Z" fill="#2A2F4F"/>
<path d="M190.8 167.94C190.8 167.842 196.885 167.763 204.389 167.763C211.895 167.763 217.978 167.842 217.978 167.94C217.978 168.037 211.895 168.116 204.389 168.116C196.885 168.116 190.8 168.038 190.8 167.94Z" fill="#2A2F4F"/>
<path d="M198.358 167.94C198.261 167.94 198.182 162.651 198.182 156.127C198.182 149.602 198.261 144.314 198.358 144.314C198.456 144.314 198.535 149.602 198.535 156.127C198.535 162.651 198.456 167.94 198.358 167.94Z" fill="#2A2F4F"/>
<path d="M202.512 152.146C203.042 152.146 203.471 151.717 203.471 151.187C203.471 150.658 203.042 150.228 202.512 150.228C201.982 150.228 201.553 150.658 201.553 151.187C201.553 151.717 201.982 152.146 202.512 152.146Z" fill="#2A2F4F"/>
<path d="M202.512 160.315C203.042 160.315 203.471 159.885 203.471 159.356C203.471 158.826 203.042 158.397 202.512 158.397C201.982 158.397 201.553 158.826 201.553 159.356C201.553 159.885 201.982 160.315 202.512 160.315Z" fill="#2A2F4F"/>
<path d="M217.978 144.127C217.978 144.225 211.893 144.303 204.39 144.303C196.883 144.303 190.8 144.224 190.8 144.127C190.8 144.029 196.883 143.95 204.39 143.95C211.894 143.95 217.978 144.029 217.978 144.127Z" fill="#2A2F4F"/>
<path d="M210.42 144.127C210.323 144.127 210.244 138.838 210.244 132.314C210.244 125.789 210.323 120.501 210.42 120.501C210.518 120.501 210.597 125.788 210.597 132.314C210.598 138.838 210.518 144.127 210.42 144.127Z" fill="#2A2F4F"/>
<path d="M207.226 127.374C207.226 127.904 206.796 128.333 206.267 128.333C205.737 128.333 205.308 127.903 205.308 127.374C205.308 126.844 205.737 126.415 206.267 126.415C206.796 126.415 207.226 126.844 207.226 127.374Z" fill="#2A2F4F"/>
<path d="M207.226 135.543C207.226 136.073 206.796 136.503 206.267 136.503C205.737 136.503 205.308 136.073 205.308 135.543C205.308 135.013 205.737 134.584 206.267 134.584C206.796 134.584 207.226 135.013 207.226 135.543Z" fill="#2A2F4F"/>
<path d="M216.271 98.5925C216.213 98.5986 216.113 97.833 215.846 96.6226C215.576 95.4156 215.117 93.7557 214.277 92.0706C213.852 91.2315 213.371 90.4753 212.883 89.8253C212.374 89.1929 211.882 88.6462 211.412 88.2477C210.488 87.4324 209.802 87.0665 209.836 87.008C209.847 86.9863 210.024 87.0652 210.336 87.2277C210.495 87.3059 210.682 87.4106 210.886 87.5561C211.093 87.6969 211.336 87.8485 211.574 88.0566C212.076 88.4408 212.602 88.9841 213.139 89.624C213.655 90.2809 214.159 91.0534 214.594 91.9129C215.455 93.6394 215.882 95.3421 216.092 96.575C216.196 97.1938 216.256 97.6976 216.273 98.0472C216.294 98.3967 216.295 98.5905 216.271 98.5925Z" fill="white"/>
<path d="M205.233 85.8466C205.249 85.75 205.702 85.7466 206.244 85.8391C206.786 85.9316 207.212 86.0839 207.196 86.1805C207.18 86.277 206.727 86.2804 206.185 86.188C205.642 86.0962 205.216 85.9432 205.233 85.8466Z" fill="white"/>
<path d="M160.817 47.7034L151.256 65.7465C148.439 71.0634 146.966 76.9896 146.966 83.0069V208.568L163.73 219.276H175.352L190.975 208.568V83.5611C190.975 77.7934 189.621 72.1052 187.023 66.9555L177.269 47.6224C176.164 45.4328 173.921 44.0518 171.468 44.0518H166.657C164.172 44.0518 161.905 45.4689 160.817 47.7034Z" fill="#FF3D9A"/>
<path d="M146.966 198.577H104.8C104.8 198.577 104.8 179.998 122.435 166.772C140.069 153.546 146.966 123.631 146.966 123.631V198.577Z" fill="#FF3D9A"/>
<path d="M190.975 198.577H233.141C233.141 198.577 233.141 179.998 215.506 166.772C197.872 153.546 190.975 123.631 190.975 123.631V198.577Z" fill="#FF3D9A"/>
<path opacity="0.2" d="M146.966 198.577H104.8C104.8 198.577 104.8 179.998 122.435 166.772C140.069 153.546 146.966 123.631 146.966 123.631V198.577Z" fill="#2A2F4F"/>
<path opacity="0.2" d="M190.975 198.577H233.141C233.141 198.577 233.141 179.998 215.506 166.772C197.872 153.546 190.975 123.631 190.975 123.631V198.577Z" fill="#2A2F4F"/>
<path d="M150.07 132.933C149.972 132.933 149.893 123.662 149.893 112.229C149.893 100.792 149.973 91.5233 150.07 91.5233C150.168 91.5233 150.247 100.792 150.247 112.229C150.247 123.662 150.167 132.933 150.07 132.933Z" fill="#FAFAFA"/>
<path d="M150.532 79.2404C150.63 79.2404 150.709 80.0829 150.709 81.1226C150.709 82.1623 150.63 83.0049 150.532 83.0049C150.435 83.0049 150.355 82.1623 150.355 81.1226C150.355 80.0829 150.435 79.2404 150.532 79.2404Z" fill="#FAFAFA"/>
<path d="M164.137 47.1777C164.224 47.2226 161.345 53.0087 157.706 60.1004C154.067 67.1949 151.047 72.9076 150.96 72.8634C150.873 72.8185 153.752 67.033 157.391 59.9393C161.029 52.8469 164.05 47.1328 164.137 47.1777Z" fill="#FAFAFA"/>
<path d="M142.404 143.214C142.411 143.215 142.404 143.271 142.387 143.379C142.364 143.508 142.336 143.666 142.302 143.859C142.26 144.079 142.21 144.338 142.152 144.638C142.098 144.947 142.021 145.301 141.899 145.69C141.51 147.272 140.683 149.505 139.27 152.059C137.87 154.622 135.775 157.419 133.199 160.28C130.611 163.135 127.515 166.029 124.242 169.019C120.989 172.018 118.145 175.155 115.895 178.257C114.745 179.791 113.797 181.348 112.926 182.811C112.102 184.302 111.374 185.714 110.814 187.051C109.673 189.715 109.016 191.978 108.657 193.559C108.453 194.344 108.369 194.97 108.272 195.387C108.23 195.579 108.197 195.735 108.17 195.863C108.145 195.97 108.129 196.024 108.123 196.024C108.117 196.023 108.121 195.966 108.134 195.858C108.152 195.728 108.174 195.57 108.202 195.376C108.277 194.955 108.338 194.322 108.523 193.529C108.842 191.933 109.466 189.647 110.585 186.953C111.133 185.602 111.853 184.173 112.671 182.667C113.536 181.188 114.482 179.615 115.631 178.065C117.882 174.933 120.735 171.771 124.004 168.758C127.277 165.767 130.368 162.891 132.958 160.06C135.535 157.225 137.635 154.463 139.053 151.935C140.481 149.416 141.339 147.215 141.766 145.653C141.897 145.268 141.985 144.92 142.049 144.614C142.12 144.317 142.181 144.061 142.232 143.844C142.281 143.654 142.32 143.499 142.352 143.373C142.381 143.266 142.398 143.213 142.404 143.214Z" fill="#FAFAFA"/>
<path d="M172.606 87.1053H165.334C160.933 87.1053 157.365 83.5373 157.365 79.1357C157.365 74.734 160.933 71.1661 165.334 71.1661H172.606C177.008 71.1661 180.576 74.734 180.576 79.1357C180.576 83.5373 177.008 87.1053 172.606 87.1053Z" fill="white"/>
<path opacity="0.4" d="M146.966 208.568L163.73 219.276H175.352L190.975 208.568V204.156H146.966V208.568Z" fill="#2A2F4F"/>
</svg>
