<svg
  width="40"
  height="40"
  viewBox="0 0 46 46"
  fill="none"
  xmlns="http://www.w3.org/2000/svg"
>
  <rect x="3" y="3" width="40" height="40" rx="20" fill="#F7F9FD" />
  <g clip-path="url(#clip0_136_36413)">
    <path
      d="M31 31H15V17C15 16.4696 15.2107 15.9609 15.5858 15.5858C15.9609 15.2107 16.4696 15 17 15H29C29.5304 15 30.0391 15.2107 30.4142 15.5858C30.7893 15.9609 31 16.4696 31 17V31ZM16.3333 29.6667H29.6667V17C29.6667 16.8232 29.5964 16.6536 29.4714 16.5286C29.3464 16.4036 29.1768 16.3333 29 16.3333H17C16.8232 16.3333 16.6536 16.4036 16.5286 16.5286C16.4036 16.6536 16.3333 16.8232 16.3333 17V29.6667Z"
      fill="#219653"
    />
    <path
      d="M21.2221 26.9461C21.0469 26.9466 20.8734 26.9123 20.7116 26.8453C20.5498 26.7782 20.4029 26.6797 20.2794 26.5554L17.1954 23.4714L18.1381 22.5288L21.2221 25.6128L27.8621 18.9734L28.8048 19.9161L22.1654 26.5554C22.0419 26.6797 21.8948 26.7782 21.7329 26.8453C21.571 26.9124 21.3974 26.9466 21.2221 26.9461Z"
      fill="#219653"
    />
  </g>
  <rect
    x="3"
    y="3"
    width="40"
    height="40"
    rx="20"
    stroke="#219653"
    stroke-opacity="0.12"
    stroke-width="6"
  />
  <defs>
    <clipPath id="clip0_136_36413">
      <rect
        width="16"
        height="16"
        fill="white"
        transform="translate(15 15)"
      />
    </clipPath>
  </defs>
</svg>