<svg xmlns="http://www.w3.org/2000/svg" width="16" height="16" viewBox="0 0 16 16" fill="none">
  <g clip-path="url(#clip0_4001_7187)">
    <path d="M5.99969 8C8.20569 8 9.99969 6.206 9.99969 4C9.99969 1.794 8.20569 0 5.99969 0C3.79369 0 1.99969 1.794 1.99969 4C1.99969 6.206 3.79369 8 5.99969 8ZM5.99969 1.33333C7.47036 1.33333 8.66636 2.52933 8.66636 4C8.66636 5.47067 7.47036 6.66667 5.99969 6.66667C4.52902 6.66667 3.33302 5.47067 3.33302 4C3.33302 2.52933 4.52902 1.33333 5.99969 1.33333ZM13.9997 9.33333H10.6664C9.56369 9.33333 8.66636 10.2307 8.66636 11.3333V14C8.66636 15.1027 9.56369 16 10.6664 16H13.9997C15.1024 16 15.9997 15.1027 15.9997 14V11.3333C15.9997 10.2307 15.1024 9.33333 13.9997 9.33333ZM14.6664 14C14.6664 14.368 14.367 14.6667 13.9997 14.6667H10.6664C10.299 14.6667 9.99969 14.368 9.99969 14V11.3333C9.99969 10.9653 10.299 10.6667 10.6664 10.6667H13.9997C14.367 10.6667 14.6664 10.9653 14.6664 11.3333V14ZM13.333 12C13.333 12.3687 13.0344 12.6667 12.6664 12.6667H11.9997C11.6317 12.6667 11.333 12.3687 11.333 12C11.333 11.6313 11.6317 11.3333 11.9997 11.3333H12.6664C13.0344 11.3333 13.333 11.6313 13.333 12ZM7.09902 11.2853C7.37902 11.524 7.41236 11.9447 7.17369 12.2253L6.84036 12.616C6.80036 12.6627 6.75436 12.704 6.70236 12.738C6.17569 13.0893 5.46302 12.9953 5.04436 12.5173L3.49036 10.6727C2.13702 11.5353 1.33236 13.0027 1.33236 14.5967V15.3333C1.33236 15.702 1.03369 16 0.66569 16C0.29769 16 -0.000976562 15.702 -0.000976562 15.3333V14.5967C-0.000976562 12.5467 1.03302 10.6593 2.76436 9.54933C3.32836 9.188 4.07969 9.302 4.50969 9.814L5.98369 11.564L6.15769 11.3593C6.39636 11.0793 6.81769 11.0447 7.09769 11.2853H7.09902Z" fill="#555972"/>
  </g>
  <defs>
    <clipPath id="clip0_4001_7187">
      <rect width="16" height="16" fill="white"/>
    </clipPath>
  </defs>
</svg>