<svg
	xmlns="http://www.w3.org/2000/svg"
	width="20"
	height="20"
	viewBox="0 0 20 20"
	fill="none"
>
	<g clip-path="url(#clip0_1612_31330)">
		<path
			d="M16.175 4.20817V4.66569L16.594 4.84932C17.697 5.33264 18.4666 6.43416 18.4666 7.70831V12.2916C18.4666 14.0111 17.0666 15.4111 15.3472 15.4111H7.70831C5.98887 15.4111 4.58887 14.0111 4.58887 12.2916V7.70831C4.58887 6.43416 5.35853 5.33264 6.46149 4.84932L6.88053 4.66569V4.20817V2.36109V1.66109H6.18053H4.65276C3.00269 1.66109 1.66109 3.00269 1.66109 4.65276V18.4028C1.66109 18.4378 1.63227 18.4666 1.5972 18.4666C1.56213 18.4666 1.53331 18.4378 1.53331 18.4028V4.65276C1.53331 2.93332 2.93332 1.53331 4.65276 1.53331H18.4028C18.4378 1.53331 18.4666 1.56213 18.4666 1.5972C18.4666 1.63227 18.4378 1.66109 18.4028 1.66109H16.875H16.175V2.36109V4.20817ZM7.70831 1.66109H7.00831V2.36109V3.88887V4.58887H7.70831H15.3472H16.0472V3.88887V2.36109V1.66109H15.3472H7.70831ZM15.3472 15.2833C16.9973 15.2833 18.3389 13.9417 18.3389 12.2916V7.70831C18.3389 6.05824 16.9973 4.71665 15.3472 4.71665H7.70831C6.05824 4.71665 4.71665 6.05824 4.71665 7.70831V12.2916C4.71665 13.9417 6.05824 15.2833 7.70831 15.2833H15.3472Z"
			stroke="#AAACB9"
			stroke-width="1.4"
		/>
	</g>
	<defs>
		<clipPath id="clip0_1612_31330">
			<rect width="20" height="20" fill="white" />
		</clipPath>
	</defs>
</svg>