<svg
	xmlns="http://www.w3.org/2000/svg"
	width="16"
	height="16"
	viewBox="0 0 16 16"
	fill="none"
	class="my-auto"
>
	<g clip-path="url(#clip0_2068_3648)">
		<path
			d="M8.00008 0.666626C3.95636 0.666626 0.666748 3.95624 0.666748 7.99996C0.666748 12.0437 3.95636 15.3333 8.00008 15.3333C12.0438 15.3333 15.3334 12.0437 15.3334 7.99996C15.3334 3.95624 12.0438 0.666626 8.00008 0.666626ZM11.789 7.09063L9.08419 9.7459C8.60569 10.2152 7.98969 10.4493 7.37308 10.4493C6.76319 10.4493 6.1533 10.2195 5.67664 9.75935L4.51614 8.6184C4.27536 8.3819 4.2723 7.99507 4.5088 7.75429C4.74469 7.5129 5.13275 7.50985 5.37291 7.74696L6.52975 8.88424C7.00397 9.34257 7.75258 9.34013 8.22925 8.87324L10.9334 6.21857C11.1736 5.98146 11.5592 5.98574 11.7975 6.22651C12.034 6.46729 12.0304 6.85413 11.789 7.09063Z"
			fill="white"
		/>
	</g>
	<defs>
		<clipPath id="clip0_2068_3648">
			<rect width="16" height="16" fill="white" />
		</clipPath>
	</defs>
</svg>