<svg width="16" height="16" viewBox="0 0 16 16" fill="none" xmlns="http://www.w3.org/2000/svg">
<g clip-path="url(#clip0_4312_2378)">
<path d="M8.91814 7.99969C8.91814 9.34774 10.0168 10.444 11.3678 10.444C12.7187 10.444 13.8174 9.34774 13.8174 7.99969C13.8174 6.65163 12.7187 5.55535 11.3678 5.55535C10.0168 5.55535 8.91814 6.65163 8.91814 7.99969ZM11.3678 6.77752C12.0432 6.77752 12.5926 7.32566 12.5926 7.99969C12.5926 8.67371 12.0432 9.22186 11.3678 9.22186C10.6923 9.22186 10.1429 8.67371 10.1429 7.99969C10.1429 7.32566 10.6923 6.77752 11.3678 6.77752ZM7.99953 5.55535C9.35049 5.55535 10.4491 4.45906 10.4491 3.11101C10.4491 1.76296 9.35049 0.666672 7.99953 0.666672C6.64857 0.666672 5.54991 1.76296 5.54991 3.11101C5.54991 4.45906 6.64857 5.55535 7.99953 5.55535ZM7.99953 1.88884C8.67501 1.88884 9.22434 2.43698 9.22434 3.11101C9.22434 3.78504 8.67501 4.33318 7.99953 4.33318C7.32405 4.33318 6.77472 3.78504 6.77472 3.11101C6.77472 2.43698 7.32405 1.88884 7.99953 1.88884ZM4.63131 10.444C5.98227 10.444 7.08092 9.34774 7.08092 7.99969C7.08092 6.65163 5.98227 5.55535 4.63131 5.55535C3.28035 5.55535 2.18169 6.65163 2.18169 7.99969C2.18169 9.34774 3.28035 10.444 4.63131 10.444ZM4.63131 6.77752C5.30679 6.77752 5.85612 7.32566 5.85612 7.99969C5.85612 8.67371 5.30679 9.22186 4.63131 9.22186C3.95583 9.22186 3.4065 8.67371 3.4065 7.99969C3.4065 7.32566 3.95583 6.77752 4.63131 6.77752ZM15.3306 14.6666C15.3612 15.0027 15.1126 15.2997 14.7758 15.3303C14.7574 15.3315 14.7384 15.3327 14.7201 15.3327C14.4065 15.3327 14.1395 15.0938 14.1107 14.7766C14.0433 14.0317 13.6594 13.3375 13.0568 12.8713C13.0415 12.859 12.9912 12.8645 12.9588 12.9012L11.8313 14.2046C11.7156 14.3391 11.5343 14.4424 11.3678 14.4167C11.1914 14.4167 11.0236 14.3409 10.9072 14.2089L9.76509 12.9098C9.73386 12.8737 9.68364 12.867 9.66711 12.8804C9.06328 13.3534 8.69277 14.0268 8.62541 14.7772C8.59907 15.0681 8.37249 15.2783 8.09078 15.3156C8.07302 15.3186 8.05771 15.329 8.03934 15.3309C8.02035 15.3321 8.00198 15.3333 7.98361 15.3333C7.97748 15.3333 7.97258 15.3303 7.96707 15.3303C7.96462 15.3303 7.96279 15.3315 7.96034 15.3309C7.9536 15.3309 7.94809 15.326 7.94135 15.3254C7.64679 15.3046 7.40121 15.0797 7.37427 14.7772C7.30629 14.0213 6.93211 13.3448 6.32093 12.8719C6.30317 12.859 6.25357 12.8651 6.22295 12.9018L5.09551 14.2053C4.97915 14.3403 4.80891 14.4185 4.63192 14.4173C4.45555 14.4173 4.28775 14.3415 4.17139 14.2089L3.02926 12.9098C2.99741 12.8743 2.9472 12.8676 2.93127 12.881C2.32683 13.354 1.95633 14.0274 1.88896 14.7778C1.85896 15.1139 1.56561 15.3571 1.22389 15.3315C0.88707 15.3009 0.638434 15.0039 0.669054 14.6678C0.765814 13.5942 1.31514 12.5926 2.17557 11.9186C2.71203 11.4994 3.49101 11.5813 3.9497 12.1037L4.62763 12.8749L5.29515 12.1031C5.7514 11.5745 6.5316 11.4878 7.07113 11.9064C7.44347 12.1942 7.75396 12.5462 7.99953 12.936C8.24204 12.5517 8.54641 12.2046 8.9114 11.9186C9.44664 11.5 10.2268 11.5806 10.6855 12.1043L11.3635 12.8749L12.031 12.1031C12.4872 11.5745 13.268 11.489 13.8063 11.9057C14.6766 12.5792 15.2314 13.5856 15.3294 14.6672L15.3306 14.6666Z" fill="#555972"/>
</g>
<defs>
<clipPath id="clip0_4312_2378">
<rect width="16" height="16" fill="white"/>
</clipPath>
</defs>
</svg>
