<svg
  width="46"
  height="46"
  viewBox="0 0 46 46"
  fill="none"
  xmlns="http://www.w3.org/2000/svg"
>
  <rect
    x="3"
    y="3"
    width="40"
    height="40"
    rx="20"
    fill="#F8B440"
    fill-opacity="0.12"
  />
  <g clip-path="url(#clip0_143_36715)">
    <path
      d="M23 31C21.4178 31 19.871 30.5308 18.5554 29.6518C17.2398 28.7727 16.2145 27.5233 15.609 26.0615C15.0035 24.5997 14.845 22.9911 15.1537 21.4393C15.4624 19.8874 16.2243 18.462 17.3431 17.3431C18.462 16.2243 19.8874 15.4624 21.4393 15.1537C22.9911 14.845 24.5997 15.0035 26.0615 15.609C27.5233 16.2145 28.7727 17.2398 29.6518 18.5554C30.5308 19.871 31 21.4178 31 23C30.9977 25.121 30.1541 27.1545 28.6543 28.6543C27.1545 30.1541 25.121 30.9977 23 31ZM23 16.3333C21.6815 16.3333 20.3925 16.7243 19.2962 17.4569C18.1999 18.1894 17.3454 19.2306 16.8408 20.4488C16.3362 21.667 16.2042 23.0074 16.4614 24.3006C16.7187 25.5938 17.3536 26.7817 18.286 27.714C19.2183 28.6464 20.4062 29.2813 21.6994 29.5386C22.9926 29.7958 24.3331 29.6638 25.5512 29.1592C26.7694 28.6546 27.8106 27.8001 28.5431 26.7038C29.2757 25.6075 29.6667 24.3185 29.6667 23C29.6647 21.2325 28.9617 19.5379 27.7119 18.2881C26.4621 17.0383 24.7675 16.3353 23 16.3333Z"
      fill="#FFC33D"
    />
    <path
      d="M23.6668 18.3331H22.3334V24.9998H23.6668V18.3331Z"
      fill="#FFC33D"
    />
    <path
      d="M23.6668 26.3331H22.3334V27.6665H23.6668V26.3331Z"
      fill="#FFC33D"
    />
  </g>
  <rect
    x="3"
    y="3"
    width="40"
    height="40"
    rx="20"
    stroke="#F8B440"
    stroke-opacity="0.12"
    stroke-width="6"
  />
  <defs>
    <clipPath id="clip0_143_36715">
      <rect
        width="16"
        height="16"
        fill="white"
        transform="translate(15 15)"
      />
    </clipPath>
  </defs>
</svg>