<svg xmlns="http://www.w3.org/2000/svg" width="20" height="20" viewBox="0 0 20 20" fill="none">
  <g clip-path="url(#clip0_1542_24478)">
    <path d="M16.6053 6.88059H17.8209L17.2107 5.82923C16.1063 3.92635 14.2966 2.53533 12.1736 1.95766L10.7348 1.56613C12.71 1.74029 14.5708 2.60301 15.9839 4.01611C17.5711 5.60335 18.464 7.75536 18.4666 10C18.4666 11.6746 17.97 13.3115 17.0397 14.7039C16.1094 16.0962 14.7871 17.1814 13.24 17.8222C12.4354 18.1555 11.5888 18.3608 10.7305 18.4351L12.1736 18.0424C14.2966 17.4647 16.1063 16.0737 17.2107 14.1708L17.8209 13.1195H16.6053H14.1448H13.6844L13.5021 13.5422C12.9769 14.7592 12.2855 15.8975 11.4475 16.9244L10.1908 18.4646C10.0657 18.4674 9.94042 18.4674 9.81515 18.4647L8.55579 16.924C7.71653 15.8972 7.02385 14.7589 6.49758 13.5417L6.31504 13.1195H5.85506H3.39457H2.17872L2.78921 14.171C3.89454 16.0747 5.70595 17.4658 7.83043 18.0425L9.28012 18.4361C8.9683 18.4094 8.65716 18.3655 8.34816 18.304C6.70578 17.9773 5.19717 17.171 4.01308 15.9869C2.829 14.8028 2.02263 13.2942 1.69594 11.6518C1.36925 10.0094 1.53692 8.30707 2.17774 6.75999C2.81856 5.21291 3.90376 3.89059 5.29609 2.96026C6.48811 2.16378 7.85942 1.68523 9.28012 1.56402L7.83043 1.95754C5.70595 2.53424 3.89454 3.92537 2.78921 5.82912L2.17872 6.88059H3.39457H5.85506H6.31504L6.49758 6.45839C7.02385 5.24116 7.71653 4.10287 8.55579 3.0761L9.81515 1.53539C9.87656 1.53405 9.93803 1.53338 9.99955 1.53337C10.0634 1.53345 10.1273 1.53424 10.191 1.53575L11.4475 3.07564C12.2855 4.10262 12.9769 5.2409 13.5021 6.45792L13.6844 6.88059H14.1448H16.6053ZM14.1374 10.0057H14.1375L14.1374 9.99439C14.1306 9.14685 13.997 8.3051 13.7412 7.49707L13.5864 7.00837H13.0738H6.92603H6.41342L6.25869 7.49707C6.00284 8.3051 5.86928 9.14685 5.86244 9.99439L5.86235 9.99439L5.86244 10.0057C5.86928 10.8532 6.00284 11.695 6.25869 12.503L6.41342 12.9917H6.92603H13.0738H13.5864L13.7412 12.503C13.997 11.695 14.1306 10.8532 14.1374 10.0057ZM7.53867 13.1195H6.39986L6.9141 14.1356C7.5924 15.4758 8.46014 16.7115 9.4906 17.8044L10.0001 18.3448L10.5094 17.8042C11.5394 16.7111 12.407 15.4757 13.0856 14.1358L13.6004 13.1195H12.4612H7.53867ZM6.91421 5.8643L6.39945 6.88059H7.53867H12.4612H13.6L13.0857 5.8645C12.4074 4.52424 11.5397 3.28862 10.5092 2.19567L9.99975 1.65529L9.49044 2.19584C8.46046 3.28899 7.59286 4.52443 6.91421 5.8643ZM2.71319 7.00837H2.19966L2.04548 7.4982C1.53289 9.12671 1.53289 10.8734 2.04548 12.5019L2.19966 12.9917H2.71319H5.3402H6.24965L6.01688 12.1125C5.83433 11.423 5.73951 10.7133 5.73466 10C5.73951 9.28681 5.83433 8.57703 6.01688 7.88753L6.24965 7.00837H5.3402H2.71319ZM13.983 12.1125L13.7502 12.9917H14.6596H16.3309H17.2851H17.2867V12.2922L17.9528 12.5019C18.4654 10.8734 18.4654 9.12671 17.9528 7.4982L17.7987 7.00837H17.2851H14.6596H13.7502L13.983 7.88753C14.1655 8.57703 14.2603 9.28681 14.2652 10C14.2603 10.7133 14.1655 11.423 13.983 12.1125Z" stroke="#AAACB9" stroke-width="1.4"/>
  </g>
  <defs>
    <clipPath id="clip0_1542_24478">
      <rect width="20" height="20" fill="white"/>
    </clipPath>
  </defs>
</svg>