<svg width="20" height="20" viewBox="0 0 20 20" fill="none" xmlns="http://www.w3.org/2000/svg">
<path d="M17.8243 8.23137C17.1976 7.22318 16.4071 6.32261 15.4842 5.56541L17.4279 3.6558C17.5543 3.52717 17.6243 3.3549 17.6227 3.17608C17.6211 2.99726 17.5481 2.8262 17.4194 2.69975C17.2907 2.57331 17.1166 2.50158 16.9346 2.50003C16.7526 2.49847 16.5772 2.56721 16.4463 2.69145L14.3325 4.77088C13.0222 4.00623 11.5241 3.60769 10.0001 3.61829C5.70237 3.61829 3.25328 6.50862 2.1759 8.23137C1.84305 8.76027 1.66675 9.3698 1.66675 9.99162C1.66675 10.6134 1.84305 11.223 2.1759 11.7519C2.80258 12.7601 3.59307 13.6606 4.516 14.4178L2.57228 16.3274C2.50598 16.3904 2.45309 16.4656 2.41671 16.5488C2.38033 16.632 2.36118 16.7215 2.36038 16.8121C2.35958 16.9026 2.37714 16.9924 2.41204 17.0762C2.44695 17.1601 2.49849 17.2362 2.56367 17.3002C2.62885 17.3643 2.70636 17.4149 2.79167 17.4492C2.87699 17.4835 2.9684 17.5008 3.06057 17.5C3.15274 17.4992 3.24383 17.4804 3.32853 17.4446C3.41322 17.4089 3.48982 17.3569 3.55386 17.2918L5.67252 15.2103C6.98125 15.9748 8.4775 16.3741 10.0001 16.3649C14.2978 16.3649 16.7469 13.4746 17.8243 11.7519C18.1571 11.223 18.3334 10.6134 18.3334 9.99162C18.3334 9.3698 18.1571 8.76027 17.8243 8.23137ZM3.35879 11.0378C3.16104 10.7234 3.0563 10.3612 3.0563 9.99162C3.0563 9.62206 3.16104 9.2598 3.35879 8.94543C4.28484 7.4682 6.37781 4.9823 10.0001 4.9823C11.1526 4.97596 12.289 5.24885 13.3086 5.77683L11.9112 7.14971C11.2447 6.715 10.4457 6.52022 9.64968 6.59841C8.85367 6.6766 8.10972 7.02295 7.54405 7.57869C6.97838 8.13443 6.62584 8.86533 6.54625 9.64737C6.46667 10.4294 6.66493 11.2144 7.1074 11.8692L5.50383 13.4446C4.65352 12.7692 3.92791 11.9551 3.35879 11.0378ZM12.0826 9.99162C12.0826 10.5343 11.8632 11.0547 11.4727 11.4384C11.0821 11.8221 10.5524 12.0376 10.0001 12.0376C9.69083 12.0365 9.38586 11.9665 9.10805 11.833L11.8744 9.11524C12.0102 9.38818 12.0814 9.6878 12.0826 9.99162ZM7.91752 9.99162C7.91752 9.44898 8.13693 8.92857 8.52749 8.54487C8.91804 8.16117 9.44775 7.94561 10.0001 7.94561C10.3093 7.94678 10.6143 8.01673 10.8921 8.15021L8.12578 10.868C7.98992 10.5951 7.91872 10.2954 7.91752 9.99162ZM16.6414 11.0378C15.7153 12.515 13.6224 15.0009 10.0001 15.0009C8.84754 15.0073 7.71118 14.7344 6.69159 14.2064L8.08898 12.8335C8.75545 13.2682 9.55448 13.463 10.3505 13.3848C11.1465 13.3066 11.8904 12.9603 12.4561 12.4045C13.0218 11.8488 13.3743 11.1179 13.4539 10.3359C13.5335 9.55384 13.3352 8.76883 12.8928 8.11406L14.4963 6.53863C15.3466 7.21401 16.0723 8.02816 16.6414 8.94543C16.8391 9.2598 16.9439 9.62206 16.9439 9.99162C16.9439 10.3612 16.8391 10.7234 16.6414 11.0378Z" fill="#AAACB9"/>
</svg>
