<svg width="20" height="20" viewBox="0 0 20 20" fill="none" xmlns="http://www.w3.org/2000/svg">
<path d="M18.4663 13.7113C18.4663 13.7116 18.4663 13.7118 18.4663 13.7121C18.4651 14.5288 18.1375 15.3129 17.5534 15.8922C16.9689 16.4719 16.1752 16.799 15.3461 16.8H4.65328C3.82417 16.799 3.03047 16.4719 2.44595 15.8922C1.86173 15.3128 1.53411 14.5285 1.53301 13.7117V6.2883C1.53411 5.47146 1.86173 4.68719 2.44595 4.1078C3.03038 3.5282 3.82393 3.20108 4.6529 3.2H15.3464C16.1754 3.20108 16.969 3.5282 17.5534 4.1078L18.0463 3.61077L19.1663 13.7121L18.4663 13.7113ZM18.4663 13.7113V6.28872M18.4663 13.7113V6.28872M18.4663 6.28872L18.4663 6.28788L18.4663 6.28872ZM4.65245 3.31515L4.65109 3.31515C4.05527 3.31632 3.47294 3.49425 2.97902 3.82674C2.48503 4.15928 2.10179 4.63144 1.87954 5.18314L1.67267 5.69668L2.12475 6.01628L7.93082 10.1209C8.48826 10.6494 9.22923 10.9443 9.99967 10.9443C10.7701 10.9443 11.5111 10.6494 12.0685 10.1209L17.8746 6.01628L18.3267 5.69668L18.1198 5.18314C17.8976 4.63144 17.5143 4.15928 17.0203 3.82674C16.5264 3.49425 15.9441 3.31632 15.3483 3.31515H15.3469L4.65245 3.31515ZM2.74375 6.83829L1.66079 6.13048V7.42424V13.7121C1.66079 14.5024 1.9774 15.2592 2.53908 15.8162C3.10057 16.373 3.86088 16.6848 4.65245 16.6848H15.3469C16.1385 16.6848 16.8988 16.373 17.4603 15.8162C18.0219 15.2592 18.3386 14.5024 18.3386 13.7121V7.42424V6.13048L17.2556 6.83829L12.3178 10.0656L12.2587 10.1042L12.2085 10.1539C11.6231 10.7329 10.8289 11.0591 9.99967 11.0591C9.17044 11.0591 8.3762 10.7329 7.79085 10.1539L7.74064 10.1042L7.68153 10.0656L2.74375 6.83829Z" stroke="#AAACB9" stroke-width="1.4"/>
</svg>
