<svg width="20" height="20" viewBox="0 0 20 20" fill="none" xmlns="http://www.w3.org/2000/svg">
<g id="lock">
<path id="Vector" d="M15.25 7.26831V6.18053C15.25 4.76236 14.6969 3.40228 13.7123 2.39948C12.7277 1.39668 11.3924 0.833313 10 0.833313C8.60761 0.833313 7.27226 1.39668 6.28769 2.39948C5.30312 3.40228 4.75 4.76236 4.75 6.18053V7.26831C4.08202 7.56524 3.51347 8.05399 3.11387 8.67479C2.71428 9.2956 2.50096 10.0215 2.5 10.7639V15.3472C2.50119 16.3598 2.89666 17.3306 3.59966 18.0466C4.30267 18.7626 5.2558 19.1654 6.25 19.1666H13.75C14.7442 19.1654 15.6973 18.7626 16.4003 18.0466C17.1033 17.3306 17.4988 16.3598 17.5 15.3472V10.7639C17.499 10.0215 17.2857 9.2956 16.8861 8.67479C16.4865 8.05399 15.918 7.56524 15.25 7.26831ZM6.25 6.18053C6.25 5.16756 6.64509 4.19606 7.34835 3.47978C8.05161 2.7635 9.00544 2.36109 10 2.36109C10.9946 2.36109 11.9484 2.7635 12.6517 3.47978C13.3549 4.19606 13.75 5.16756 13.75 6.18053V6.94442H6.25V6.18053ZM16 15.3472C16 15.955 15.7629 16.5379 15.341 16.9677C14.919 17.3974 14.3467 17.6389 13.75 17.6389H6.25C5.65326 17.6389 5.08097 17.3974 4.65901 16.9677C4.23705 16.5379 4 15.955 4 15.3472V10.7639C4 10.1561 4.23705 9.57319 4.65901 9.14341C5.08097 8.71364 5.65326 8.4722 6.25 8.4722H13.75C14.3467 8.4722 14.919 8.71364 15.341 9.14341C15.7629 9.57319 16 10.1561 16 10.7639V15.3472Z" fill="#AAACB9"/>
<path id="Vector_2" d="M10.0001 11.6667C9.77907 11.6667 9.56711 11.7545 9.41083 11.9108C9.25455 12.067 9.16675 12.279 9.16675 12.5V14.1667C9.16675 14.3877 9.25455 14.5997 9.41083 14.7559C9.56711 14.9122 9.77907 15 10.0001 15C10.2211 15 10.4331 14.9122 10.5893 14.7559C10.7456 14.5997 10.8334 14.3877 10.8334 14.1667V12.5C10.8334 12.279 10.7456 12.067 10.5893 11.9108C10.4331 11.7545 10.2211 11.6667 10.0001 11.6667Z" fill="#AAACB9"/>
</g>
</svg>
